{"glyphs":{"0":{"ha":628,"x_min":-12,"x_max":626,"o":"m 456 683 q 580 639 533 683 q 626 510 626 594 q 556 306 626 426 q 372 95 485 185 q 156 6 258 6 q -12 193 -12 6 q 58 417 -12 303 q 238 608 128 532 q 456 683 349 683 m 362 156 q 396 189 362 156 q 473 315 431 222 q 515 478 515 408 q 483 585 515 549 q 396 622 451 622 q 202 497 299 622 q 106 244 106 371 q 138 133 106 176 q 231 89 169 89 q 362 156 293 89 z "},"1":{"ha":303,"x_min":-10,"x_max":324,"o":"m 321 657 q 264 536 317 633 q 88 25 97 236 l -1 11 q -10 85 -10 33 q 151 536 -10 208 q 65 515 99 515 q 3 526 32 515 l 33 597 q 67 593 50 593 q 157 621 111 593 q 228 683 203 649 q 271 718 253 718 q 306 706 289 718 q 324 678 324 693 q 321 657 324 663 z "},"2":{"ha":574,"x_min":-24,"x_max":596,"o":"m 142 511 q 296 631 200 579 q 456 683 392 683 q 558 649 521 683 q 596 550 596 614 q 544 434 596 486 q 339 303 493 382 q 53 111 185 225 q 407 140 243 140 q 467 138 444 140 l 467 50 q 426 45 436 44 q 392 44 415 46 q 300 40 368 43 q 160 29 232 36 q 63 19 89 22 q 32 15 38 15 q -7 44 10 15 q -24 99 -24 72 q 87 224 -12 142 q 342 386 186 306 q 426 447 388 410 q 465 518 465 485 q 397 582 465 582 q 165 465 307 582 l 142 511 z "},"3":{"ha":565,"x_min":-25,"x_max":593,"o":"m 593 561 q 520 439 593 493 q 374 363 447 385 q 460 300 431 329 q 490 233 490 271 q 388 73 490 142 q 167 4 285 4 q 53 22 110 4 q -25 65 -3 40 l 38 124 q 90 89 57 104 q 146 74 122 74 q 295 116 228 74 q 363 218 363 158 q 329 282 363 254 q 240 325 296 310 q 208 357 208 335 q 333 417 208 388 q 418 453 379 428 q 457 510 457 479 q 435 559 457 542 q 382 576 414 576 q 284 542 350 576 q 147 454 218 508 l 125 500 q 284 622 183 569 q 446 675 385 675 q 550 641 507 675 q 593 561 593 607 z "},"4":{"ha":536,"x_min":-7,"x_max":549,"o":"m 221 56 q 261 233 221 129 q 119 215 174 226 q 60 204 64 204 q 10 228 28 204 q -7 272 -7 251 q -6 297 -7 292 q 111 441 3 342 q 339 621 219 540 q 496 701 458 701 q 534 686 519 701 q 549 647 549 671 q 522 580 549 622 q 477 501 496 538 q 446 438 458 465 q 406 339 421 381 q 485 342 453 342 q 539 339 517 342 q 515 244 521 249 l 365 242 q 307 24 329 176 l 226 11 q 221 56 221 29 m 296 329 q 426 599 328 415 q 232 458 343 556 q 81 297 121 361 q 296 329 222 322 z "},"5":{"ha":533,"x_min":-19,"x_max":607,"o":"m 601 586 q 517 588 583 588 q 406 582 451 588 q 293 558 361 576 q 194 392 213 440 q 261 396 232 396 q 422 350 356 396 q 489 236 489 304 q 389 72 489 140 q 160 4 289 4 q -19 71 32 4 l 39 124 q 96 89 56 104 q 169 74 136 74 q 306 118 247 74 q 364 226 364 163 q 313 300 364 271 q 179 329 261 329 q 97 379 97 329 q 137 469 97 401 q 181 547 176 538 q 197 572 186 557 q 211 592 207 588 q 225 608 215 597 q 242 625 235 619 q 290 644 263 636 q 542 671 400 671 l 607 671 l 601 586 z "},"6":{"ha":557,"x_min":-3,"x_max":540,"o":"m 415 456 q 505 423 469 456 q 540 338 540 390 q 413 116 540 225 q 176 7 286 7 q 44 51 92 7 q -3 181 -3 96 q 81 446 -3 324 q 279 631 164 568 q 501 696 394 694 l 508 640 q 269 544 338 601 q 136 353 190 475 q 415 456 272 456 m 233 83 q 367 145 304 83 q 431 276 431 207 q 402 338 431 315 q 329 360 374 360 q 206 330 285 360 q 121 263 128 300 q 117 224 117 242 q 151 123 117 163 q 233 83 185 83 z "},"7":{"ha":432,"x_min":8,"x_max":542,"o":"m 517 675 q 542 628 542 656 q 496 565 542 600 q 405 491 450 531 q 306 393 360 451 q 213 278 253 335 q 110 13 118 142 l 8 3 q 97 278 11 110 q 215 449 139 363 q 389 596 292 535 q 36 539 250 594 l 19 628 q 203 665 51 642 q 428 689 356 689 q 517 675 501 689 z "},"8":{"ha":606,"x_min":-8,"x_max":626,"o":"m 261 407 q 199 511 199 461 q 271 631 199 581 q 434 682 343 682 q 576 647 525 682 q 626 554 626 611 q 464 408 626 458 q 543 303 543 376 q 421 101 543 189 q 179 13 299 13 q 42 57 93 13 q -8 176 -8 101 q 66 315 -8 251 q 261 407 140 379 m 393 447 q 471 492 442 461 q 500 564 500 524 q 426 619 500 619 q 353 597 382 619 q 324 538 324 574 q 393 447 324 479 m 319 369 q 173 301 232 350 q 114 202 114 253 q 151 118 114 151 q 249 85 189 85 q 367 141 310 85 q 424 260 424 197 q 398 328 424 297 q 319 369 372 360 z "},"9":{"ha":507,"x_min":7,"x_max":575,"o":"m 157 256 q 67 288 103 256 q 32 374 32 321 q 93 524 32 449 q 238 646 154 600 q 392 692 322 692 q 575 531 575 692 q 522 324 575 424 q 388 156 469 224 q 210 47 307 88 q 26 7 114 7 l 14 7 l 7 63 q 288 169 207 108 q 367 246 325 197 q 436 358 408 294 q 157 256 300 256 m 364 625 q 216 564 290 625 q 142 435 142 503 q 170 374 142 396 q 243 351 199 351 q 391 403 319 351 q 463 528 463 454 q 434 598 463 571 q 364 625 406 625 z "},"\u0000":{"ha":14,"x_min":0,"x_max":0,"o":""},"\r":{"ha":667,"x_min":0,"x_max":0,"o":""}," ":{"ha":667,"x_min":0,"x_max":0,"o":""},"!":{"ha":357,"x_min":-15,"x_max":392,"o":"m 326 892 l 392 851 q 79 189 193 513 l 1 189 q 326 892 88 532 m 45 1 q 58 1 45 1 q 89 19 71 1 q 107 63 107 38 q 89 106 107 89 q 45 124 71 124 q 2 106 19 124 q -15 63 -15 89 q 2 19 -15 38 q 45 1 19 1 z "},"\"":{"ha":28,"x_min":-28,"x_max":261,"o":"m 131 850 l 17 678 l -28 678 l 53 888 l 131 850 m 261 847 l 150 678 l 103 678 l 183 882 l 261 847 z "},"#":{"ha":799,"x_min":44,"x_max":793,"o":"m 58 335 l 244 333 q 292 499 254 367 l 90 499 l 104 565 l 314 565 q 415 868 357 701 l 478 842 q 383 567 447 760 q 558 574 501 569 q 660 875 617 751 l 722 850 q 631 578 686 756 q 685 580 657 578 q 746 584 714 582 q 793 588 778 586 l 779 524 q 608 510 678 513 l 557 339 q 744 349 683 344 l 732 282 q 539 272 700 279 q 476 14 496 121 l 408 -3 q 469 267 426 108 l 294 267 q 231 8 249 96 l 163 -10 q 226 267 188 121 q 44 269 147 267 l 58 335 m 314 333 l 489 336 q 539 506 536 496 q 363 500 419 500 l 314 333 z "},"$":{"ha":674,"x_min":-10,"x_max":682,"o":"m 157 -69 l 174 6 q 37 38 83 6 q -10 121 -10 71 q 72 257 -10 193 q 276 325 153 321 q 303 400 299 381 q 205 449 239 419 q 171 532 171 479 q 279 726 171 629 q 496 847 388 824 q 538 925 521 897 l 578 911 l 554 858 q 647 835 611 858 q 682 765 682 813 q 590 619 682 688 q 410 551 497 551 l 396 514 q 383 481 388 490 q 510 424 469 465 q 551 324 551 382 q 445 111 551 218 q 226 4 339 4 l 204 -76 l 157 -69 m 189 56 l 263 283 q 149 235 192 274 q 106 152 106 197 q 128 81 106 107 q 189 56 150 56 m 314 290 l 239 56 q 387 129 317 56 q 457 275 457 203 q 349 389 457 361 q 328 329 336 358 q 365 328 356 329 l 358 290 l 314 290 m 346 599 l 381 594 l 464 785 q 326 721 381 775 q 272 596 272 667 q 339 497 272 525 l 360 551 q 331 561 343 553 l 346 599 m 511 783 l 431 596 q 535 637 493 600 q 578 719 578 674 q 511 783 578 781 z "},"%":{"ha":753,"x_min":-7,"x_max":786,"o":"m 283 104 q 334 210 283 165 q 442 256 385 256 q 528 231 500 256 q 557 159 557 207 q 505 65 557 111 q 385 18 453 18 q 283 104 283 18 m 353 115 q 408 57 353 57 q 462 88 436 57 q 488 154 488 119 q 438 222 488 222 q 378 189 404 222 q 353 115 353 156 m 433 624 q 379 517 433 564 q 269 469 325 469 q 163 553 163 469 q 214 658 163 613 q 322 704 265 704 q 406 682 379 704 q 433 624 433 660 m 369 617 q 313 675 369 675 q 258 641 283 675 q 232 557 232 607 q 282 507 232 507 q 343 541 317 507 q 369 617 369 575 m 749 704 l 786 675 l 761 656 q 44 4 289 288 l -7 49 q 165 235 24 94 q 483 523 306 375 q 749 704 660 671 z "},"&":{"ha":708,"x_min":-1,"x_max":708,"o":"m 671 153 l 708 129 q 648 34 690 69 q 556 -1 606 -1 q 442 63 506 -1 q 249 -1 368 -1 q 64 56 129 -1 q -1 195 -1 113 q 67 341 -1 278 q 258 435 135 404 q 232 557 232 510 q 291 680 232 631 q 429 729 350 729 q 555 694 508 729 q 601 601 601 658 q 367 421 601 481 q 483 182 435 254 q 557 353 515 228 l 601 353 q 570 249 596 313 q 515 146 544 186 q 597 86 563 86 q 671 153 644 86 m 514 601 q 490 663 514 640 q 426 686 467 686 q 356 653 385 686 q 326 581 326 621 q 350 464 326 540 q 514 601 514 507 m 122 229 q 122 200 122 229 q 165 121 122 171 q 293 71 207 71 q 415 103 379 71 q 271 393 342 215 q 165 333 207 379 q 122 229 122 288 z "},"'":{"ha":74,"x_min":-26,"x_max":132,"o":"m 132 847 l 21 678 l -26 678 l 54 882 l 132 847 z "},"(":{"ha":344,"x_min":31,"x_max":421,"o":"m 365 939 l 421 906 q 172 401 249 669 q 96 -189 96 132 l 35 -189 q 31 -69 31 -131 q 118 490 31 221 q 365 939 206 758 z "},")":{"ha":296,"x_min":-67,"x_max":324,"o":"m -11 -189 l -67 -156 q 182 349 106 81 q 258 939 258 618 l 319 939 q 324 819 324 881 q 236 260 324 529 q -11 -189 149 -8 z "},"*":{"ha":289,"x_min":1,"x_max":289,"o":"m 179 782 l 249 838 l 276 796 l 206 749 l 289 763 l 289 711 l 200 706 l 268 647 l 232 613 l 164 675 l 164 588 l 114 588 l 114 675 l 56 622 l 19 660 l 75 701 l 3 689 l 1 738 q 48 742 19 740 q 86 746 76 744 l 25 793 l 58 846 q 92 816 69 838 q 126 785 114 794 q 136 875 133 860 l 196 861 l 179 782 z "},"+":{"ha":363,"x_min":-4,"x_max":361,"o":"m 201 185 l 136 185 q 142 317 139 281 l 13 301 l -4 376 q 147 394 50 388 q 167 550 158 506 l 242 533 l 226 407 l 361 407 l 361 342 l 217 325 l 201 185 z "},",":{"ha":186,"x_min":-17,"x_max":119,"o":"m -3 46 q 16 88 -3 71 q 62 106 35 106 q 104 90 89 106 q 119 47 119 74 q 14 -90 119 -14 l -17 -46 q 40 1 39 -1 q -3 46 -3 15 z "},"-":{"ha":282,"x_min":-18,"x_max":286,"o":"m 286 407 l 286 342 l -1 301 l -18 376 q 286 407 101 400 z "},".":{"ha":182,"x_min":-1,"x_max":113,"o":"m 15 8 q 7 17 15 8 q -1 49 -1 25 q 15 89 -1 72 q 56 106 32 106 q 96 89 79 106 q 113 49 113 72 q 96 8 113 25 q 56 -8 79 -8 q 15 8 32 -8 z "},"/":{"ha":567,"x_min":-31,"x_max":749,"o":"m 694 1001 l 749 972 q 362 413 525 675 q 31 -175 199 151 l -31 -157 q 302 433 136 168 q 694 1001 468 699 z "},":":{"ha":161,"x_min":-25,"x_max":132,"o":"m 38 254 q 30 262 38 254 q 22 293 22 269 q 38 333 22 317 q 77 349 54 349 q 116 333 100 349 q 132 294 132 317 q 116 255 132 271 q 76 239 100 239 q 38 254 53 239 m -10 15 q -17 23 -10 15 q -25 54 -25 31 q -9 94 -25 78 q 30 110 7 110 q 69 94 53 110 q 85 55 85 78 q 69 16 85 32 q 29 0 53 0 q -10 15 6 0 z "},";":{"ha":161,"x_min":-28,"x_max":132,"o":"m 38 254 q 30 262 38 254 q 22 293 22 269 q 38 333 22 317 q 77 349 54 349 q 116 333 100 349 q 132 294 132 317 q 116 255 132 271 q 76 239 100 239 q 38 254 53 239 m 5 90 q 12 98 5 90 q 46 106 19 106 q 90 90 72 106 q 108 47 108 74 q 3 -90 108 -14 l -28 -46 q 29 1 28 -1 q -10 44 -10 14 q 5 90 -10 74 z "},"<":{"ha":344,"x_min":11,"x_max":347,"o":"m 322 74 q 81 308 293 83 l 11 383 q 315 638 282 621 l 347 600 q 121 388 147 421 q 198 292 143 351 q 297 190 253 232 l 340 149 l 322 74 z "},"=":{"ha":465,"x_min":111,"x_max":453,"o":"m 436 465 l 442 400 l 115 368 l 111 443 q 301 467 190 467 q 436 465 413 467 m 124 231 l 183 229 q 453 265 296 229 l 447 329 l 119 307 l 124 231 z "},">":{"ha":310,"x_min":7,"x_max":306,"o":"m 194 388 l 60 593 l 104 668 q 306 392 213 532 l 51 68 l 7 100 q 150 325 18 140 l 194 388 z "},"?":{"ha":585,"x_min":83,"x_max":642,"o":"m 178 719 q 211 759 178 719 q 331 840 244 799 q 487 881 417 881 q 599 844 557 881 q 642 747 642 807 q 517 543 642 649 l 426 467 q 240 253 289 350 q 219 217 231 233 l 167 240 q 393 542 194 339 q 479 638 460 610 q 499 697 499 667 q 432 763 499 763 q 272 707 347 763 q 165 543 196 651 l 113 550 q 178 719 113 640 m 83 63 q 102 106 83 89 q 148 122 121 122 q 190 109 175 122 q 206 72 206 96 q 187 29 206 47 q 140 11 168 11 q 83 63 83 11 z "},"@":{"ha":683,"x_min":0,"x_max":683,"o":"m 501 726 q 634 679 585 726 q 683 542 683 632 q 608 322 683 451 q 412 97 532 193 q 190 1 292 1 q 44 55 88 1 q 0 214 0 108 q 75 442 0 319 q 268 646 150 565 q 501 726 386 726 m 507 288 q 578 522 578 415 q 542 636 578 594 q 439 678 506 678 q 295 612 372 678 q 167 445 218 546 q 115 259 115 344 q 151 124 115 174 q 254 75 188 75 q 453 204 350 75 q 435 201 439 201 q 385 260 385 201 q 397 324 385 283 l 367 289 q 221 201 289 201 q 157 278 157 201 q 253 464 157 378 q 461 553 350 550 l 463 522 l 428 514 q 292 438 350 494 q 233 326 233 382 q 272 271 233 271 q 367 329 311 271 q 460 468 422 388 l 496 444 q 481 408 494 440 q 443 296 443 319 q 472 265 443 265 q 507 288 481 265 z "},"A":{"ha":1097,"x_min":-132,"x_max":1056,"o":"m 1036 414 l 1029 331 q 960 333 997 333 q 899 332 924 333 q 874 0 879 179 l 776 0 q 768 96 768 36 q 772 199 768 156 q 781 286 775 243 q 786 336 786 329 q 694 338 767 338 q 594 335 622 338 q 297 6 433 118 q 25 -106 161 -106 q -87 -65 -42 -106 q -132 42 -132 -25 q 60 272 -132 168 q 558 413 253 376 q 693 584 594 468 q 888 786 792 700 q 953 922 929 883 q 1001 960 978 960 q 1040 942 1025 960 q 1056 895 1056 924 q 1024 812 1056 867 q 960 642 993 757 q 914 426 926 528 q 1036 414 986 426 m 328 124 q 501 332 443 233 q 141 244 268 318 q 14 88 14 171 q 38 31 14 51 q 103 10 63 10 q 328 124 211 10 m 803 426 q 828 545 813 474 q 847 629 844 617 q 754 535 781 565 q 661 421 728 506 q 719 423 685 422 q 775 425 753 424 q 803 426 797 426 z "},"B":{"ha":926,"x_min":42,"x_max":885,"o":"m 885 251 l 883 197 l 807 194 q 753 38 790 97 q 631 -92 717 -22 q 424 -208 544 -161 q 224 -254 304 -254 q 101 -222 143 -254 q 60 -136 60 -189 q 155 26 60 -56 q 385 162 250 107 q 654 236 521 217 q 591 293 633 271 q 447 343 549 315 q 392 393 392 358 q 409 431 392 414 q 467 473 426 449 q 545 523 508 497 q 627 585 582 549 q 703 660 672 621 q 733 728 733 699 q 685 776 733 776 q 583 741 647 776 q 456 650 518 706 l 396 461 q 258 153 333 263 q 114 43 182 43 q 42 132 42 43 q 128 359 42 221 q 367 643 214 497 q 374 669 367 644 q 389 718 382 693 q 425 814 413 793 l 493 803 q 482 740 493 776 q 647 842 560 799 q 774 886 733 886 q 840 860 815 886 q 865 785 865 835 q 819 672 865 736 q 703 557 772 608 q 488 421 576 463 q 699 362 632 399 q 796 251 765 325 l 885 251 m 210 219 q 339 542 307 376 q 203 354 264 460 q 142 201 142 249 q 162 172 142 172 q 210 219 182 172 m 532 -78 q 640 25 600 -32 q 681 132 681 82 q 674 179 681 156 q 331 70 465 154 q 196 -90 196 -14 q 222 -144 196 -124 q 294 -164 249 -164 q 532 -78 407 -164 z "},"C":{"ha":844,"x_min":42,"x_max":803,"o":"m 694 878 q 774 849 746 878 q 803 772 803 821 q 674 572 803 664 q 379 479 544 479 q 226 500 307 479 q 174 313 174 414 q 229 151 174 213 q 392 89 285 89 q 643 313 583 89 l 708 313 q 587 85 693 183 q 307 -14 481 -14 q 136 53 215 -14 q 57 249 57 121 q 154 528 57 376 q 42 631 83 569 l 79 672 q 106 643 89 663 q 192 578 138 606 q 430 785 274 692 q 694 878 586 878 m 375 535 q 588 592 496 535 q 679 725 679 649 q 660 767 679 751 q 613 783 642 783 q 424 716 528 783 q 258 554 319 649 q 375 535 308 535 z "},"D":{"ha":950,"x_min":-14,"x_max":908,"o":"m 324 886 q 737 743 565 886 q 908 408 908 600 q 792 106 908 217 q 496 -3 675 -6 q 343 -1 400 -1 l 278 -1 q 238 29 238 -1 q 261 86 238 40 q 379 404 339 242 q 111 483 236 404 q -14 663 -14 563 q 81 825 -14 764 q 324 886 175 886 m 318 829 q 174 790 226 829 q 121 676 121 751 q 194 541 121 600 q 389 467 267 482 q 439 701 432 649 l 522 693 q 486 465 522 607 q 615 479 497 465 l 622 433 q 468 404 594 424 q 356 101 414 229 q 587 90 494 90 q 733 159 679 90 q 788 344 788 228 q 650 688 788 546 q 318 829 513 829 z "},"E":{"ha":929,"x_min":42,"x_max":888,"o":"m 888 797 q 822 674 888 728 q 670 594 756 619 q 506 569 585 569 q 475 571 485 569 l 475 618 q 556 631 478 618 q 687 678 633 644 q 740 753 740 711 q 665 803 740 803 q 474 733 564 803 q 383 588 383 664 q 478 489 383 511 q 506 478 499 483 q 513 458 513 472 q 499 435 513 444 q 439 410 486 426 q 183 138 183 322 q 197 74 183 100 q 417 250 282 182 q 676 318 551 318 q 781 290 742 318 q 819 211 819 261 q 747 56 819 133 q 560 -72 675 -22 q 333 -121 446 -121 q 154 -79 219 -121 q 142 -100 153 -81 q 94 -178 114 -156 l 49 -158 q 106 -40 58 -119 q 42 122 42 32 q 115 292 42 211 q 318 426 188 374 q 253 539 253 481 q 336 701 253 618 q 540 835 419 783 q 765 886 660 886 q 854 862 821 886 q 888 797 888 838 m 596 235 q 405 172 514 235 q 228 24 296 110 q 385 -39 283 -39 q 585 27 488 -39 q 683 169 683 93 q 660 217 683 200 q 596 235 636 235 z "},"F":{"ha":1060,"x_min":42,"x_max":1157,"o":"m 686 863 l 1015 853 q 1078 865 1040 853 q 1129 876 1117 876 q 1149 869 1142 876 q 1157 850 1157 861 q 1131 801 1157 821 q 1061 772 1104 781 q 918 754 981 754 q 753 418 833 696 q 924 414 890 418 l 921 349 q 858 347 900 347 l 732 351 q 522 -26 654 114 q 243 -167 390 -167 q 97 -112 153 -167 q 42 31 42 -58 q 213 291 42 174 q 633 415 383 408 q 832 754 718 682 l 608 763 q 399 726 468 763 q 331 631 331 690 q 357 577 331 599 q 410 556 383 556 q 449 558 436 556 q 483 567 463 560 q 511 578 503 575 q 582 608 540 588 l 611 572 q 381 467 506 467 q 289 501 325 467 q 253 589 253 536 q 371 783 253 704 q 686 863 489 863 m 492 86 q 611 347 567 203 q 308 238 439 333 q 176 32 176 142 q 206 -39 176 -11 q 285 -67 236 -67 q 390 -26 333 -67 q 492 86 447 15 z "},"G":{"ha":943,"x_min":-125,"x_max":901,"o":"m 729 -11 l 708 -58 q 551 -33 572 -35 q 357 -325 483 -218 q 74 -432 231 -432 q -68 -386 -11 -432 q -125 -272 -125 -340 q 40 -62 -125 -153 q 439 28 204 28 q 488 26 471 28 q 528 139 513 79 q 338 79 439 79 q 170 151 238 79 q 103 340 103 222 q 181 587 103 457 q 388 801 260 717 q 650 886 517 886 q 797 859 728 886 q 901 794 867 832 l 826 704 q 746 764 769 749 q 615 806 685 806 q 350 667 472 806 q 228 367 228 529 q 278 226 228 278 q 409 175 328 175 q 556 214 490 175 q 706 426 636 426 q 746 388 746 426 q 716 298 746 349 q 639 207 686 247 q 572 24 582 54 q 729 -11 669 13 m 142 -337 q 328 -250 236 -337 q 468 -31 421 -162 q 151 -94 281 -31 q 21 -247 21 -157 q 53 -313 21 -289 q 142 -337 86 -337 z "},"H":{"ha":1146,"x_min":-125,"x_max":1104,"o":"m 1042 885 l 1104 854 q 911 386 1011 672 q 999 381 975 386 l 993 301 q 879 292 964 292 q 844 161 850 211 q 835 64 839 111 q 831 0 832 17 l 753 0 q 746 49 746 24 q 792 292 746 135 q 539 272 708 292 q 504 190 532 250 q 449 85 476 129 q 376 -12 422 40 q 281 -101 331 -65 q 3 -204 138 -204 q -89 -169 -53 -204 q -125 -82 -125 -135 q 28 160 -125 51 q 454 335 182 269 q 743 763 557 635 q 411 694 542 760 q 281 528 281 629 q 290 473 281 496 q 336 401 300 450 l 289 357 q 196 451 228 396 q 164 558 164 507 q 256 717 164 644 q 483 830 347 790 q 760 869 619 869 q 858 859 831 869 q 885 820 885 849 q 844 767 885 792 q 565 356 671 658 q 819 386 647 369 q 927 674 886 581 q 1042 885 968 768 m 115 -108 q 140 -108 115 -108 q 234 -63 165 -108 q 349 55 303 -18 q 429 256 396 128 q 131 148 244 225 q 18 -26 18 71 q 41 -87 18 -65 q 115 -108 64 -108 z "},"I":{"ha":814,"x_min":42,"x_max":842,"o":"m 818 856 q 842 831 842 849 q 825 806 842 825 q 735 683 761 724 q 674 549 710 643 q 610 367 639 454 q 582 279 582 281 q 425 78 525 151 q 215 4 325 4 q 90 42 138 4 q 42 144 42 81 q 171 328 42 244 q 429 411 300 411 l 435 365 q 258 289 332 344 q 183 168 183 233 q 208 100 183 126 q 269 74 232 74 q 392 140 340 74 q 497 374 443 206 q 594 619 550 542 q 704 750 638 697 q 661 751 685 751 q 428 714 542 751 q 315 614 315 676 q 350 540 315 575 l 319 503 q 226 654 226 568 q 276 753 226 711 q 408 817 325 794 q 767 860 568 860 q 818 856 810 860 z "},"J":{"ha":975,"x_min":-125,"x_max":989,"o":"m 797 864 q 935 853 882 864 q 989 811 989 843 q 944 757 989 783 q 749 541 835 690 q 574 100 664 392 q 697 93 656 100 l 689 38 q 619 44 650 44 q 551 38 589 44 q 460 -154 508 -81 q 338 -292 413 -228 q 171 -397 263 -356 q 15 -439 79 -439 q -87 -403 -50 -439 q -125 -310 -125 -368 q -42 -133 -125 -221 q 178 14 42 -46 q 467 89 315 74 q 510 221 469 94 q 653 552 574 429 q 846 756 733 675 q 783 758 822 758 q 389 671 543 758 q 235 474 235 583 q 277 342 235 403 q 397 218 319 282 l 364 172 q 138 481 138 294 q 230 678 138 589 q 473 815 322 767 q 797 864 624 864 m 96 -344 q 230 -300 160 -344 q 362 -169 300 -256 q 449 28 424 -83 q 142 -76 268 10 q 17 -267 17 -161 q 38 -324 17 -303 q 96 -344 58 -344 z "},"K":{"ha":1107,"x_min":-14,"x_max":1232,"o":"m 1144 833 l 1232 790 q 1022 533 1143 646 q 699 310 900 421 q 794 -13 738 108 q 943 -149 851 -135 l 943 -212 q 914 -214 932 -214 q 734 -85 821 -214 q 578 297 647 44 q 396 1 518 110 q 142 -108 274 -108 q 30 -72 74 -108 q -14 30 -14 -35 q 44 164 -14 94 q 204 281 103 233 l 236 231 q 111 64 111 142 q 136 3 111 26 q 201 -19 161 -19 q 365 60 296 -19 q 488 340 433 140 q 626 669 556 592 q 719 749 658 706 q 524 716 624 746 q 349 627 424 686 q 274 496 274 568 q 358 347 274 403 l 331 304 q 208 401 253 342 q 164 525 164 461 q 260 690 164 613 q 495 811 356 768 q 769 854 635 854 q 853 818 853 854 q 804 758 853 794 q 667 585 715 692 q 589 335 619 478 q 892 528 747 393 q 1144 833 1038 664 z "},"L":{"ha":807,"x_min":14,"x_max":793,"o":"m 243 129 l 532 121 q 650 161 593 121 l 688 111 q 643 63 660 79 q 594 32 626 47 q 521 17 561 17 l 261 28 q 92 24 88 28 q 40 69 40 25 q 78 162 44 97 q 168 396 111 226 q 14 447 82 396 l 43 499 q 189 460 103 460 q 393 756 269 657 q 651 854 517 854 q 754 822 715 854 q 793 735 793 789 q 640 516 793 618 q 290 401 486 414 q 147 125 226 199 q 243 129 182 129 m 575 779 q 415 692 489 779 q 310 465 342 604 q 553 549 449 475 q 657 703 657 622 q 633 757 657 735 q 575 779 610 779 z "},"M":{"ha":1121,"x_min":-14,"x_max":1135,"o":"m 1135 -143 l 1118 -194 q 1064 -197 1082 -197 q 928 -127 981 -197 q 876 56 876 -57 q 908 313 876 124 q 981 660 939 503 q 989 706 989 694 q 979 717 989 717 q 917 613 969 717 q 793 359 865 510 q 710 187 721 208 q 694 152 700 165 q 669 105 688 139 q 633 44 650 71 q 561 -25 588 -25 q 522 -15 543 -25 q 493 6 500 -6 q 478 153 478 29 q 519 646 478 411 q 533 728 533 724 q 522 742 533 742 q 451 603 500 742 l 411 488 q 231 96 322 236 q 22 -101 140 -44 l -14 -25 q 194 179 121 75 q 353 515 267 283 l 400 642 q 485 830 449 774 q 565 886 521 886 q 639 797 639 886 q 613 516 639 790 q 586 154 586 242 q 594 128 586 129 q 610 142 601 128 q 825 550 722 329 q 868 646 838 578 q 928 767 899 714 q 972 831 957 819 q 1021 843 988 843 q 1078 819 1054 843 q 1103 761 1103 794 q 1093 685 1103 728 q 985 52 985 156 q 1018 -90 985 -51 q 1135 -143 1051 -128 z "},"N":{"ha":1006,"x_min":-14,"x_max":1019,"o":"m 939 849 l 1019 839 q 952 585 994 731 q 875 351 910 440 q 799 173 840 261 q 713 34 758 85 q 624 -17 667 -17 q 560 15 581 -17 q 540 128 540 47 q 564 470 540 210 q 588 753 588 731 q 576 776 589 776 q 540 734 561 776 q 508 669 519 692 q 471 578 479 604 q 332 289 393 403 q 192 78 271 175 q 113 10 164 44 q 17 -43 61 -25 l -14 39 q 194 208 101 88 q 387 543 288 328 q 529 833 486 758 q 628 913 578 913 q 678 890 660 913 q 696 833 696 868 q 672 540 696 797 q 647 211 647 283 q 653 117 647 139 q 675 96 660 96 q 717 138 694 96 q 939 849 793 286 z "},"O":{"ha":964,"x_min":42,"x_max":978,"o":"m 978 683 l 978 617 q 747 518 915 581 q 510 169 672 331 q 213 8 347 8 q 89 63 136 8 q 42 212 42 117 q 106 441 42 307 q 274 692 169 575 q 486 865 378 810 q 625 894 531 894 q 741 840 696 894 q 786 710 786 785 q 775 599 786 636 q 978 683 881 633 m 426 732 q 381 641 381 685 q 425 572 381 597 q 537 546 469 546 q 654 558 604 546 q 663 639 663 600 q 544 776 663 776 q 426 732 490 776 m 444 207 q 635 488 581 342 q 546 481 600 481 q 282 585 313 481 q 165 265 165 422 q 195 165 165 203 q 283 128 225 128 q 444 207 365 128 z "},"P":{"ha":914,"x_min":-28,"x_max":872,"o":"m 501 764 q 657 859 615 842 q 755 876 699 876 q 842 838 811 876 q 872 726 872 799 q 789 449 872 597 q 581 199 706 300 q 344 99 456 99 q 281 101 317 99 q 157 -117 213 -43 q 46 -190 101 -190 q -8 -165 11 -190 q -28 -96 -28 -140 q 104 287 -28 47 q 394 671 236 526 q 417 805 417 763 q 414 869 417 847 l 514 886 q 501 764 514 876 m 183 201 l 222 182 q 369 565 310 353 q 160 240 242 406 q 78 -14 78 75 q 94 -40 78 -40 q 139 12 107 -40 q 193 118 171 64 q 158 143 175 126 l 183 201 m 310 163 l 336 161 q 589 303 471 161 q 702 490 656 385 q 749 669 749 596 q 727 733 749 710 q 668 757 706 757 q 488 682 600 757 q 310 163 463 494 z "},"Q":{"ha":924,"x_min":42,"x_max":951,"o":"m 868 154 l 951 107 q 738 -37 853 -37 q 603 17 658 -37 q 494 147 557 61 q 213 1 339 1 q 89 56 136 1 q 42 200 42 110 q 95 411 42 290 q 231 637 149 532 q 420 815 313 742 q 625 888 528 888 q 741 833 696 888 q 786 681 786 778 q 722 454 786 585 q 554 208 657 324 q 607 137 586 164 q 666 79 628 110 q 741 49 704 49 q 819 83 778 49 q 868 154 861 117 m 436 757 q 262 538 338 686 q 186 274 186 390 q 222 153 186 193 q 296 294 249 244 q 400 343 343 343 q 433 339 421 343 q 514 263 464 331 q 615 444 575 344 q 654 617 654 543 q 623 740 654 692 q 536 788 592 788 q 436 757 481 788 m 306 113 l 317 114 q 456 200 388 121 q 381 247 417 247 q 349 243 361 247 q 315 208 338 239 q 272 118 293 178 q 306 113 292 113 z "},"R":{"ha":882,"x_min":42,"x_max":910,"o":"m 694 -90 l 701 -156 q 633 -162 663 -162 q 508 -76 568 -162 q 415 128 449 11 q 372 353 381 244 q 241 91 303 172 q 114 10 179 10 q 61 37 81 10 q 42 108 42 64 q 137 369 42 211 q 360 629 232 528 q 384 731 363 638 q 410 833 406 824 l 490 840 q 478 742 490 817 q 786 885 665 885 q 876 853 843 885 q 910 769 910 822 q 776 503 910 638 q 492 346 643 369 q 562 31 503 144 q 694 -90 621 -83 m 290 374 q 342 533 328 474 q 201 344 265 463 q 136 169 136 226 q 160 140 136 140 q 290 374 201 140 m 385 393 q 649 496 532 393 q 765 700 765 599 q 747 758 765 738 q 688 779 728 779 q 571 734 647 779 q 461 660 494 689 q 385 393 418 489 z "},"S":{"ha":871,"x_min":-28,"x_max":829,"o":"m 731 251 l 829 253 l 829 196 q 790 199 813 199 q 740 196 768 199 q 638 -21 740 89 q 390 -199 535 -131 q 119 -268 244 -268 q 13 -235 54 -268 q -28 -147 -28 -201 q 79 21 -28 -67 q 329 165 186 108 q 588 232 472 222 q 544 268 574 253 q 425 316 515 283 q 297 388 335 349 q 260 500 260 428 q 338 665 260 572 q 522 822 415 758 q 708 885 628 885 q 768 859 744 885 q 792 796 792 833 q 718 642 792 735 q 554 501 644 550 l 521 549 q 616 635 575 576 q 657 738 657 694 q 611 781 657 781 q 462 699 546 781 q 378 547 378 618 q 403 471 378 499 q 529 402 428 443 q 674 330 631 361 q 731 251 717 299 m 111 -111 q 219 -178 111 -178 q 374 -134 279 -178 q 542 -12 469 -90 q 615 149 615 67 q 611 178 615 158 q 266 71 421 160 q 111 -111 111 -18 z "},"T":{"ha":792,"x_min":42,"x_max":917,"o":"m 624 771 l 425 775 q 121 642 121 775 q 147 585 121 607 q 224 564 172 564 q 358 611 275 564 l 379 575 q 282 503 336 529 q 174 476 228 476 q 81 513 119 476 q 42 603 42 549 q 160 794 42 713 q 482 876 279 876 q 601 871 499 876 q 764 865 704 865 q 874 883 824 865 q 897 889 893 889 q 917 864 917 889 q 853 799 917 828 q 708 769 790 769 q 548 459 617 681 q 384 122 479 238 q 158 6 289 6 q 61 39 107 6 l 93 92 q 131 76 110 83 l 150 74 q 171 72 157 72 q 295 139 240 72 q 410 391 350 206 q 505 637 471 576 q 624 771 539 697 z "},"U":{"ha":974,"x_min":42,"x_max":932,"o":"m 782 108 l 826 72 q 769 -15 810 25 q 682 -54 729 -54 q 578 8 618 -54 q 525 189 538 71 q 365 58 461 119 q 197 -4 269 -4 q 83 44 125 -4 q 42 169 42 93 q 211 582 42 343 q 554 922 381 821 l 592 869 q 301 558 433 751 q 169 219 169 365 q 195 135 169 165 q 267 106 221 106 q 397 160 314 106 q 522 261 481 214 q 587 535 529 396 q 724 762 644 674 q 874 850 804 850 q 932 779 932 850 q 828 542 932 708 q 621 279 724 376 q 618 243 618 257 q 642 116 618 182 q 707 50 667 50 q 782 108 742 50 m 803 719 q 701 612 757 719 q 631 383 646 504 q 769 573 717 486 q 821 699 821 660 q 803 719 821 719 z "},"V":{"ha":789,"x_min":42,"x_max":803,"o":"m 763 850 l 803 790 q 494 490 660 696 q 236 64 329 283 q 202 3 217 18 q 160 -12 188 -12 q 112 6 133 -12 q 90 63 90 25 q 101 209 90 101 q 111 361 111 317 q 42 865 111 674 l 143 893 q 222 397 222 756 q 218 211 222 281 q 763 850 440 667 z "},"W":{"ha":1096,"x_min":42,"x_max":1110,"o":"m 999 861 l 1101 875 q 1110 793 1110 838 q 1058 540 1110 682 q 932 283 1006 399 q 775 87 858 167 q 635 7 692 7 q 513 199 513 7 q 578 579 513 290 q 281 180 417 351 q 116 8 144 8 q 65 31 88 8 q 42 76 42 53 q 50 124 42 100 q 128 460 110 303 q 147 741 147 617 q 146 894 147 865 l 254 894 q 263 756 263 850 q 240 495 263 663 q 183 185 217 328 q 614 771 288 318 q 674 842 651 825 q 730 860 697 860 q 763 828 763 860 q 728 708 763 815 q 661 443 693 601 q 629 203 629 285 q 671 121 629 121 q 743 163 700 121 q 925 445 850 265 q 1000 815 1000 625 q 999 861 1000 846 z "},"X":{"ha":894,"x_min":-14,"x_max":908,"o":"m 453 479 q 850 889 522 547 l 908 828 q 672 576 843 744 q 488 394 500 407 q 580 224 533 296 q 661 100 626 151 q 703 38 696 49 l 628 -33 q 407 317 525 72 q 294 208 360 272 q 197 114 229 144 q 32 -19 121 40 l -14 43 q 129 166 -10 47 q 371 399 268 285 q 243 829 275 656 l 349 849 q 453 479 415 567 z "},"Y":{"ha":917,"x_min":-125,"x_max":875,"o":"m 444 13 l 486 11 q 524 122 494 40 q 567 231 554 204 q 343 67 422 94 q 256 51 300 51 q 142 100 182 51 q 101 236 101 149 q 217 570 101 361 q 479 897 332 779 l 535 846 q 226 292 226 514 q 328 163 226 163 q 525 274 429 163 q 724 618 621 385 q 788 744 765 714 q 831 775 810 775 q 863 763 851 775 q 875 729 875 750 q 747 465 875 640 q 568 10 658 282 q 707 -22 633 6 l 693 -69 l 546 -49 q 348 -348 464 -249 q 71 -447 232 -447 q -69 -402 -12 -447 q -125 -289 -125 -357 q 43 -76 -125 -164 q 444 13 211 13 m 133 -351 q 333 -260 246 -351 q 461 -47 419 -169 q 149 -110 275 -47 q 22 -264 22 -174 q 53 -327 22 -303 q 133 -351 85 -351 z "},"Z":{"ha":914,"x_min":42,"x_max":872,"o":"m 310 665 l 317 603 q 309 583 317 592 q 292 574 301 574 q 238 619 265 574 q 210 706 210 665 q 313 824 210 793 q 601 854 415 854 q 830 842 788 854 q 872 776 872 831 q 849 724 872 753 q 759 632 826 694 q 530 435 692 569 q 283 213 368 300 q 175 90 199 125 q 250 88 233 88 q 521 108 438 88 q 604 181 604 129 l 597 243 q 605 263 597 254 q 622 272 613 272 q 676 226 649 272 q 704 140 704 181 q 601 22 704 53 q 313 -8 499 -8 q 84 3 126 -8 q 42 69 42 15 q 149 210 42 107 q 422 452 257 313 q 647 650 588 592 q 739 756 707 708 q 664 758 681 758 q 393 738 476 758 q 310 665 310 717 z "},"[":{"ha":493,"x_min":-6,"x_max":557,"o":"m 540 878 l 389 885 q 219 370 310 672 q 89 -121 128 68 q 268 -101 119 -117 l 276 -182 l 63 -212 q 42 -217 53 -217 q -6 -185 -6 -217 q 132 363 38 47 q 311 918 226 679 q 386 969 329 969 q 466 961 407 969 q 557 950 525 953 l 540 878 z "},"\\":{"ha":365,"x_min":-57,"x_max":257,"o":"m 204 -131 q 64 558 165 206 q -57 958 26 690 l -3 971 q 162 406 106 638 q 257 -121 218 174 l 204 -131 z "},"]":{"ha":428,"x_min":-108,"x_max":456,"o":"m 357 910 l 201 903 l 183 974 q 408 994 392 994 q 456 957 456 994 q 454 943 456 949 q 322 395 404 706 q 151 -147 239 85 q 86 -179 132 -179 l -108 -161 l -108 -81 l 93 -96 q 238 396 160 93 q 357 910 317 699 z "},"^":{"ha":575,"x_min":-3,"x_max":561,"o":"m -3 274 q 233 514 7 303 l 307 585 q 561 281 544 314 l 524 249 q 311 475 344 449 q 215 398 275 453 q 114 300 156 343 l 72 256 l -3 274 z "},"_":{"ha":625,"x_min":-35,"x_max":669,"o":"m 640 -157 l 669 -224 l -14 -224 l -35 -157 l 640 -157 z "},"`":{"ha":272,"x_min":-11,"x_max":267,"o":"m 226 547 l -11 625 l 83 681 l 267 572 l 226 547 z "},"a":{"ha":651,"x_min":18,"x_max":642,"o":"m 610 140 l 642 117 q 570 38 622 75 q 475 0 518 0 q 393 86 393 0 q 414 182 393 126 l 363 129 q 233 26 288 53 q 125 0 178 0 q 45 30 72 0 q 18 113 18 60 q 93 305 18 210 q 285 460 168 400 q 518 521 401 519 l 521 475 l 463 463 q 240 351 336 435 q 143 185 143 268 q 210 103 143 103 q 364 190 272 103 q 517 396 456 278 l 575 361 q 489 140 489 188 q 502 108 489 121 q 528 94 515 94 q 546 96 542 94 q 554 99 550 97 q 565 106 558 101 q 576 114 571 110 q 592 126 581 118 q 610 140 603 135 z "},"b":{"ha":599,"x_min":6,"x_max":576,"o":"m 258 382 q 292 416 258 382 q 376 476 325 450 q 472 501 426 501 q 547 470 517 501 q 576 389 576 439 q 468 117 576 260 q 235 -25 360 -25 q 164 -11 197 -25 l 197 50 q 232 44 219 44 q 386 139 317 44 q 456 325 456 233 q 437 373 456 354 q 389 392 418 392 q 240 289 325 392 q 90 21 154 186 l 6 56 q 172 574 47 268 q 381 1006 297 879 l 451 981 q 256 557 360 810 q 135 214 153 304 q 258 382 192 314 z "},"c":{"ha":507,"x_min":15,"x_max":494,"o":"m 390 197 l 424 169 q 317 47 390 93 q 174 1 243 1 q 60 44 106 1 q 15 163 15 88 q 81 325 15 238 q 249 469 146 413 q 453 526 353 526 q 494 524 467 526 l 490 469 q 237 376 338 463 q 136 193 136 290 q 161 128 136 153 q 226 103 186 103 q 390 197 290 103 z "},"d":{"ha":776,"x_min":8,"x_max":868,"o":"m 797 1026 l 868 1001 l 849 965 q 589 414 696 681 q 518 151 518 239 q 529 116 518 129 q 565 103 540 103 q 621 135 589 103 l 646 111 q 583 37 628 71 q 497 3 539 3 q 417 97 417 3 q 447 268 417 153 q 126 -18 283 -18 q 40 15 72 -18 q 8 106 8 49 q 81 293 8 196 q 258 452 153 390 q 456 514 364 514 l 460 465 q 237 362 340 450 q 133 182 133 274 q 154 120 133 143 q 208 97 175 97 q 386 243 276 97 q 478 397 426 296 q 562 560 531 499 q 623 681 593 622 q 701 837 653 740 q 797 1026 750 933 z "},"e":{"ha":529,"x_min":14,"x_max":515,"o":"m 403 164 l 435 139 q 317 40 392 79 q 171 0 242 0 q 57 42 100 0 q 14 151 14 83 q 149 403 14 279 q 424 526 285 526 q 515 454 515 526 q 419 303 515 379 q 147 164 322 226 q 186 114 160 132 q 240 96 213 96 q 403 164 300 96 m 140 206 q 333 303 253 244 q 414 410 414 361 q 400 442 414 428 q 368 456 386 456 q 227 374 303 456 q 140 206 151 293 z "},"f":{"ha":474,"x_min":8,"x_max":688,"o":"m 311 546 l 267 378 l 447 399 l 407 333 l 251 313 q 190 86 233 238 q 97 -329 97 -242 l 8 -375 q 111 86 8 -256 q 176 306 164 257 q 88 293 128 293 q 8 356 8 293 q 61 439 8 390 q 243 564 138 510 q 361 914 325 843 q 450 1036 410 1010 q 574 1074 510 1074 q 664 1038 638 1074 q 688 953 690 1001 q 311 546 681 778 m 533 956 q 418 881 456 956 q 367 740 389 822 q 335 628 344 658 q 499 756 411 675 q 589 896 586 836 q 533 956 592 956 m 196 371 l 226 493 q 144 447 174 471 q 114 407 114 424 q 196 371 114 371 z "},"g":{"ha":624,"x_min":18,"x_max":614,"o":"m 613 50 l 614 17 q 488 -33 600 8 q 357 -417 443 -299 q 146 -535 271 -535 q 53 -497 88 -535 q 18 -400 18 -460 q 128 -177 18 -281 q 421 -14 238 -74 q 496 249 442 79 q 327 57 403 107 q 190 7 251 7 q 98 40 129 7 q 67 129 67 74 q 143 316 67 221 q 335 472 219 411 q 560 532 451 532 l 571 483 q 306 375 417 467 q 196 199 196 283 q 218 139 196 163 q 272 115 240 115 q 415 215 319 115 q 550 386 511 315 l 601 357 q 496 13 525 153 l 613 50 m 413 -56 q 213 -189 292 -111 q 133 -331 133 -267 q 153 -385 133 -364 q 201 -406 172 -406 q 317 -324 260 -406 q 413 -56 374 -242 z "},"h":{"ha":601,"x_min":8,"x_max":582,"o":"m 550 101 l 582 75 q 431 -22 524 -22 q 350 57 350 -22 q 390 203 350 103 q 429 336 429 304 q 378 376 429 376 q 238 266 326 376 q 90 10 150 156 l 8 39 q 386 1010 81 401 l 454 988 q 233 497 300 679 q 129 185 164 308 q 313 429 236 361 q 447 497 390 497 q 550 424 550 497 q 499 260 550 378 q 447 103 447 142 q 485 64 447 64 q 550 101 504 64 z "},"i":{"ha":372,"x_min":42,"x_max":358,"o":"m 297 589 q 219 651 219 589 q 239 710 219 686 q 289 733 258 733 q 339 715 319 733 q 358 668 358 697 q 342 614 358 639 q 297 589 325 589 m 279 179 l 307 156 q 219 47 274 92 q 119 1 164 1 q 42 110 42 1 q 153 461 42 244 q 182 517 178 508 l 242 481 q 170 313 213 428 q 128 165 128 197 q 142 118 128 132 q 175 104 156 104 q 279 179 213 104 z "},"j":{"ha":560,"x_min":-167,"x_max":588,"o":"m 439 196 q 442 156 442 171 q 308 114 368 138 q 175 -260 257 -133 q -33 -386 93 -386 q -131 -349 -96 -386 q -167 -246 -167 -311 q -64 -31 -167 -128 q 235 135 39 65 q 385 601 297 372 q 414 685 411 671 l 483 663 q 388 408 444 576 q 321 164 332 240 l 439 196 m 229 81 q 10 -56 56 -6 q -50 -192 -50 -121 q -32 -240 -50 -222 q 17 -258 -14 -258 q 137 -163 79 -258 q 229 81 194 -68 m 588 855 q 588 840 588 855 q 573 799 588 825 q 526 772 558 772 q 470 790 493 772 q 447 841 447 808 q 469 899 447 874 q 520 925 492 925 q 568 905 549 925 q 588 855 588 885 z "},"k":{"ha":629,"x_min":8,"x_max":610,"o":"m 575 142 l 610 111 q 439 -21 529 -21 q 325 61 383 -21 q 267 196 267 143 q 367 263 267 229 q 435 301 404 275 q 467 354 467 326 q 451 397 467 382 q 413 411 436 411 q 93 0 260 397 l 8 29 q 170 513 8 89 q 400 1025 332 936 l 468 1000 q 154 242 281 674 q 340 458 263 404 q 489 513 418 513 q 558 486 532 513 q 583 419 583 460 q 563 344 583 378 q 506 286 543 311 q 372 215 451 250 q 415 117 385 150 q 485 83 446 83 q 575 142 506 83 z "},"l":{"ha":376,"x_min":8,"x_max":460,"o":"m 231 133 l 260 110 q 178 3 213 36 q 103 -29 144 -29 q 35 4 61 -29 q 8 88 8 38 q 136 506 8 185 q 399 1072 264 828 l 460 1039 q 214 515 324 775 q 104 140 104 254 q 153 75 104 75 q 231 133 192 75 z "},"m":{"ha":1003,"x_min":8,"x_max":983,"o":"m 954 181 l 983 153 q 801 11 904 11 q 737 34 760 11 q 714 95 714 57 q 760 226 714 133 q 808 368 806 319 q 795 404 810 390 q 756 418 781 418 q 705 406 731 418 q 655 368 679 394 q 610 317 631 342 q 566 246 590 292 q 525 169 542 200 q 442 -1 496 113 l 358 28 q 404 185 358 32 q 450 367 450 338 q 436 409 450 396 q 401 422 422 422 q 228 267 339 422 q 88 1 118 111 l 8 28 q 74 292 15 101 q 172 553 132 483 l 235 531 q 175 369 192 435 q 146 228 158 303 q 346 467 265 399 q 492 536 426 536 q 563 465 563 536 q 538 356 563 438 q 500 226 514 274 q 843 535 692 535 q 903 512 881 535 q 925 444 925 489 q 873 294 925 399 q 821 163 821 190 q 832 124 821 136 q 860 111 843 111 q 954 181 896 111 z "},"n":{"ha":644,"x_min":6,"x_max":625,"o":"m 596 168 l 625 146 q 541 43 594 85 q 444 1 488 1 q 376 26 401 1 q 351 89 351 51 q 399 220 351 126 q 447 358 447 314 q 431 394 447 378 q 393 410 415 410 q 250 302 322 410 q 89 -8 178 194 l 6 21 q 81 335 32 182 q 172 556 131 489 l 229 538 q 131 197 190 439 q 483 525 322 525 q 541 501 518 525 q 564 446 564 478 q 556 388 564 414 q 503 269 547 363 q 460 151 460 175 q 474 115 460 128 q 500 101 488 101 q 521 106 513 101 q 540 118 529 110 q 558 133 550 126 q 578 152 567 140 q 596 168 590 164 z "},"o":{"ha":460,"x_min":14,"x_max":446,"o":"m 410 413 q 446 281 446 353 q 368 80 446 168 q 185 -8 290 -8 q 59 38 104 -8 q 14 167 14 85 q 117 403 14 299 q 347 508 219 508 q 381 507 371 508 l 385 461 q 200 397 274 461 q 126 233 126 333 q 156 137 126 174 q 241 100 185 100 q 331 150 297 100 q 364 267 364 200 q 338 390 364 335 l 410 413 z "},"p":{"ha":688,"x_min":-108,"x_max":663,"o":"m 221 256 q 404 472 326 414 q 540 529 482 529 q 631 494 599 529 q 663 404 663 458 q 555 127 663 254 q 313 0 447 0 q 218 21 253 0 l 251 81 q 342 71 324 71 q 482 158 417 71 q 547 338 547 246 q 527 395 547 372 q 475 418 507 418 q 302 283 399 418 q 122 -51 206 149 q -25 -475 38 -250 l -108 -446 q -56 -302 -106 -437 q 40 -33 -7 -167 q 171 368 171 333 q 135 529 171 457 l 204 564 q 247 438 247 504 q 221 256 247 372 z "},"q":{"ha":586,"x_min":17,"x_max":575,"o":"m 228 -483 l 153 -453 q 429 251 153 -358 q 252 58 324 110 q 125 6 181 6 q 17 126 17 6 q 85 321 17 226 q 268 474 154 415 q 503 533 382 533 l 515 485 q 263 399 385 482 q 142 200 142 315 q 204 126 142 126 q 305 178 250 126 q 422 306 360 231 q 521 410 483 382 l 575 379 q 228 -483 268 -237 z "},"r":{"ha":493,"x_min":17,"x_max":482,"o":"m 403 492 q 460 468 438 492 q 482 407 482 444 q 396 249 482 332 l 363 275 q 382 338 382 318 q 340 375 382 375 q 261 322 299 375 q 173 159 224 269 q 96 3 122 49 l 17 38 q 104 242 93 211 q 142 517 142 350 l 219 538 q 207 398 215 447 q 167 238 199 349 q 403 492 307 492 z "},"s":{"ha":460,"x_min":-6,"x_max":468,"o":"m 468 543 l 456 489 q 394 492 432 492 q 256 400 256 492 q 312 286 256 381 q 368 160 368 192 q 317 42 368 85 q 182 0 267 0 q -6 129 65 0 l 47 167 q 89 130 67 151 q 122 100 111 108 q 181 76 149 76 q 236 99 213 76 q 260 156 260 122 q 199 283 260 190 q 139 414 139 376 q 197 518 139 482 q 348 554 254 554 q 468 543 442 554 z "},"t":{"ha":458,"x_min":11,"x_max":443,"o":"m 339 156 l 369 121 q 285 36 335 67 q 186 6 236 6 q 107 34 136 6 q 78 113 78 63 q 165 435 78 229 q 24 401 94 424 l 14 456 l 13 457 q 194 504 82 486 q 244 606 206 525 q 356 813 322 765 l 415 789 q 367 687 401 758 q 289 525 332 615 q 388 529 351 529 q 443 518 424 529 l 443 458 q 387 463 424 463 q 256 450 350 463 q 174 183 174 267 q 194 131 174 151 q 248 110 214 110 q 339 156 282 110 z "},"u":{"ha":611,"x_min":17,"x_max":600,"o":"m 571 153 l 600 129 q 526 31 576 71 q 434 -10 475 -10 q 369 19 393 -10 q 346 93 346 47 q 361 211 346 139 q 221 50 296 108 q 94 -8 146 -8 q 17 103 17 -8 q 81 344 17 197 q 174 515 144 492 l 240 486 q 154 306 183 394 q 125 187 125 217 q 144 139 125 157 q 188 121 163 121 q 326 223 243 121 q 494 528 408 325 l 565 496 q 502 335 563 485 q 442 155 442 185 q 455 110 442 125 q 481 94 468 94 q 501 96 494 94 q 515 101 508 97 q 527 108 522 106 q 539 118 532 111 l 550 128 q 560 141 553 132 q 571 153 568 150 z "},"v":{"ha":528,"x_min":15,"x_max":515,"o":"m 468 497 l 515 460 q 265 54 331 217 q 201 0 243 0 q 155 28 175 0 q 128 78 135 56 q 108 175 122 101 q 78 328 94 249 q 51 448 61 408 q 37 500 40 488 q 25 522 33 513 q 15 533 17 531 l 106 525 q 169 311 146 426 q 189 216 175 288 q 211 104 203 144 q 345 344 288 251 q 468 497 403 436 z "},"w":{"ha":829,"x_min":-1,"x_max":842,"o":"m 803 540 l 842 504 l 758 403 q 540 42 611 221 q 503 4 522 4 q 473 9 485 4 q 447 44 461 14 q 426 118 432 75 q 417 192 421 161 q 411 237 413 222 q 408 267 410 251 q 404 292 406 283 q 401 308 403 300 q 397 324 400 317 q 393 338 394 332 q 387 360 392 344 q 379 386 382 375 q 256 203 307 308 q 179 42 236 163 q 145 15 167 15 q 110 20 124 15 q 83 53 97 25 q 63 136 69 81 q -1 517 29 415 q 79 528 39 528 q 97 451 86 515 q 157 161 121 328 q 308 402 225 292 q 417 513 390 513 q 459 470 447 513 q 480 328 471 428 q 504 163 489 229 q 803 540 635 386 z "},"x":{"ha":617,"x_min":14,"x_max":603,"o":"m 274 232 q 53 -8 192 158 l 14 24 q 240 290 40 88 q 182 500 188 418 l 274 517 q 328 349 281 507 q 576 508 503 474 l 603 471 q 519 411 579 451 q 351 294 360 303 q 531 19 426 135 l 465 -22 q 274 232 351 61 z "},"y":{"ha":626,"x_min":-10,"x_max":589,"o":"m 585 88 l 589 51 q 460 1 583 47 q 417 -180 443 -90 q 366 -316 392 -269 q 306 -408 340 -362 q 118 -500 236 -500 q 25 -464 60 -500 q -10 -365 -10 -428 q 393 21 -10 -125 l 468 285 q 253 64 349 106 q 153 42 206 42 q 70 75 101 42 q 39 172 39 108 q 83 351 39 236 q 181 543 126 465 l 249 514 q 210 440 244 510 q 149 253 149 314 q 172 171 149 192 q 242 150 196 150 q 345 205 288 150 q 524 422 403 260 l 574 393 q 524 227 563 347 q 472 43 486 107 l 585 88 m 385 -21 q 231 -112 297 -61 q 106 -296 106 -207 q 125 -350 106 -329 q 174 -371 144 -371 q 385 -21 313 -371 z "},"z":{"ha":582,"x_min":-4,"x_max":550,"o":"m 493 103 l 492 44 q 404 42 460 43 q 327 40 349 40 q 268 36 306 39 q 150 19 204 32 q 76 4 82 4 q 23 36 50 4 q -4 99 -4 68 q 413 450 -4 157 q 330 451 394 451 q 106 424 265 451 l 97 471 q 450 528 192 528 q 527 519 504 528 q 550 482 550 511 q 514 424 550 450 q 491 408 507 418 q 433 369 475 399 q 349 309 392 340 q 242 215 307 278 q 117 78 176 153 q 376 108 308 108 q 493 103 443 108 z "},"{":{"ha":404,"x_min":38,"x_max":410,"o":"m 410 990 l 400 904 q 283 715 308 853 q 264 599 274 657 q 153 394 238 454 q 213 280 213 339 q 163 116 213 221 q 114 -40 114 11 q 138 -132 114 -90 l 118 -207 q 53 -53 53 -140 q 93 117 53 7 q 133 272 133 226 q 38 406 133 358 q 188 594 151 421 q 219 745 203 668 q 283 891 236 822 q 410 990 329 960 z "},"|":{"ha":228,"x_min":46,"x_max":247,"o":"m 93 -31 l 46 -44 q 88 447 60 249 q 193 892 117 646 l 247 879 q 137 420 179 700 q 93 -31 94 140 z "},"}":{"ha":424,"x_min":-14,"x_max":368,"o":"m -14 -231 l 15 -136 q 108 -17 79 -78 q 140 94 138 44 q 144 192 143 144 q 253 379 150 304 q 217 459 217 411 q 257 618 217 507 q 297 790 297 729 q 258 899 297 850 l 265 993 q 367 815 367 931 q 327 630 367 751 q 288 467 288 508 q 368 368 288 390 q 273 317 303 360 q 231 209 243 275 q 204 71 219 143 q 135 -85 189 -1 q -14 -231 82 -168 z "},"~":{"ha":625,"x_min":44,"x_max":574,"o":"m 544 463 l 574 396 q 410 275 456 275 q 352 299 381 275 q 304 351 324 322 q 257 404 285 381 q 207 428 229 428 q 161 414 185 428 q 65 333 129 392 l 44 400 q 159 491 115 463 q 235 519 203 519 q 299 497 268 519 q 347 447 329 474 q 439 374 399 374 q 481 394 460 374 q 544 463 508 422 z "},"¡":{"ha":422,"x_min":3,"x_max":418,"o":"m 281 744 l 346 704 q 81 15 181 424 l 3 15 q 281 744 119 476 m 356 888 q 369 888 356 888 q 400 870 382 888 q 418 827 418 853 q 400 783 418 801 q 356 765 382 765 q 313 783 331 765 q 296 827 296 801 q 313 870 296 853 q 356 888 331 888 z "},"¢":{"ha":590,"x_min":56,"x_max":525,"o":"m 426 650 l 479 636 q 446 567 474 625 q 493 569 474 569 q 525 565 513 569 l 521 510 l 478 510 q 417 501 475 510 q 306 138 349 339 q 393 163 339 138 q 485 224 447 189 l 518 196 q 411 85 478 126 q 281 38 344 44 q 257 -82 264 -43 l 197 -76 l 222 38 q 102 83 149 46 q 56 189 56 119 q 153 410 56 304 q 382 554 250 515 q 426 650 414 629 m 349 476 q 224 369 271 438 q 176 234 176 301 q 249 146 176 167 q 349 476 294 339 z "},"£":{"ha":769,"x_min":-60,"x_max":783,"o":"m 225 6 l 124 3 q 61 13 85 3 q 38 35 38 22 q 51 69 38 49 q 142 311 111 247 q -36 258 47 311 l -60 317 q 169 390 8 390 q 656 843 333 843 q 749 817 714 843 q 783 746 783 790 q 715 613 783 672 q 568 526 647 554 q 426 497 489 499 q 421 543 424 510 q 592 605 535 561 q 650 700 650 649 q 626 753 650 732 q 564 775 601 775 q 404 685 475 775 q 274 386 333 596 q 421 385 319 385 q 560 397 522 385 l 589 332 q 246 306 515 306 q 124 97 200 174 q 513 83 328 83 q 642 124 576 83 l 671 78 q 599 13 633 28 q 519 -1 565 -1 l 225 6 z "},"¥":{"ha":797,"x_min":4,"x_max":778,"o":"m 224 367 l 8 354 l 4 399 q 225 415 51 406 q 201 638 225 503 q 157 839 178 774 l 239 868 q 296 663 271 806 q 321 426 321 521 q 519 664 413 556 q 721 839 626 772 l 778 775 q 595 613 703 718 q 408 414 488 508 q 607 401 494 414 l 599 351 q 374 365 451 363 q 324 268 332 293 l 582 254 l 574 204 q 306 219 483 214 q 232 -4 285 168 l 138 22 q 204 221 197 171 q 22 211 158 221 l 18 261 l 213 269 q 224 357 224 343 l 224 367 z "},"¦":{"ha":239,"x_min":49,"x_max":214,"o":"m 143 538 l 89 538 q 160 800 114 653 l 214 788 q 143 538 174 685 m 72 371 l 122 371 q 96 42 96 160 l 49 28 q 72 371 57 231 z "},"§":{"ha":847,"x_min":14,"x_max":860,"o":"m 588 717 l 608 761 q 713 801 671 765 q 756 889 756 838 q 670 953 756 953 q 517 897 585 953 q 450 763 450 840 q 478 692 450 724 q 583 643 506 660 q 702 595 661 626 q 743 506 743 564 q 669 326 743 419 q 482 200 594 233 q 556 138 536 165 q 575 71 575 110 q 510 -81 575 -11 q 353 -185 444 -150 q 185 -221 263 -221 q 60 -194 107 -221 q 14 -112 14 -167 q 94 23 14 -39 q 300 94 175 85 l 288 60 q 240 40 274 57 q 185 8 206 24 q 147 -32 164 -7 q 129 -85 129 -57 q 221 -154 129 -154 q 397 -96 313 -154 q 481 32 481 -37 q 442 105 481 74 q 303 157 404 136 q 164 286 164 185 q 256 469 164 374 q 456 590 347 564 q 356 657 371 621 q 349 699 349 674 q 468 915 349 807 q 732 1024 588 1024 q 860 925 860 1024 q 783 781 860 844 q 588 717 707 717 m 625 449 q 590 525 625 496 q 510 554 554 554 q 353 481 428 554 q 278 326 278 407 q 309 251 278 278 q 392 225 340 225 q 553 294 481 225 q 625 449 625 363 z "},"¨":{"ha":292,"x_min":-6,"x_max":281,"o":"m 10 576 q 2 584 10 576 q -6 615 -6 592 q 10 655 -6 639 q 49 671 26 671 q 88 655 72 671 q 104 616 104 639 q 88 577 104 593 q 49 561 72 561 q 10 576 25 561 m 187 576 q 179 584 187 576 q 171 615 171 592 q 187 655 171 639 q 225 671 203 671 q 264 655 247 671 q 281 616 281 639 q 265 577 281 593 q 226 561 249 561 q 187 576 203 561 z "},"©":{"ha":675,"x_min":-1,"x_max":682,"o":"m 500 724 q 633 676 583 724 q 682 539 682 629 q 606 319 682 449 q 410 94 531 190 q 188 -1 290 -1 q 42 52 86 -1 q -1 211 -1 106 q 74 440 -1 317 q 267 643 149 563 q 500 724 385 724 m 403 148 q 442 186 403 148 q 528 328 481 224 q 576 513 576 433 q 540 633 576 592 q 438 675 504 675 q 294 609 371 675 q 165 442 217 543 q 114 256 114 342 q 150 122 114 171 q 256 72 186 72 q 403 148 325 72 m 432 324 l 456 304 q 381 219 432 251 q 282 188 331 188 q 202 217 233 188 q 171 293 171 247 q 270 469 171 385 q 479 554 369 554 q 504 551 493 554 l 501 514 l 472 513 q 321 448 386 508 q 256 321 256 388 q 274 276 256 294 q 318 258 292 258 q 432 324 364 258 z "},"«":{"ha":531,"x_min":11,"x_max":494,"o":"m 274 551 q 121 399 136 421 q 236 264 153 346 l 264 238 l 244 168 q 64 344 222 176 l 11 401 q 240 593 215 581 l 274 551 m 494 551 q 342 399 357 421 q 458 264 374 346 l 485 238 l 465 168 q 285 344 443 176 l 232 401 q 461 593 436 581 l 494 551 z "},"®":{"ha":688,"x_min":1,"x_max":685,"o":"m 503 726 q 635 679 586 726 q 685 542 685 632 q 609 322 685 451 q 413 97 533 193 q 191 1 293 1 q 45 55 89 1 q 1 214 1 108 q 76 442 1 319 q 269 646 151 565 q 503 726 388 726 m 485 249 q 579 522 579 393 q 543 636 579 594 q 440 678 507 678 q 297 612 374 678 q 168 445 219 546 q 117 259 117 344 q 153 124 117 174 q 261 75 189 75 q 417 163 333 75 q 347 224 381 171 q 314 318 314 278 q 389 372 314 351 q 440 397 417 379 q 464 433 464 414 q 428 475 464 475 q 214 175 324 465 l 157 197 q 268 558 157 246 l 318 558 q 254 351 279 449 l 289 406 q 479 549 378 546 q 526 530 508 549 q 543 479 543 511 q 491 386 543 426 q 385 332 439 346 q 412 260 390 283 q 460 236 433 236 q 485 249 467 236 z "},"¯":{"ha":232,"x_min":85,"x_max":343,"o":"m 343 646 l 343 596 l 97 588 l 85 631 q 343 646 131 640 z "},"°":{"ha":258,"x_min":-8,"x_max":263,"o":"m 263 785 q 208 678 263 725 q 99 631 154 631 q -8 714 -8 631 q 43 819 -8 774 q 151 865 94 865 q 235 843 208 865 q 263 785 263 821 m 199 778 q 142 836 199 836 q 87 802 113 836 q 61 718 61 768 q 111 668 61 668 q 172 702 146 668 q 199 778 199 736 z "},"±":{"ha":363,"x_min":-3,"x_max":363,"o":"m 203 278 l 138 278 q 143 410 140 374 l 14 394 l -3 469 q 149 488 51 481 q 168 643 160 599 l 243 626 l 228 500 l 363 500 l 363 435 l 218 418 l 203 278 m 360 229 l 360 164 l 28 132 l 11 207 q 211 225 86 222 q 360 229 336 228 z "},"´":{"ha":272,"x_min":-11,"x_max":267,"o":"m 267 625 l 29 547 l -11 572 l 172 681 l 267 625 z "},"µ":{"ha":679,"x_min":-3,"x_max":676,"o":"m 647 171 l 676 147 q 602 49 653 89 q 510 8 551 8 q 446 37 469 8 q 422 111 422 65 q 438 229 422 157 q 313 58 364 113 q 215 3 261 3 q 158 36 183 3 q 147 50 150 49 q 86 -233 99 -169 l -3 -251 q 63 51 17 -129 q 163 369 108 232 q 250 533 218 507 l 317 504 q 231 324 260 413 q 201 205 201 235 q 220 157 201 175 q 264 139 239 139 q 402 241 319 139 q 571 546 485 343 l 642 514 q 578 353 639 503 q 518 173 518 203 q 531 128 518 143 q 558 113 544 113 q 578 114 571 113 q 592 119 585 115 q 603 126 599 124 q 615 136 608 129 l 625 147 q 637 159 629 150 q 647 171 644 168 z "},"·":{"ha":100,"x_min":-14,"x_max":114,"o":"m 5 405 q -5 414 5 405 q -14 450 -14 424 q 5 495 -14 476 q 50 514 24 514 q 95 495 76 514 q 114 450 114 476 q 95 405 114 424 q 50 386 76 386 q 5 405 24 386 z "},"¸":{"ha":249,"x_min":-1,"x_max":265,"o":"m 96 -76 q 174 -58 129 -58 q 242 -76 219 -58 q 265 -122 265 -94 q 192 -224 265 -174 q 32 -274 118 -274 q -1 -269 17 -274 l 0 -236 q 119 -206 71 -236 q 168 -142 168 -175 q 158 -122 168 -131 q 133 -114 147 -114 q 89 -133 118 -114 q 46 -151 56 -151 q 29 -146 36 -151 q 22 -131 22 -140 q 72 -15 22 -114 l 88 17 l 140 17 l 96 -76 z "},"»":{"ha":544,"x_min":53,"x_max":521,"o":"m 271 401 l 89 169 l 53 218 q 149 358 61 249 l 178 394 q 126 465 157 428 q 82 525 94 503 l 128 599 q 271 401 204 501 m 521 401 l 339 169 l 303 218 q 399 358 311 249 l 428 394 q 376 465 407 428 q 332 525 344 503 l 378 599 q 521 401 454 501 z "},"¿":{"ha":613,"x_min":97,"x_max":656,"o":"m 560 172 q 527 133 560 172 q 408 52 494 93 q 252 11 322 11 q 140 48 182 11 q 97 144 97 85 q 222 349 97 243 l 313 425 q 499 639 450 542 q 519 675 508 658 l 572 651 q 346 350 544 553 q 260 253 279 282 q 240 194 240 225 q 307 129 240 129 q 467 185 392 129 q 574 349 543 240 l 626 342 q 560 172 626 251 m 656 829 q 637 786 656 803 q 591 769 618 769 q 549 783 564 769 q 533 820 533 796 q 552 863 533 844 q 599 881 571 881 q 656 829 656 881 z "},"À":{"ha":1125,"x_min":-118,"x_max":1119,"o":"m 1050 414 l 1043 331 q 974 333 1011 333 q 913 332 938 333 q 888 0 893 179 l 790 0 q 782 96 782 36 q 785 199 782 156 q 794 286 789 243 q 800 336 800 329 q 708 338 781 338 q 608 335 636 338 q 311 6 447 118 q 39 -106 175 -106 q -73 -65 -28 -106 q -118 42 -118 -25 q 74 272 -118 168 q 572 413 267 376 q 707 584 608 468 q 901 786 806 700 q 967 922 943 883 q 1015 960 992 960 q 1054 942 1039 960 q 1069 895 1069 924 q 1038 812 1069 867 q 974 642 1007 757 q 928 426 940 528 q 1050 414 1000 426 m 342 124 q 515 332 457 233 q 155 244 282 318 q 28 88 28 171 q 52 31 28 51 q 117 10 76 10 q 342 124 225 10 m 817 426 q 842 545 826 474 q 861 629 858 617 q 768 535 794 565 q 675 421 742 506 q 733 423 699 422 q 789 425 767 424 q 817 426 811 426 m 1079 1008 l 842 1086 l 936 1142 l 1119 1033 l 1079 1008 z "},"Á":{"ha":1125,"x_min":-118,"x_max":1103,"o":"m 1050 414 l 1043 331 q 974 333 1011 333 q 913 332 938 333 q 888 0 893 179 l 790 0 q 782 96 782 36 q 785 199 782 156 q 794 286 789 243 q 800 336 800 329 q 708 338 781 338 q 608 335 636 338 q 311 6 447 118 q 39 -106 175 -106 q -73 -65 -28 -106 q -118 42 -118 -25 q 74 272 -118 168 q 572 413 267 376 q 707 584 608 468 q 901 786 806 700 q 967 922 943 883 q 1015 960 992 960 q 1054 942 1039 960 q 1069 895 1069 924 q 1038 812 1069 867 q 974 642 1007 757 q 928 426 940 528 q 1050 414 1000 426 m 342 124 q 515 332 457 233 q 155 244 282 318 q 28 88 28 171 q 52 31 28 51 q 117 10 76 10 q 342 124 225 10 m 817 426 q 842 545 826 474 q 861 629 858 617 q 768 535 794 565 q 675 421 742 506 q 733 423 699 422 q 789 425 767 424 q 817 426 811 426 m 1103 1079 l 865 1001 l 825 1026 l 1008 1135 l 1103 1079 z "},"Â":{"ha":1125,"x_min":-118,"x_max":1147,"o":"m 1050 414 l 1043 331 q 974 333 1011 333 q 913 332 938 333 q 888 0 893 179 l 790 0 q 782 96 782 36 q 785 199 782 156 q 794 286 789 243 q 800 336 800 329 q 708 338 781 338 q 608 335 636 338 q 311 6 447 118 q 39 -106 175 -106 q -73 -65 -28 -106 q -118 42 -118 -25 q 74 272 -118 168 q 572 413 267 376 q 707 584 608 468 q 901 786 806 700 q 967 922 943 883 q 1015 960 992 960 q 1054 942 1039 960 q 1069 895 1069 924 q 1038 812 1069 867 q 974 642 1007 757 q 928 426 940 528 q 1050 414 1000 426 m 342 124 q 515 332 457 233 q 155 244 282 318 q 28 88 28 171 q 52 31 28 51 q 117 10 76 10 q 342 124 225 10 m 817 426 q 842 545 826 474 q 861 629 858 617 q 768 535 794 565 q 675 421 742 506 q 733 423 699 422 q 789 425 767 424 q 817 426 811 426 m 764 1042 l 968 1200 q 1147 1050 1118 1081 l 1106 1017 q 963 1106 988 1088 l 825 1008 l 764 1042 z "},"Ã":{"ha":1125,"x_min":-118,"x_max":1133,"o":"m 1050 414 l 1043 331 q 974 333 1011 333 q 913 332 938 333 q 888 0 893 179 l 790 0 q 782 96 782 36 q 785 199 782 156 q 794 286 789 243 q 800 336 800 329 q 708 338 781 338 q 608 335 636 338 q 311 6 447 118 q 39 -106 175 -106 q -73 -65 -28 -106 q -118 42 -118 -25 q 74 272 -118 168 q 572 413 267 376 q 707 584 608 468 q 901 786 806 700 q 967 922 943 883 q 1015 960 992 960 q 1054 942 1039 960 q 1069 895 1069 924 q 1038 812 1069 867 q 974 642 1007 757 q 928 426 940 528 q 1050 414 1000 426 m 342 124 q 515 332 457 233 q 155 244 282 318 q 28 88 28 171 q 52 31 28 51 q 117 10 76 10 q 342 124 225 10 m 817 426 q 842 545 826 474 q 861 629 858 617 q 768 535 794 565 q 675 421 742 506 q 733 423 699 422 q 789 425 767 424 q 817 426 811 426 m 1101 1133 l 1133 1107 q 1073 1036 1107 1065 q 1010 1007 1039 1007 q 949 1055 982 1007 q 888 1103 915 1103 q 860 1093 874 1103 q 838 1078 846 1083 q 817 1061 831 1072 q 794 1044 803 1050 l 756 1081 q 894 1171 858 1171 q 969 1122 929 1171 q 1031 1074 1010 1074 q 1067 1099 1044 1074 q 1101 1133 1090 1124 z "},"Ä":{"ha":1125,"x_min":-118,"x_max":1096,"o":"m 1050 414 l 1043 331 q 974 333 1011 333 q 913 332 938 333 q 888 0 893 179 l 790 0 q 782 96 782 36 q 785 199 782 156 q 794 286 789 243 q 800 336 800 329 q 708 338 781 338 q 608 335 636 338 q 311 6 447 118 q 39 -106 175 -106 q -73 -65 -28 -106 q -118 42 -118 -25 q 74 272 -118 168 q 572 413 267 376 q 707 584 608 468 q 901 786 806 700 q 967 922 943 883 q 1015 960 992 960 q 1054 942 1039 960 q 1069 895 1069 924 q 1038 812 1069 867 q 974 642 1007 757 q 928 426 940 528 q 1050 414 1000 426 m 342 124 q 515 332 457 233 q 155 244 282 318 q 28 88 28 171 q 52 31 28 51 q 117 10 76 10 q 342 124 225 10 m 817 426 q 842 545 826 474 q 861 629 858 617 q 768 535 794 565 q 675 421 742 506 q 733 423 699 422 q 789 425 767 424 q 817 426 811 426 m 865 1043 q 853 1043 865 1043 q 826 1059 842 1043 q 810 1098 810 1075 q 826 1137 810 1121 q 864 1153 842 1153 q 903 1136 886 1153 q 919 1097 919 1119 q 903 1059 919 1075 q 865 1043 888 1043 m 1040 1043 q 1028 1043 1040 1043 q 1001 1059 1017 1043 q 986 1098 986 1075 q 1002 1137 986 1121 q 1041 1153 1018 1153 q 1080 1136 1064 1153 q 1096 1097 1096 1119 q 1080 1059 1096 1075 q 1040 1043 1064 1043 z "},"Å":{"ha":1125,"x_min":-118,"x_max":1075,"o":"m 1050 414 l 1043 331 q 974 333 1011 333 q 913 332 938 333 q 888 0 893 179 l 790 0 q 782 96 782 36 q 785 199 782 156 q 794 286 789 243 q 800 336 800 329 q 708 338 781 338 q 608 335 636 338 q 311 6 447 118 q 39 -106 175 -106 q -73 -65 -28 -106 q -118 42 -118 -25 q 74 272 -118 168 q 572 413 267 376 q 707 584 608 468 q 901 786 806 700 q 967 922 943 883 q 1015 960 992 960 q 1054 942 1039 960 q 1069 895 1069 924 q 1038 812 1069 867 q 974 642 1007 757 q 928 426 940 528 q 1050 414 1000 426 m 342 124 q 515 332 457 233 q 155 244 282 318 q 28 88 28 171 q 52 31 28 51 q 117 10 76 10 q 342 124 225 10 m 817 426 q 842 545 826 474 q 861 629 858 617 q 768 535 794 565 q 675 421 742 506 q 733 423 699 422 q 789 425 767 424 q 817 426 811 426 m 990 1174 q 1011 1174 990 1174 q 1053 1156 1032 1174 q 1075 1101 1075 1138 q 1039 1032 1075 1064 q 961 1000 1003 1000 q 898 1019 919 1000 q 876 1075 876 1038 q 912 1143 876 1113 q 990 1174 947 1174 m 963 1028 q 1003 1054 985 1028 q 1021 1114 1021 1081 q 992 1147 1021 1147 q 949 1120 968 1147 q 929 1060 929 1093 q 963 1028 929 1028 z "},"Æ":{"ha":1635,"x_min":-118,"x_max":1636,"o":"m 1636 799 q 1570 675 1636 729 q 1419 596 1504 621 q 1254 571 1333 571 q 1224 572 1233 571 l 1224 619 q 1304 633 1226 619 q 1435 679 1382 646 q 1489 754 1489 713 q 1414 804 1489 804 q 1222 735 1313 804 q 1132 589 1132 665 q 1226 490 1132 513 q 1254 479 1247 485 q 1261 460 1261 474 q 1248 437 1261 446 q 1188 411 1235 428 q 932 139 932 324 q 946 75 932 101 q 1165 251 1031 183 q 1425 319 1300 319 q 1529 291 1490 319 q 1568 213 1568 263 q 1496 57 1568 135 q 1309 -70 1424 -21 q 1081 -119 1194 -119 q 903 -78 967 -119 q 892 -100 901 -79 q 843 -176 863 -154 l 797 -157 q 854 -39 807 -118 q 779 161 779 17 q 800 336 779 232 q 708 338 781 338 q 608 335 636 338 q 311 6 447 118 q 39 -106 175 -106 q -73 -65 -28 -106 q -118 42 -118 -25 q 74 272 -118 168 q 572 413 267 376 q 707 584 608 468 q 901 786 806 700 q 967 922 943 883 q 1015 960 992 960 q 1054 942 1039 960 q 1069 895 1069 924 q 1043 821 1069 867 q 914 342 961 676 q 1067 428 978 393 q 1001 540 1001 482 q 1085 702 1001 619 q 1288 836 1168 785 q 1514 888 1408 888 q 1603 863 1569 888 q 1636 799 1636 839 m 342 124 q 515 332 457 233 q 155 244 282 318 q 28 88 28 171 q 52 31 28 51 q 117 10 76 10 q 342 124 225 10 m 1344 236 q 1153 174 1263 236 q 976 25 1044 111 q 1134 -37 1032 -37 q 1334 28 1236 -37 q 1432 171 1432 94 q 1408 219 1432 201 q 1344 236 1385 236 m 817 426 q 842 545 826 474 q 861 629 858 617 q 768 535 794 565 q 675 421 742 506 q 733 423 699 422 q 789 425 767 424 q 817 426 811 426 z "},"Ç":{"ha":872,"x_min":56,"x_max":817,"o":"m 292 -76 q 370 -58 325 -58 q 438 -76 415 -58 q 461 -122 461 -94 q 388 -224 461 -174 q 228 -274 314 -274 q 194 -269 214 -274 l 196 -236 q 315 -206 267 -236 q 364 -142 364 -175 q 353 -122 364 -131 q 328 -114 343 -114 q 285 -133 314 -114 q 242 -151 251 -151 q 225 -146 232 -151 q 218 -133 218 -140 q 271 -8 218 -110 q 130 74 189 10 q 71 242 71 138 q 168 528 71 376 q 56 631 97 569 l 93 672 q 119 643 103 663 q 206 578 151 606 q 444 785 288 692 q 708 878 600 878 q 788 849 760 878 q 817 772 817 821 q 688 572 817 664 q 393 479 558 479 q 240 500 321 479 q 188 313 188 414 q 243 151 188 213 q 406 89 299 89 q 657 313 597 89 l 722 313 q 601 85 707 183 q 321 -14 494 -14 l 292 -76 m 389 535 q 601 592 510 535 q 693 725 693 649 q 674 767 693 751 q 626 783 656 783 q 438 716 542 783 q 272 554 333 649 q 389 535 322 535 z "},"È":{"ha":957,"x_min":56,"x_max":901,"o":"m 901 797 q 835 674 901 728 q 684 594 769 619 q 519 569 599 569 q 489 571 499 569 l 489 618 q 569 631 492 618 q 701 678 647 644 q 754 753 754 711 q 679 803 754 803 q 488 733 578 803 q 397 588 397 664 q 492 489 397 511 q 519 478 513 483 q 526 458 526 472 q 513 435 526 444 q 453 410 500 426 q 197 138 197 322 q 211 74 197 100 q 431 250 296 182 q 690 318 565 318 q 794 290 756 318 q 833 211 833 261 q 761 56 833 133 q 574 -72 689 -22 q 347 -121 460 -121 q 168 -79 233 -121 q 156 -100 167 -81 q 108 -178 128 -156 l 63 -158 q 119 -40 72 -119 q 56 122 56 32 q 128 292 56 211 q 332 426 201 374 q 267 539 267 481 q 350 701 267 618 q 553 835 433 783 q 779 886 674 886 q 868 862 835 886 q 901 797 901 838 m 610 235 q 419 172 528 235 q 242 24 310 110 q 399 -39 297 -39 q 599 27 501 -39 q 697 169 697 93 q 674 217 697 200 q 610 235 650 235 m 789 949 l 551 1026 l 646 1082 l 829 974 l 789 949 z "},"É":{"ha":957,"x_min":56,"x_max":901,"o":"m 901 797 q 835 674 901 728 q 684 594 769 619 q 519 569 599 569 q 489 571 499 569 l 489 618 q 569 631 492 618 q 701 678 647 644 q 754 753 754 711 q 679 803 754 803 q 488 733 578 803 q 397 588 397 664 q 492 489 397 511 q 519 478 513 483 q 526 458 526 472 q 513 435 526 444 q 453 410 500 426 q 197 138 197 322 q 211 74 197 100 q 431 250 296 182 q 690 318 565 318 q 794 290 756 318 q 833 211 833 261 q 761 56 833 133 q 574 -72 689 -22 q 347 -121 460 -121 q 168 -79 233 -121 q 156 -100 167 -81 q 108 -178 128 -156 l 63 -158 q 119 -40 72 -119 q 56 122 56 32 q 128 292 56 211 q 332 426 201 374 q 267 539 267 481 q 350 701 267 618 q 553 835 433 783 q 779 886 674 886 q 868 862 835 886 q 901 797 901 838 m 610 235 q 419 172 528 235 q 242 24 310 110 q 399 -39 297 -39 q 599 27 501 -39 q 697 169 697 93 q 674 217 697 200 q 610 235 650 235 m 826 1003 l 589 925 l 549 950 l 732 1058 l 826 1003 z "},"Ê":{"ha":957,"x_min":56,"x_max":901,"o":"m 901 797 q 835 674 901 728 q 684 594 769 619 q 519 569 599 569 q 489 571 499 569 l 489 618 q 569 631 492 618 q 701 678 647 644 q 754 753 754 711 q 679 803 754 803 q 488 733 578 803 q 397 588 397 664 q 492 489 397 511 q 519 478 513 483 q 526 458 526 472 q 513 435 526 444 q 453 410 500 426 q 197 138 197 322 q 211 74 197 100 q 431 250 296 182 q 690 318 565 318 q 794 290 756 318 q 833 211 833 261 q 761 56 833 133 q 574 -72 689 -22 q 347 -121 460 -121 q 168 -79 233 -121 q 156 -100 167 -81 q 108 -178 128 -156 l 63 -158 q 119 -40 72 -119 q 56 122 56 32 q 128 292 56 211 q 332 426 201 374 q 267 539 267 481 q 350 701 267 618 q 553 835 433 783 q 779 886 674 886 q 868 862 835 886 q 901 797 901 838 m 610 235 q 419 172 528 235 q 242 24 310 110 q 399 -39 297 -39 q 599 27 501 -39 q 697 169 697 93 q 674 217 697 200 q 610 235 650 235 m 508 947 l 713 1106 q 892 956 863 986 l 850 922 q 707 1011 732 993 l 569 914 l 508 947 z "},"Ë":{"ha":957,"x_min":56,"x_max":901,"o":"m 901 797 q 835 674 901 728 q 684 594 769 619 q 519 569 599 569 q 489 571 499 569 l 489 618 q 569 631 492 618 q 701 678 647 644 q 754 753 754 711 q 679 803 754 803 q 488 733 578 803 q 397 588 397 664 q 492 489 397 511 q 519 478 513 483 q 526 458 526 472 q 513 435 526 444 q 453 410 500 426 q 197 138 197 322 q 211 74 197 100 q 431 250 296 182 q 690 318 565 318 q 794 290 756 318 q 833 211 833 261 q 761 56 833 133 q 574 -72 689 -22 q 347 -121 460 -121 q 168 -79 233 -121 q 156 -100 167 -81 q 108 -178 128 -156 l 63 -158 q 119 -40 72 -119 q 56 122 56 32 q 128 292 56 211 q 332 426 201 374 q 267 539 267 481 q 350 701 267 618 q 553 835 433 783 q 779 886 674 886 q 868 862 835 886 q 901 797 901 838 m 610 235 q 419 172 528 235 q 242 24 310 110 q 399 -39 297 -39 q 599 27 501 -39 q 697 169 697 93 q 674 217 697 200 q 610 235 650 235 m 584 963 q 576 970 584 963 q 568 1001 568 978 q 584 1041 568 1025 q 622 1057 600 1057 q 661 1041 644 1057 q 678 1002 678 1025 q 662 963 678 979 q 623 947 646 947 q 584 963 600 947 m 760 963 q 752 970 760 963 q 744 1001 744 978 q 760 1041 744 1025 q 799 1057 776 1057 q 838 1041 822 1057 q 854 1002 854 1025 q 838 963 854 979 q 799 947 822 947 q 760 963 775 947 z "},"Ì":{"ha":842,"x_min":56,"x_max":856,"o":"m 832 856 q 856 831 856 849 q 839 806 856 825 q 749 683 775 724 q 688 549 724 643 q 624 367 653 454 q 596 279 596 281 q 439 78 539 151 q 229 4 339 4 q 103 42 151 4 q 56 144 56 81 q 185 328 56 244 q 443 411 314 411 l 449 365 q 272 289 346 344 q 197 168 197 233 q 222 100 197 126 q 283 74 246 74 q 406 140 354 74 q 510 374 457 206 q 608 619 564 542 q 718 750 651 697 q 675 751 699 751 q 442 714 556 751 q 329 614 329 676 q 364 540 329 575 l 333 503 q 240 654 240 568 q 290 753 240 711 q 422 817 339 794 q 781 860 582 860 q 832 856 824 860 m 768 926 l 531 1004 l 625 1060 l 808 951 l 768 926 z "},"Í":{"ha":842,"x_min":56,"x_max":856,"o":"m 832 856 q 856 831 856 849 q 839 806 856 825 q 749 683 775 724 q 688 549 724 643 q 624 367 653 454 q 596 279 596 281 q 439 78 539 151 q 229 4 339 4 q 103 42 151 4 q 56 144 56 81 q 185 328 56 244 q 443 411 314 411 l 449 365 q 272 289 346 344 q 197 168 197 233 q 222 100 197 126 q 283 74 246 74 q 406 140 354 74 q 510 374 457 206 q 608 619 564 542 q 718 750 651 697 q 675 751 699 751 q 442 714 556 751 q 329 614 329 676 q 364 540 329 575 l 333 503 q 240 654 240 568 q 290 753 240 711 q 422 817 339 794 q 781 860 582 860 q 832 856 824 860 m 788 1011 l 550 933 l 510 958 l 693 1067 l 788 1011 z "},"Î":{"ha":842,"x_min":56,"x_max":856,"o":"m 832 856 q 856 831 856 849 q 839 806 856 825 q 749 683 775 724 q 688 549 724 643 q 624 367 653 454 q 596 279 596 281 q 439 78 539 151 q 229 4 339 4 q 103 42 151 4 q 56 144 56 81 q 185 328 56 244 q 443 411 314 411 l 449 365 q 272 289 346 344 q 197 168 197 233 q 222 100 197 126 q 283 74 246 74 q 406 140 354 74 q 510 374 457 206 q 608 619 564 542 q 718 750 651 697 q 675 751 699 751 q 442 714 556 751 q 329 614 329 676 q 364 540 329 575 l 333 503 q 240 654 240 568 q 290 753 240 711 q 422 817 339 794 q 781 860 582 860 q 832 856 824 860 m 425 956 l 629 1114 q 808 964 779 994 l 767 931 q 624 1019 649 1001 l 486 922 l 425 956 z "},"Ï":{"ha":842,"x_min":56,"x_max":856,"o":"m 832 856 q 856 831 856 849 q 839 806 856 825 q 749 683 775 724 q 688 549 724 643 q 624 367 653 454 q 596 279 596 281 q 439 78 539 151 q 229 4 339 4 q 103 42 151 4 q 56 144 56 81 q 185 328 56 244 q 443 411 314 411 l 449 365 q 272 289 346 344 q 197 168 197 233 q 222 100 197 126 q 283 74 246 74 q 406 140 354 74 q 510 374 457 206 q 608 619 564 542 q 718 750 651 697 q 675 751 699 751 q 442 714 556 751 q 329 614 329 676 q 364 540 329 575 l 333 503 q 240 654 240 568 q 290 753 240 711 q 422 817 339 794 q 781 860 582 860 q 832 856 824 860 m 507 965 q 499 973 507 965 q 492 1004 492 981 q 508 1044 492 1028 q 547 1060 524 1060 q 585 1044 569 1060 q 601 1005 601 1028 q 585 966 601 982 q 546 950 569 950 q 507 965 522 950 m 684 965 q 676 973 684 965 q 668 1004 668 981 q 684 1044 668 1028 q 722 1060 700 1060 q 761 1044 744 1060 q 778 1005 778 1028 q 762 966 778 982 q 723 950 746 950 q 684 965 700 950 z "},"Ð":{"ha":1033,"x_min":56,"x_max":978,"o":"m 393 886 q 806 743 635 886 q 978 408 978 600 q 861 106 978 217 q 565 -3 744 -6 q 413 -1 469 -1 l 347 -1 q 307 29 307 -1 q 342 110 307 36 q 389 215 376 183 l 238 193 l 251 278 q 419 301 340 293 q 449 404 436 350 q 181 483 306 404 q 56 663 56 563 q 150 825 56 764 q 393 886 244 886 m 689 326 l 689 261 l 479 229 q 425 101 453 164 q 656 90 564 90 q 803 159 749 90 q 857 344 857 228 q 719 688 857 546 q 388 829 582 829 q 243 790 296 829 q 190 676 190 751 q 263 541 190 600 q 458 467 336 482 q 508 701 501 649 l 592 693 q 556 465 592 607 q 685 479 567 465 l 692 433 q 538 404 664 424 q 508 313 515 333 q 689 326 578 319 z "},"Ñ":{"ha":1033,"x_min":0,"x_max":1033,"o":"m 953 849 l 1033 839 q 966 585 1008 731 q 889 351 924 440 q 813 173 854 261 q 726 34 772 85 q 638 -17 681 -17 q 574 15 594 -17 q 554 128 554 47 q 578 470 554 210 q 602 753 601 731 q 590 776 603 776 q 554 734 575 776 q 522 669 533 692 q 485 578 493 604 q 346 289 407 403 q 206 78 285 175 q 126 10 178 44 q 31 -43 75 -25 l 0 39 q 208 208 115 88 q 401 543 301 328 q 543 833 500 758 q 642 913 592 913 q 692 890 674 913 q 710 833 710 868 q 685 540 710 797 q 661 211 661 283 q 667 117 661 139 q 689 96 674 96 q 731 138 708 96 q 953 849 807 286 m 943 1085 l 975 1058 q 915 988 949 1017 q 852 958 881 958 q 790 1006 824 958 q 729 1054 757 1054 q 701 1044 715 1054 q 680 1029 688 1035 q 658 1013 672 1024 q 636 996 644 1001 l 597 1032 q 735 1122 700 1122 q 811 1074 771 1122 q 872 1025 851 1025 q 909 1050 886 1025 q 943 1085 932 1075 z "},"Ò":{"ha":992,"x_min":56,"x_max":992,"o":"m 992 683 l 992 617 q 761 518 929 581 q 524 169 686 331 q 226 8 361 8 q 103 63 150 8 q 56 212 56 117 q 119 441 56 307 q 288 692 183 575 q 500 865 392 810 q 639 894 544 894 q 755 840 710 894 q 800 710 800 785 q 789 599 800 636 q 992 683 894 633 m 440 732 q 394 641 394 685 q 439 572 394 597 q 551 546 483 546 q 668 558 618 546 q 676 639 676 600 q 558 776 676 776 q 440 732 504 776 m 458 207 q 649 488 594 342 q 560 481 614 481 q 296 585 326 481 q 179 265 179 422 q 209 165 179 203 q 297 128 239 128 q 458 207 379 128 m 675 938 l 438 1015 l 532 1071 l 715 963 l 675 938 z "},"Ó":{"ha":992,"x_min":56,"x_max":992,"o":"m 992 683 l 992 617 q 761 518 929 581 q 524 169 686 331 q 226 8 361 8 q 103 63 150 8 q 56 212 56 117 q 119 441 56 307 q 288 692 183 575 q 500 865 392 810 q 639 894 544 894 q 755 840 710 894 q 800 710 800 785 q 789 599 800 636 q 992 683 894 633 m 440 732 q 394 641 394 685 q 439 572 394 597 q 551 546 483 546 q 668 558 618 546 q 676 639 676 600 q 558 776 676 776 q 440 732 504 776 m 458 207 q 649 488 594 342 q 560 481 614 481 q 296 585 326 481 q 179 265 179 422 q 209 165 179 203 q 297 128 239 128 q 458 207 379 128 m 732 1013 l 494 935 l 454 960 l 638 1068 l 732 1013 z "},"Ô":{"ha":992,"x_min":56,"x_max":992,"o":"m 992 683 l 992 617 q 761 518 929 581 q 524 169 686 331 q 226 8 361 8 q 103 63 150 8 q 56 212 56 117 q 119 441 56 307 q 288 692 183 575 q 500 865 392 810 q 639 894 544 894 q 755 840 710 894 q 800 710 800 785 q 789 599 800 636 q 992 683 894 633 m 440 732 q 394 641 394 685 q 439 572 394 597 q 551 546 483 546 q 668 558 618 546 q 676 639 676 600 q 558 776 676 776 q 440 732 504 776 m 458 207 q 649 488 594 342 q 560 481 614 481 q 296 585 326 481 q 179 265 179 422 q 209 165 179 203 q 297 128 239 128 q 458 207 379 128 m 404 964 l 608 1122 q 788 972 758 1003 l 746 939 q 603 1028 628 1010 l 465 931 l 404 964 z "},"Õ":{"ha":992,"x_min":56,"x_max":992,"o":"m 992 683 l 992 617 q 761 518 929 581 q 524 169 686 331 q 226 8 361 8 q 103 63 150 8 q 56 212 56 117 q 119 441 56 307 q 288 692 183 575 q 500 865 392 810 q 639 894 544 894 q 755 840 710 894 q 800 710 800 785 q 789 599 800 636 q 992 683 894 633 m 440 732 q 394 641 394 685 q 439 572 394 597 q 551 546 483 546 q 668 558 618 546 q 676 639 676 600 q 558 776 676 776 q 440 732 504 776 m 458 207 q 649 488 594 342 q 560 481 614 481 q 296 585 326 481 q 179 265 179 422 q 209 165 179 203 q 297 128 239 128 q 458 207 379 128 m 757 1081 l 789 1054 q 728 983 763 1013 q 666 954 694 954 q 604 1002 638 954 q 543 1050 571 1050 q 515 1040 529 1050 q 494 1025 501 1031 q 472 1008 486 1019 q 450 992 458 997 l 411 1028 q 549 1118 514 1118 q 625 1069 585 1118 q 686 1021 665 1021 q 723 1046 700 1021 q 757 1081 746 1071 z "},"Ö":{"ha":992,"x_min":56,"x_max":992,"o":"m 992 683 l 992 617 q 761 518 929 581 q 524 169 686 331 q 226 8 361 8 q 103 63 150 8 q 56 212 56 117 q 119 441 56 307 q 288 692 183 575 q 500 865 392 810 q 639 894 544 894 q 755 840 710 894 q 800 710 800 785 q 789 599 800 636 q 992 683 894 633 m 440 732 q 394 641 394 685 q 439 572 394 597 q 551 546 483 546 q 668 558 618 546 q 676 639 676 600 q 558 776 676 776 q 440 732 504 776 m 458 207 q 649 488 594 342 q 560 481 614 481 q 296 585 326 481 q 179 265 179 422 q 209 165 179 203 q 297 128 239 128 q 458 207 379 128 m 510 943 q 498 943 510 943 q 471 959 486 943 q 456 998 456 975 q 472 1037 456 1021 q 510 1053 488 1053 q 549 1036 533 1053 q 565 997 565 1019 q 549 959 565 975 q 510 943 533 943 m 687 943 q 675 943 687 943 q 648 959 664 943 q 632 998 632 975 q 648 1037 632 1021 q 686 1053 664 1053 q 725 1036 708 1053 q 742 997 742 1019 q 726 959 742 975 q 687 943 710 943 z "},"×":{"ha":363,"x_min":33,"x_max":367,"o":"m 92 286 l 51 338 q 143 421 94 378 l 40 501 l 82 567 q 201 472 131 533 q 325 568 296 549 l 367 504 l 261 421 l 361 331 l 315 283 l 201 374 l 92 286 m 356 229 l 356 164 l 50 122 l 33 197 q 356 229 157 221 z "},"Ø":{"ha":763,"x_min":46,"x_max":750,"o":"m 315 -128 l 263 -118 q 282 25 268 -64 q 207 13 244 13 q 90 66 135 13 q 46 211 46 119 q 178 596 46 408 q 482 847 310 783 l 522 974 l 576 961 l 547 867 q 607 872 586 872 q 717 822 683 872 q 750 701 750 771 q 690 456 750 589 q 535 212 631 322 q 340 49 440 101 q 315 -128 325 -36 m 254 150 q 304 157 276 150 q 446 733 356 438 q 241 539 335 678 q 147 281 147 400 q 178 185 147 221 q 254 150 210 150 m 525 753 l 511 753 q 363 182 411 424 q 563 399 475 246 q 650 661 650 551 q 616 729 650 706 q 525 753 582 753 z "},"Ù":{"ha":1001,"x_min":56,"x_max":946,"o":"m 796 108 l 840 72 q 783 -15 824 25 q 696 -54 743 -54 q 592 8 632 -54 q 539 189 551 71 q 379 58 475 119 q 211 -4 283 -4 q 97 44 139 -4 q 56 169 56 93 q 225 582 56 343 q 568 922 394 821 l 606 869 q 315 558 447 751 q 183 219 183 365 q 209 135 183 165 q 281 106 235 106 q 411 160 328 106 q 536 261 494 214 q 601 535 543 396 q 738 762 658 674 q 888 850 818 850 q 946 779 946 850 q 842 542 946 708 q 635 279 738 376 q 632 243 632 257 q 656 116 632 182 q 721 50 681 50 q 796 108 756 50 m 817 719 q 715 612 771 719 q 644 383 660 504 q 783 573 731 486 q 835 699 835 660 q 817 719 835 719 m 878 928 l 640 1006 l 735 1061 l 918 953 l 878 928 z "},"Ú":{"ha":1001,"x_min":56,"x_max":946,"o":"m 796 108 l 840 72 q 783 -15 824 25 q 696 -54 743 -54 q 592 8 632 -54 q 539 189 551 71 q 379 58 475 119 q 211 -4 283 -4 q 97 44 139 -4 q 56 169 56 93 q 225 582 56 343 q 568 922 394 821 l 606 869 q 315 558 447 751 q 183 219 183 365 q 209 135 183 165 q 281 106 235 106 q 411 160 328 106 q 536 261 494 214 q 601 535 543 396 q 738 762 658 674 q 888 850 818 850 q 946 779 946 850 q 842 542 946 708 q 635 279 738 376 q 632 243 632 257 q 656 116 632 182 q 721 50 681 50 q 796 108 756 50 m 817 719 q 715 612 771 719 q 644 383 660 504 q 783 573 731 486 q 835 699 835 660 q 817 719 835 719 m 906 1010 l 668 932 l 628 957 l 811 1065 l 906 1010 z "},"Û":{"ha":1001,"x_min":56,"x_max":981,"o":"m 796 108 l 840 72 q 783 -15 824 25 q 696 -54 743 -54 q 592 8 632 -54 q 539 189 551 71 q 379 58 475 119 q 211 -4 283 -4 q 97 44 139 -4 q 56 169 56 93 q 225 582 56 343 q 568 922 394 821 l 606 869 q 315 558 447 751 q 183 219 183 365 q 209 135 183 165 q 281 106 235 106 q 411 160 328 106 q 536 261 494 214 q 601 535 543 396 q 738 762 658 674 q 888 850 818 850 q 946 779 946 850 q 842 542 946 708 q 635 279 738 376 q 632 243 632 257 q 656 116 632 182 q 721 50 681 50 q 796 108 756 50 m 817 719 q 715 612 771 719 q 644 383 660 504 q 783 573 731 486 q 835 699 835 660 q 817 719 835 719 m 597 950 l 801 1108 q 981 958 951 989 l 939 925 q 796 1014 821 996 l 658 917 l 597 950 z "},"Ü":{"ha":1001,"x_min":56,"x_max":946,"o":"m 796 108 l 840 72 q 783 -15 824 25 q 696 -54 743 -54 q 592 8 632 -54 q 539 189 551 71 q 379 58 475 119 q 211 -4 283 -4 q 97 44 139 -4 q 56 169 56 93 q 225 582 56 343 q 568 922 394 821 l 606 869 q 315 558 447 751 q 183 219 183 365 q 209 135 183 165 q 281 106 235 106 q 411 160 328 106 q 536 261 494 214 q 601 535 543 396 q 738 762 658 674 q 888 850 818 850 q 946 779 946 850 q 842 542 946 708 q 635 279 738 376 q 632 243 632 257 q 656 116 632 182 q 721 50 681 50 q 796 108 756 50 m 817 719 q 715 612 771 719 q 644 383 660 504 q 783 573 731 486 q 835 699 835 660 q 817 719 835 719 m 645 957 q 637 965 645 957 q 629 996 629 972 q 645 1035 629 1019 q 683 1051 661 1051 q 722 1035 706 1051 q 739 997 739 1019 q 723 958 739 974 q 684 942 707 942 q 645 957 661 942 m 821 957 q 813 965 821 957 q 806 996 806 972 q 822 1035 806 1019 q 860 1051 838 1051 q 899 1035 883 1051 q 915 997 915 1019 q 899 958 915 974 q 860 942 883 942 q 821 957 836 942 z "},"Ý":{"ha":944,"x_min":-111,"x_max":889,"o":"m 458 13 l 500 11 q 538 122 508 40 q 581 231 568 204 q 357 67 436 94 q 269 51 314 51 q 156 100 196 51 q 115 236 115 149 q 231 570 115 361 q 493 897 346 779 l 549 846 q 240 292 240 514 q 342 163 240 163 q 539 274 443 163 q 738 618 635 385 q 801 744 779 714 q 844 775 824 775 q 877 763 865 775 q 889 729 889 750 q 761 465 889 640 q 582 10 672 282 q 721 -22 647 6 l 707 -69 l 560 -49 q 362 -348 478 -249 q 85 -447 246 -447 q -55 -402 1 -447 q -111 -289 -111 -357 q 57 -76 -111 -164 q 458 13 225 13 m 147 -351 q 347 -260 260 -351 q 475 -47 433 -169 q 163 -110 289 -47 q 36 -264 36 -174 q 67 -327 36 -303 q 147 -351 99 -351 m 867 1003 l 629 925 l 589 950 l 772 1058 l 867 1003 z "},"Þ":{"ha":942,"x_min":10,"x_max":904,"o":"m 539 996 l 542 840 q 533 683 542 733 q 689 778 647 761 q 787 796 731 796 q 874 757 843 796 q 904 646 904 718 q 821 368 904 517 q 613 119 738 219 q 376 18 488 18 q 313 21 349 18 q 194 -185 247 -118 q 83 -251 140 -251 q 29 -226 49 -251 q 10 -157 10 -201 q 139 216 10 -14 q 426 590 268 446 q 449 757 449 663 l 439 979 l 539 996 m 215 121 l 254 101 q 401 485 342 272 q 194 168 272 324 q 115 -75 115 13 q 131 -101 115 -101 q 175 -58 146 -101 q 225 38 204 -14 q 190 63 207 46 l 215 121 m 342 82 l 368 81 q 621 222 503 81 q 734 410 688 304 q 781 589 781 515 q 759 653 781 629 q 700 676 738 676 q 519 601 632 676 q 342 82 494 414 z "},"ß":{"ha":489,"x_min":49,"x_max":497,"o":"m 113 4 l 49 18 q 153 339 57 68 q 285 663 249 610 q 400 731 333 731 q 471 702 444 731 q 497 617 497 674 q 458 501 497 561 q 317 351 419 442 q 275 289 278 318 q 310 205 275 257 q 351 138 344 153 q 357 85 357 122 q 326 19 357 49 q 248 -11 294 -11 q 164 21 201 -11 l 186 86 q 250 63 219 63 q 281 97 281 63 q 248 174 281 108 q 215 254 215 240 q 290 385 215 308 q 392 504 365 461 q 419 583 419 547 q 383 646 419 646 q 113 4 286 646 z "},"à":{"ha":679,"x_min":32,"x_max":656,"o":"m 624 140 l 656 117 q 584 38 636 75 q 489 0 532 0 q 407 86 407 0 q 428 182 407 126 l 376 129 q 247 26 301 53 q 139 0 192 0 q 59 30 86 0 q 32 113 32 60 q 107 305 32 210 q 299 460 182 400 q 532 521 415 519 l 535 475 l 476 463 q 253 351 350 435 q 157 185 157 268 q 224 103 157 103 q 378 190 286 103 q 531 396 469 278 l 589 361 q 503 140 503 188 q 516 108 503 121 q 542 94 529 94 q 560 96 556 94 q 568 99 564 97 q 578 106 572 101 q 590 114 585 110 q 606 126 594 118 q 624 140 617 135 m 481 556 l 243 633 l 338 689 l 521 581 l 481 556 z "},"á":{"ha":679,"x_min":32,"x_max":656,"o":"m 624 140 l 656 117 q 584 38 636 75 q 489 0 532 0 q 407 86 407 0 q 428 182 407 126 l 376 129 q 247 26 301 53 q 139 0 192 0 q 59 30 86 0 q 32 113 32 60 q 107 305 32 210 q 299 460 182 400 q 532 521 415 519 l 535 475 l 476 463 q 253 351 350 435 q 157 185 157 268 q 224 103 157 103 q 378 190 286 103 q 531 396 469 278 l 589 361 q 503 140 503 188 q 516 108 503 121 q 542 94 529 94 q 560 96 556 94 q 568 99 564 97 q 578 106 572 101 q 590 114 585 110 q 606 126 594 118 q 624 140 617 135 m 533 628 l 296 550 l 256 575 l 439 683 l 533 628 z "},"â":{"ha":679,"x_min":32,"x_max":656,"o":"m 624 140 l 656 117 q 584 38 636 75 q 489 0 532 0 q 407 86 407 0 q 428 182 407 126 l 376 129 q 247 26 301 53 q 139 0 192 0 q 59 30 86 0 q 32 113 32 60 q 107 305 32 210 q 299 460 182 400 q 532 521 415 519 l 535 475 l 476 463 q 253 351 350 435 q 157 185 157 268 q 224 103 157 103 q 378 190 286 103 q 531 396 469 278 l 589 361 q 503 140 503 188 q 516 108 503 121 q 542 94 529 94 q 560 96 556 94 q 568 99 564 97 q 578 106 572 101 q 590 114 585 110 q 606 126 594 118 q 624 140 617 135 m 211 565 l 415 724 q 594 574 565 604 l 553 540 q 410 629 435 611 l 272 532 l 211 565 z "},"ã":{"ha":679,"x_min":32,"x_max":656,"o":"m 624 140 l 656 117 q 584 38 636 75 q 489 0 532 0 q 407 86 407 0 q 428 182 407 126 l 376 129 q 247 26 301 53 q 139 0 192 0 q 59 30 86 0 q 32 113 32 60 q 107 305 32 210 q 299 460 182 400 q 532 521 415 519 l 535 475 l 476 463 q 253 351 350 435 q 157 185 157 268 q 224 103 157 103 q 378 190 286 103 q 531 396 469 278 l 589 361 q 503 140 503 188 q 516 108 503 121 q 542 94 529 94 q 560 96 556 94 q 568 99 564 97 q 578 106 572 101 q 590 114 585 110 q 606 126 594 118 q 624 140 617 135 m 581 685 l 613 658 q 552 588 586 617 q 490 558 518 558 q 428 606 461 558 q 367 654 394 654 q 339 644 353 654 q 317 629 325 635 q 296 613 310 624 q 274 596 282 601 l 235 632 q 373 722 338 722 q 449 674 408 722 q 510 625 489 625 q 547 650 524 625 q 581 685 569 675 z "},"ä":{"ha":679,"x_min":32,"x_max":656,"o":"m 624 140 l 656 117 q 584 38 636 75 q 489 0 532 0 q 407 86 407 0 q 428 182 407 126 l 376 129 q 247 26 301 53 q 139 0 192 0 q 59 30 86 0 q 32 113 32 60 q 107 305 32 210 q 299 460 182 400 q 532 521 415 519 l 535 475 l 476 463 q 253 351 350 435 q 157 185 157 268 q 224 103 157 103 q 378 190 286 103 q 531 396 469 278 l 589 361 q 503 140 503 188 q 516 108 503 121 q 542 94 529 94 q 560 96 556 94 q 568 99 564 97 q 578 106 572 101 q 590 114 585 110 q 606 126 594 118 q 624 140 617 135 m 349 565 q 337 565 349 565 q 310 581 325 565 q 294 620 294 597 q 310 659 294 643 q 349 675 326 675 q 388 658 372 675 q 404 619 404 642 q 388 581 404 597 q 349 565 372 565 m 526 565 q 514 565 526 565 q 487 581 503 565 q 471 620 471 597 q 487 659 471 643 q 525 675 503 675 q 564 658 547 675 q 581 619 581 642 q 565 581 581 597 q 526 565 549 565 z "},"å":{"ha":679,"x_min":32,"x_max":656,"o":"m 624 140 l 656 117 q 584 38 636 75 q 489 0 532 0 q 407 86 407 0 q 428 182 407 126 l 376 129 q 247 26 301 53 q 139 0 192 0 q 59 30 86 0 q 32 113 32 60 q 107 305 32 210 q 299 460 182 400 q 532 521 415 519 l 535 475 l 476 463 q 253 351 350 435 q 157 185 157 268 q 224 103 157 103 q 378 190 286 103 q 531 396 469 278 l 589 361 q 503 140 503 188 q 516 108 503 121 q 542 94 529 94 q 560 96 556 94 q 568 99 564 97 q 578 106 572 101 q 590 114 585 110 q 606 126 594 118 q 624 140 617 135 m 451 744 q 472 744 451 744 q 515 726 493 744 q 536 672 536 708 q 500 603 536 635 q 422 571 464 571 q 359 590 381 571 q 338 646 338 608 q 373 714 338 683 q 451 744 408 744 m 424 599 q 464 625 446 599 q 482 685 482 651 q 453 718 482 718 q 410 691 429 718 q 390 631 390 664 q 424 599 390 599 z "},"æ":{"ha":1057,"x_min":11,"x_max":1053,"o":"m 940 164 l 972 139 q 854 40 929 79 q 703 0 779 0 q 583 53 628 0 q 468 0 521 0 q 386 86 386 0 q 407 182 386 126 l 356 129 q 226 26 281 53 q 118 0 171 0 q 38 30 65 0 q 11 113 11 60 q 86 305 11 210 q 278 460 161 400 q 511 521 394 519 l 514 475 l 456 463 q 233 351 329 435 q 136 185 136 268 q 203 103 136 103 q 357 190 265 103 q 510 396 449 278 l 568 361 q 482 140 482 188 q 495 108 482 121 q 525 94 508 94 q 557 104 542 94 q 551 151 551 125 q 687 403 551 279 q 961 526 822 526 q 1053 454 1053 526 q 956 303 1053 379 q 685 164 860 226 q 724 114 697 132 q 778 96 750 96 q 940 164 839 96 m 678 206 q 871 303 790 244 q 951 410 951 361 q 938 442 951 428 q 906 456 925 456 q 765 374 840 456 q 678 206 689 293 z "},"ç":{"ha":535,"x_min":29,"x_max":508,"o":"m 168 -72 q 247 -54 201 -54 q 315 -72 292 -54 q 338 -118 338 -90 q 264 -219 338 -169 q 104 -269 190 -269 q 71 -265 89 -269 l 72 -232 q 192 -201 143 -232 q 240 -137 240 -171 q 230 -118 240 -126 q 205 -110 219 -110 q 161 -129 190 -110 q 118 -147 128 -147 q 101 -142 108 -147 q 94 -129 94 -136 q 151 6 94 -104 q 62 57 94 17 q 29 153 29 97 q 94 325 29 238 q 263 469 160 413 q 467 526 367 526 q 508 524 481 526 l 504 469 q 251 376 351 463 q 150 193 150 290 q 175 128 150 153 q 240 103 200 103 q 404 197 304 103 l 438 169 q 335 51 406 96 q 203 1 265 6 l 168 -72 z "},"è":{"ha":557,"x_min":28,"x_max":529,"o":"m 417 164 l 449 139 q 331 40 406 79 q 185 0 256 0 q 71 42 114 0 q 28 151 28 83 q 163 403 28 279 q 438 526 299 526 q 529 454 529 526 q 433 303 529 379 q 161 164 336 226 q 200 114 174 132 q 254 96 226 96 q 417 164 314 96 m 154 206 q 347 303 267 244 q 428 410 428 361 q 414 442 428 428 q 382 456 400 456 q 241 374 317 456 q 154 206 165 293 m 447 561 l 210 639 l 304 694 l 488 586 l 447 561 z "},"é":{"ha":557,"x_min":28,"x_max":529,"o":"m 417 164 l 449 139 q 331 40 406 79 q 185 0 256 0 q 71 42 114 0 q 28 151 28 83 q 163 403 28 279 q 438 526 299 526 q 529 454 529 526 q 433 303 529 379 q 161 164 336 226 q 200 114 174 132 q 254 96 226 96 q 417 164 314 96 m 154 206 q 347 303 267 244 q 428 410 428 361 q 414 442 428 428 q 382 456 400 456 q 241 374 317 456 q 154 206 165 293 m 508 640 l 271 563 l 231 588 l 414 696 l 508 640 z "},"ê":{"ha":557,"x_min":28,"x_max":529,"o":"m 417 164 l 449 139 q 331 40 406 79 q 185 0 256 0 q 71 42 114 0 q 28 151 28 83 q 163 403 28 279 q 438 526 299 526 q 529 454 529 526 q 433 303 529 379 q 161 164 336 226 q 200 114 174 132 q 254 96 226 96 q 417 164 314 96 m 154 206 q 347 303 267 244 q 428 410 428 361 q 414 442 428 428 q 382 456 400 456 q 241 374 317 456 q 154 206 165 293 m 144 588 l 349 746 q 528 596 499 626 l 486 563 q 343 651 368 633 l 206 554 l 144 588 z "},"ë":{"ha":557,"x_min":28,"x_max":529,"o":"m 417 164 l 449 139 q 331 40 406 79 q 185 0 256 0 q 71 42 114 0 q 28 151 28 83 q 163 403 28 279 q 438 526 299 526 q 529 454 529 526 q 433 303 529 379 q 161 164 336 226 q 200 114 174 132 q 254 96 226 96 q 417 164 314 96 m 154 206 q 347 303 267 244 q 428 410 428 361 q 414 442 428 428 q 382 456 400 456 q 241 374 317 456 q 154 206 165 293 m 237 596 q 229 603 237 596 q 221 635 221 611 q 237 674 221 658 q 275 690 253 690 q 314 674 297 690 q 331 635 331 658 q 315 597 331 613 q 276 581 299 581 q 237 596 253 581 m 413 596 q 405 603 413 596 q 397 635 397 611 q 413 674 397 658 q 452 690 429 690 q 491 674 475 690 q 507 635 507 658 q 491 597 507 613 q 451 581 475 581 q 413 596 428 581 z "},"ì":{"ha":400,"x_min":56,"x_max":342,"o":"m 301 565 l 64 643 l 158 699 l 342 590 l 301 565 m 293 179 l 321 156 q 233 47 288 92 q 133 1 178 1 q 56 110 56 1 q 167 461 56 244 q 196 517 192 508 l 256 481 q 184 313 226 428 q 142 165 142 197 q 156 118 142 132 q 189 104 169 104 q 293 179 226 104 z "},"í":{"ha":400,"x_min":56,"x_max":379,"o":"m 293 179 l 321 156 q 233 47 288 92 q 133 1 178 1 q 56 110 56 1 q 167 461 56 244 q 196 517 192 508 l 256 481 q 184 313 226 428 q 142 165 142 197 q 156 118 142 132 q 189 104 169 104 q 293 179 226 104 m 379 643 l 142 565 l 101 590 l 285 699 l 379 643 z "},"î":{"ha":400,"x_min":25,"x_max":408,"o":"m 293 179 l 321 156 q 233 47 288 92 q 133 1 178 1 q 56 110 56 1 q 167 461 56 244 q 196 517 192 508 l 256 481 q 184 313 226 428 q 142 165 142 197 q 156 118 142 132 q 189 104 169 104 q 293 179 226 104 m 25 574 l 229 732 q 408 582 379 613 l 367 549 q 224 638 249 619 l 86 540 l 25 574 z "},"ï":{"ha":400,"x_min":56,"x_max":369,"o":"m 293 179 l 321 156 q 233 47 288 92 q 133 1 178 1 q 56 110 56 1 q 167 461 56 244 q 196 517 192 508 l 256 481 q 184 313 226 428 q 142 165 142 197 q 156 118 142 132 q 189 104 169 104 q 293 179 226 104 m 99 588 q 91 595 99 588 q 83 626 83 603 q 99 666 83 650 q 138 682 115 682 q 177 666 161 682 q 193 627 193 650 q 177 588 193 604 q 138 572 161 572 q 99 588 114 572 m 276 588 q 268 595 276 588 q 260 626 260 603 q 276 666 260 650 q 314 682 292 682 q 353 666 336 682 q 369 627 369 650 q 353 588 369 604 q 315 572 338 572 q 276 588 292 572 z "},"ð":{"ha":515,"x_min":22,"x_max":469,"o":"m 414 733 l 438 665 l 322 636 q 432 456 394 536 q 469 285 469 375 q 387 83 469 165 q 193 1 304 1 q 67 48 113 1 q 22 183 22 94 q 79 357 22 271 q 224 486 136 443 l 242 432 q 135 243 135 365 q 164 147 135 183 q 246 110 193 110 q 343 149 299 110 q 388 263 388 189 q 350 419 388 336 q 238 615 313 501 l 97 581 l 72 653 q 193 688 119 669 l 136 771 l 175 868 q 274 707 182 854 q 414 733 318 717 z "},"ñ":{"ha":672,"x_min":19,"x_max":639,"o":"m 610 168 l 639 146 q 555 43 608 85 q 458 1 501 1 q 390 26 415 1 q 365 89 365 51 q 413 220 365 126 q 461 358 461 314 q 445 394 461 378 q 407 410 429 410 q 264 302 336 410 q 103 -8 192 194 l 19 21 q 95 335 46 182 q 186 556 144 489 l 243 538 q 144 197 204 439 q 497 525 336 525 q 555 501 532 525 q 578 446 578 478 q 569 388 578 414 q 517 269 561 363 q 474 151 474 175 q 488 115 474 128 q 514 101 501 101 q 535 106 526 101 q 553 118 543 110 q 572 133 564 126 q 592 152 581 140 q 610 168 604 164 m 493 690 l 525 664 q 465 593 499 622 q 402 564 431 564 q 340 612 374 564 q 279 660 307 660 q 251 650 265 660 q 230 635 238 640 q 208 618 222 629 q 186 601 194 607 l 147 638 q 285 728 250 728 q 361 679 321 728 q 422 631 401 631 q 459 656 436 631 q 493 690 482 681 z "},"ò":{"ha":488,"x_min":28,"x_max":460,"o":"m 424 413 q 460 281 460 353 q 382 80 460 168 q 199 -8 304 -8 q 73 38 118 -8 q 28 167 28 85 q 131 403 28 299 q 361 508 233 508 q 394 507 385 508 l 399 461 q 214 397 288 461 q 140 233 140 333 q 169 137 140 174 q 255 100 199 100 q 344 150 311 100 q 378 267 378 200 q 351 390 378 335 l 424 413 m 381 547 l 143 625 l 238 681 l 421 572 l 381 547 z "},"ó":{"ha":488,"x_min":28,"x_max":460,"o":"m 424 413 q 460 281 460 353 q 382 80 460 168 q 199 -8 304 -8 q 73 38 118 -8 q 28 167 28 85 q 131 403 28 299 q 361 508 233 508 q 394 507 385 508 l 399 461 q 214 397 288 461 q 140 233 140 333 q 169 137 140 174 q 255 100 199 100 q 344 150 311 100 q 378 267 378 200 q 351 390 378 335 l 424 413 m 425 624 l 188 546 l 147 571 l 331 679 l 425 624 z "},"ô":{"ha":488,"x_min":28,"x_max":478,"o":"m 424 413 q 460 281 460 353 q 382 80 460 168 q 199 -8 304 -8 q 73 38 118 -8 q 28 167 28 85 q 131 403 28 299 q 361 508 233 508 q 394 507 385 508 l 399 461 q 214 397 288 461 q 140 233 140 333 q 169 137 140 174 q 255 100 199 100 q 344 150 311 100 q 378 267 378 200 q 351 390 378 335 l 424 413 m 94 565 l 299 724 q 478 574 449 604 l 436 540 q 293 629 318 611 l 156 532 l 94 565 z "},"õ":{"ha":488,"x_min":28,"x_max":469,"o":"m 424 413 q 460 281 460 353 q 382 80 460 168 q 199 -8 304 -8 q 73 38 118 -8 q 28 167 28 85 q 131 403 28 299 q 361 508 233 508 q 394 507 385 508 l 399 461 q 214 397 288 461 q 140 233 140 333 q 169 137 140 174 q 255 100 199 100 q 344 150 311 100 q 378 267 378 200 q 351 390 378 335 l 424 413 m 438 692 l 469 665 q 409 594 443 624 q 347 565 375 565 q 285 613 318 565 q 224 661 251 661 q 196 651 210 661 q 174 636 182 642 q 153 619 167 631 q 131 603 139 608 l 92 639 q 230 729 194 729 q 306 681 265 729 q 367 632 346 632 q 403 657 381 632 q 438 692 426 682 z "},"ö":{"ha":488,"x_min":28,"x_max":460,"o":"m 424 413 q 460 281 460 353 q 382 80 460 168 q 199 -8 304 -8 q 73 38 118 -8 q 28 167 28 85 q 131 403 28 299 q 361 508 233 508 q 394 507 385 508 l 399 461 q 214 397 288 461 q 140 233 140 333 q 169 137 140 174 q 255 100 199 100 q 344 150 311 100 q 378 267 378 200 q 351 390 378 335 l 424 413 m 170 579 q 162 587 170 579 q 154 618 154 594 q 170 658 154 642 q 208 674 186 674 q 247 658 231 674 q 264 619 264 642 q 248 580 264 596 q 209 564 232 564 q 170 579 186 564 m 346 579 q 338 587 346 579 q 331 618 331 594 q 347 658 331 642 q 385 674 363 674 q 424 658 408 674 q 440 619 440 642 q 424 580 440 596 q 385 564 408 564 q 346 579 361 564 z "},"÷":{"ha":350,"x_min":-1,"x_max":335,"o":"m 335 406 l 335 340 l 15 299 l -1 374 q 335 406 119 397 m 179 451 q 167 451 179 451 q 140 467 156 451 q 126 506 125 483 q 141 545 126 529 q 179 561 156 561 q 219 544 203 561 q 235 506 235 528 q 219 467 235 483 q 179 451 203 451 m 131 168 q 123 176 131 168 q 115 207 115 183 q 131 247 115 231 q 169 263 147 263 q 208 247 192 263 q 225 208 225 231 q 209 169 225 185 q 170 153 193 153 q 131 168 147 153 z "},"ø":{"ha":543,"x_min":56,"x_max":488,"o":"m 365 507 l 389 508 q 422 507 413 508 l 426 461 q 351 451 393 461 q 290 101 310 288 q 372 152 339 108 q 406 257 406 196 q 394 330 406 288 q 379 390 383 372 l 451 413 q 478 353 468 392 q 488 290 488 314 q 429 103 488 185 q 282 -1 371 21 q 278 -111 278 -60 l 231 -125 q 238 -8 232 -78 l 226 -8 q 101 38 146 -8 q 56 167 56 85 q 131 372 56 276 q 311 497 206 467 q 360 668 335 590 l 414 656 q 365 507 385 578 m 296 433 q 202 352 236 404 q 168 242 168 300 q 246 104 168 125 q 296 433 263 283 z "},"ù":{"ha":639,"x_min":31,"x_max":614,"o":"m 585 153 l 614 129 q 540 31 590 71 q 448 -10 489 -10 q 383 19 407 -10 q 360 93 360 47 q 375 211 360 139 q 235 50 310 108 q 108 -8 160 -8 q 31 103 31 -8 q 94 344 31 197 q 188 515 158 492 l 254 486 q 168 306 197 394 q 139 187 139 217 q 158 139 139 157 q 201 121 176 121 q 340 223 257 121 q 508 528 422 325 l 579 496 q 516 335 576 485 q 456 155 456 185 q 469 110 456 125 q 495 94 482 94 q 515 96 508 94 q 529 101 522 97 q 541 108 536 106 q 553 118 546 111 l 564 128 q 574 141 567 132 q 585 153 582 150 m 461 551 l 224 629 l 318 685 l 501 576 l 461 551 z "},"ú":{"ha":639,"x_min":31,"x_max":614,"o":"m 585 153 l 614 129 q 540 31 590 71 q 448 -10 489 -10 q 383 19 407 -10 q 360 93 360 47 q 375 211 360 139 q 235 50 310 108 q 108 -8 160 -8 q 31 103 31 -8 q 94 344 31 197 q 188 515 158 492 l 254 486 q 168 306 197 394 q 139 187 139 217 q 158 139 139 157 q 201 121 176 121 q 340 223 257 121 q 508 528 422 325 l 579 496 q 516 335 576 485 q 456 155 456 185 q 469 110 456 125 q 495 94 482 94 q 515 96 508 94 q 529 101 522 97 q 541 108 536 106 q 553 118 546 111 l 564 128 q 574 141 567 132 q 585 153 582 150 m 507 633 l 269 556 l 229 581 l 413 689 l 507 633 z "},"û":{"ha":639,"x_min":31,"x_max":614,"o":"m 585 153 l 614 129 q 540 31 590 71 q 448 -10 489 -10 q 383 19 407 -10 q 360 93 360 47 q 375 211 360 139 q 235 50 310 108 q 108 -8 160 -8 q 31 103 31 -8 q 94 344 31 197 q 188 515 158 492 l 254 486 q 168 306 197 394 q 139 187 139 217 q 158 139 139 157 q 201 121 176 121 q 340 223 257 121 q 508 528 422 325 l 579 496 q 516 335 576 485 q 456 155 456 185 q 469 110 456 125 q 495 94 482 94 q 515 96 508 94 q 529 101 522 97 q 541 108 536 106 q 553 118 546 111 l 564 128 q 574 141 567 132 q 585 153 582 150 m 179 578 l 383 736 q 563 586 533 617 l 521 553 q 378 642 403 624 l 240 544 l 179 578 z "},"ü":{"ha":639,"x_min":31,"x_max":614,"o":"m 585 153 l 614 129 q 540 31 590 71 q 448 -10 489 -10 q 383 19 407 -10 q 360 93 360 47 q 375 211 360 139 q 235 50 310 108 q 108 -8 160 -8 q 31 103 31 -8 q 94 344 31 197 q 188 515 158 492 l 254 486 q 168 306 197 394 q 139 187 139 217 q 158 139 139 157 q 201 121 176 121 q 340 223 257 121 q 508 528 422 325 l 579 496 q 516 335 576 485 q 456 155 456 185 q 469 110 456 125 q 495 94 482 94 q 515 96 508 94 q 529 101 522 97 q 541 108 536 106 q 553 118 546 111 l 564 128 q 574 141 567 132 q 585 153 582 150 m 265 590 q 257 598 265 590 q 249 629 249 606 q 265 669 249 653 q 303 685 281 685 q 342 669 325 685 q 358 630 358 653 q 342 591 358 607 q 303 575 326 575 q 265 590 281 575 m 440 590 q 433 598 440 590 q 425 629 425 606 q 441 669 425 653 q 480 685 457 685 q 519 669 503 685 q 535 630 535 653 q 519 591 535 607 q 479 575 503 575 q 440 590 456 575 z "},"ý":{"ha":654,"x_min":4,"x_max":603,"o":"m 599 88 l 603 51 q 474 1 597 47 q 431 -180 457 -90 q 380 -316 406 -269 q 319 -408 354 -362 q 132 -500 250 -500 q 39 -464 74 -500 q 4 -365 4 -428 q 407 21 4 -125 l 482 285 q 267 64 363 106 q 167 42 219 42 q 84 75 115 42 q 53 172 53 108 q 97 351 53 236 q 194 543 140 465 l 263 514 q 224 440 258 510 q 163 253 163 314 q 186 171 163 192 q 256 150 210 150 q 359 205 301 150 q 538 422 417 260 l 588 393 q 538 227 576 347 q 486 43 500 107 l 599 88 m 399 -21 q 244 -112 311 -61 q 119 -296 119 -207 q 139 -350 119 -329 q 188 -371 158 -371 q 399 -21 326 -371 m 581 625 l 343 547 l 303 572 l 486 681 l 581 625 z "},"þ":{"ha":715,"x_min":-7,"x_max":676,"o":"m 235 256 q 418 472 340 414 q 554 529 496 529 q 644 494 613 529 q 676 404 676 458 q 569 127 676 254 q 326 0 461 0 q 232 21 267 0 l 265 81 q 356 71 339 71 q 496 158 431 71 q 561 338 561 246 q 541 395 561 372 q 489 418 521 418 q 337 320 411 418 q 202 67 263 222 q 76 -321 142 -89 l -7 -292 q 49 -83 -1 -236 q 188 597 188 342 q 176 744 188 667 l 246 779 q 281 619 281 694 q 260 423 281 543 q 235 256 240 303 z "},"ÿ":{"ha":654,"x_min":4,"x_max":606,"o":"m 599 88 l 603 51 q 474 1 597 47 q 431 -180 457 -90 q 380 -316 406 -269 q 319 -408 354 -362 q 132 -500 250 -500 q 39 -464 74 -500 q 4 -365 4 -428 q 407 21 4 -125 l 482 285 q 267 64 363 106 q 167 42 219 42 q 84 75 115 42 q 53 172 53 108 q 97 351 53 236 q 194 543 140 465 l 263 514 q 224 440 258 510 q 163 253 163 314 q 186 171 163 192 q 256 150 210 150 q 359 205 301 150 q 538 422 417 260 l 588 393 q 538 227 576 347 q 486 43 500 107 l 599 88 m 399 -21 q 244 -112 311 -61 q 119 -296 119 -207 q 139 -350 119 -329 q 188 -371 158 -371 q 399 -21 326 -371 m 374 540 q 362 540 374 540 q 335 556 350 540 q 319 595 319 572 q 335 634 319 618 q 374 650 351 650 q 413 633 397 650 q 429 594 429 617 q 413 556 429 572 q 374 540 397 540 m 551 540 q 539 540 551 540 q 512 556 528 540 q 496 595 496 572 q 512 634 496 618 q 550 650 528 650 q 589 633 572 650 q 606 594 606 617 q 590 556 606 572 q 551 540 574 540 z "},"Ā":{"ha":1083,"x_min":-139,"x_max":1049,"o":"m 1029 414 l 1022 331 q 953 333 990 333 q 892 332 917 333 q 867 0 872 179 l 769 0 q 761 96 761 36 q 765 199 761 156 q 774 286 768 243 q 779 336 779 329 q 688 338 760 338 q 588 335 615 338 q 290 6 426 118 q 18 -106 154 -106 q -94 -65 -49 -106 q -139 42 -139 -25 q 53 272 -139 168 q 551 413 246 376 q 686 584 588 468 q 881 786 785 700 q 947 922 922 883 q 994 960 971 960 q 1033 942 1018 960 q 1049 895 1049 924 q 1017 812 1049 867 q 953 642 986 757 q 907 426 919 528 q 1029 414 979 426 m 321 124 q 494 332 436 233 q 134 244 261 318 q 7 88 7 171 q 31 31 7 51 q 96 10 56 10 q 321 124 204 10 m 796 426 q 822 545 806 474 q 840 629 838 617 q 747 535 774 565 q 654 421 721 506 q 712 423 678 422 q 768 425 746 424 q 796 426 790 426 m 1017 1082 l 1017 1032 l 771 1024 l 758 1067 q 1017 1082 804 1076 z "},"ā":{"ha":638,"x_min":11,"x_max":635,"o":"m 603 140 l 635 117 q 563 38 615 75 q 468 0 511 0 q 386 86 386 0 q 407 182 386 126 l 356 129 q 226 26 281 53 q 118 0 171 0 q 38 30 65 0 q 11 113 11 60 q 86 305 11 210 q 278 460 161 400 q 511 521 394 519 l 514 475 l 456 463 q 233 351 329 435 q 136 185 136 268 q 203 103 136 103 q 357 190 265 103 q 510 396 449 278 l 568 361 q 482 140 482 188 q 495 108 482 121 q 522 94 508 94 q 539 96 535 94 q 547 99 543 97 q 558 106 551 101 q 569 114 564 110 q 585 126 574 118 q 603 140 596 135 m 571 668 l 571 618 l 325 610 l 313 653 q 571 668 358 663 z "},"Ă":{"ha":1125,"x_min":-118,"x_max":1085,"o":"m 1050 414 l 1043 331 q 974 333 1011 333 q 913 332 938 333 q 888 0 893 179 l 790 0 q 782 96 782 36 q 785 199 782 156 q 794 286 789 243 q 800 336 800 329 q 708 338 781 338 q 608 335 636 338 q 311 6 447 118 q 39 -106 175 -106 q -73 -65 -28 -106 q -118 42 -118 -25 q 74 272 -118 168 q 572 413 267 376 q 707 584 608 468 q 901 786 806 700 q 967 922 943 883 q 1015 960 992 960 q 1054 942 1039 960 q 1069 895 1069 924 q 1038 812 1069 867 q 974 642 1007 757 q 928 426 940 528 q 1050 414 1000 426 m 342 124 q 515 332 457 233 q 155 244 282 318 q 28 88 28 171 q 52 31 28 51 q 117 10 76 10 q 342 124 225 10 m 817 426 q 842 545 826 474 q 861 629 858 617 q 768 535 794 565 q 675 421 742 506 q 733 423 699 422 q 789 425 767 424 q 817 426 811 426 m 1043 1125 l 1085 1103 q 1013 1026 1057 1060 q 926 993 969 993 q 836 1026 883 993 q 760 1092 789 1058 l 804 1129 q 922 1058 876 1058 q 1043 1125 993 1058 z "},"ă":{"ha":679,"x_min":32,"x_max":656,"o":"m 624 140 l 656 117 q 584 38 636 75 q 489 0 532 0 q 407 86 407 0 q 428 182 407 126 l 376 129 q 247 26 301 53 q 139 0 192 0 q 59 30 86 0 q 32 113 32 60 q 107 305 32 210 q 299 460 182 400 q 532 521 415 519 l 535 475 l 476 463 q 253 351 350 435 q 157 185 157 268 q 224 103 157 103 q 378 190 286 103 q 531 396 469 278 l 589 361 q 503 140 503 188 q 516 108 503 121 q 542 94 529 94 q 560 96 556 94 q 568 99 564 97 q 578 106 572 101 q 590 114 585 110 q 606 126 594 118 q 624 140 617 135 m 590 707 l 632 685 q 560 608 604 642 q 474 575 517 575 q 383 608 431 575 q 307 674 336 640 l 351 711 q 469 640 424 640 q 590 707 540 640 z "},"Ą":{"ha":1125,"x_min":-118,"x_max":1069,"o":"m 949 -97 l 976 -119 q 862 -218 935 -175 q 745 -261 789 -261 q 678 -242 701 -261 q 656 -197 656 -224 q 696 -78 656 -143 q 785 31 736 -14 q 782 108 782 61 q 785 199 782 156 q 794 286 789 243 q 800 336 800 329 q 708 338 781 338 q 608 335 636 338 q 311 6 447 118 q 39 -106 175 -106 q -73 -65 -28 -106 q -118 42 -118 -25 q 74 272 -118 168 q 572 413 267 376 q 707 584 608 468 q 901 786 806 700 q 967 922 943 883 q 1015 960 992 960 q 1054 942 1039 960 q 1069 895 1069 924 q 1038 812 1069 867 q 974 642 1007 757 q 928 426 940 528 q 1050 414 1000 426 l 1043 331 q 974 333 1011 333 q 913 332 938 333 q 888 0 893 179 l 833 0 q 775 -121 775 -81 q 785 -143 775 -132 q 817 -154 794 -154 q 949 -97 867 -154 m 342 124 q 515 332 457 233 q 155 244 282 318 q 28 88 28 171 q 52 31 28 51 q 117 10 76 10 q 342 124 225 10 m 817 426 q 842 545 826 474 q 861 629 858 617 q 768 535 794 565 q 675 421 742 506 q 733 423 699 422 q 789 425 767 424 q 817 426 811 426 z "},"ą":{"ha":679,"x_min":32,"x_max":656,"o":"m 583 -93 l 611 -115 q 497 -214 569 -171 q 380 -257 424 -257 q 313 -238 336 -257 q 290 -193 290 -219 q 330 -74 290 -139 q 418 33 369 -10 q 407 90 407 54 q 428 182 407 126 l 376 129 q 247 26 301 53 q 139 0 192 0 q 59 30 86 0 q 32 113 32 60 q 107 305 32 210 q 299 460 182 400 q 532 521 415 519 l 535 475 l 476 463 q 253 351 350 435 q 157 185 157 268 q 224 103 157 103 q 378 190 286 103 q 531 396 469 278 l 589 361 q 503 140 503 188 q 516 108 503 121 q 542 94 529 94 q 560 96 556 94 q 568 99 564 97 q 578 106 572 101 q 590 114 585 110 q 606 126 594 118 q 624 140 617 135 l 656 117 q 584 38 636 75 q 489 0 532 0 q 467 1 474 0 q 426 -66 443 -31 q 410 -115 410 -101 q 419 -139 410 -128 q 451 -150 429 -150 q 583 -93 501 -150 z "},"Ć":{"ha":872,"x_min":56,"x_max":817,"o":"m 708 878 q 788 849 760 878 q 817 772 817 821 q 688 572 817 664 q 393 479 558 479 q 240 500 321 479 q 188 313 188 414 q 243 151 188 213 q 406 89 299 89 q 657 313 597 89 l 722 313 q 601 85 707 183 q 321 -14 494 -14 q 150 53 229 -14 q 71 249 71 121 q 168 528 71 376 q 56 631 97 569 l 93 672 q 119 643 103 663 q 206 578 151 606 q 444 785 288 692 q 708 878 600 878 m 389 535 q 601 592 510 535 q 693 725 693 649 q 674 767 693 751 q 626 783 656 783 q 438 716 542 783 q 272 554 333 649 q 389 535 322 535 m 728 1006 l 490 928 l 450 953 l 633 1061 l 728 1006 z "},"ć":{"ha":535,"x_min":29,"x_max":526,"o":"m 404 197 l 438 169 q 331 47 404 93 q 188 1 257 1 q 74 44 119 1 q 29 163 29 88 q 94 325 29 238 q 263 469 160 413 q 467 526 367 526 q 508 524 481 526 l 504 469 q 251 376 351 463 q 150 193 150 290 q 175 128 150 153 q 240 103 200 103 q 404 197 304 103 m 526 644 l 289 567 l 249 592 l 432 700 l 526 644 z "},"Ĉ":{"ha":831,"x_min":35,"x_max":796,"o":"m 688 878 q 767 849 739 878 q 796 772 796 821 q 667 572 796 664 q 372 479 538 479 q 219 500 300 479 q 167 313 167 414 q 222 151 167 213 q 385 89 278 89 q 636 313 576 89 l 701 313 q 580 85 686 183 q 300 -14 474 -14 q 129 53 208 -14 q 50 249 50 121 q 147 528 50 376 q 35 631 76 569 l 72 672 q 99 643 82 663 q 185 578 131 606 q 423 785 267 692 q 688 878 579 878 m 368 535 q 581 592 489 535 q 672 725 672 649 q 653 767 672 751 q 606 783 635 783 q 417 716 521 783 q 251 554 313 649 q 368 535 301 535 m 382 938 l 586 1096 q 765 946 736 976 l 724 913 q 581 1001 606 983 l 443 904 l 382 938 z "},"ĉ":{"ha":493,"x_min":8,"x_max":501,"o":"m 383 197 l 417 169 q 310 47 383 93 q 167 1 236 1 q 53 44 99 1 q 8 163 8 88 q 74 325 8 238 q 242 469 139 413 q 446 526 346 526 q 488 524 460 526 l 483 469 q 230 376 331 463 q 129 193 129 290 q 155 128 129 153 q 219 103 181 103 q 383 197 283 103 m 118 597 l 322 756 q 501 606 472 636 l 460 572 q 317 661 342 643 l 179 564 l 118 597 z "},"Ċ":{"ha":831,"x_min":35,"x_max":796,"o":"m 688 878 q 767 849 739 878 q 796 772 796 821 q 667 572 796 664 q 372 479 538 479 q 219 500 300 479 q 167 313 167 414 q 222 151 167 213 q 385 89 278 89 q 636 313 576 89 l 701 313 q 580 85 686 183 q 300 -14 474 -14 q 129 53 208 -14 q 50 249 50 121 q 147 528 50 376 q 35 631 76 569 l 72 672 q 99 643 82 663 q 185 578 131 606 q 423 785 267 692 q 688 878 579 878 m 368 535 q 581 592 489 535 q 672 725 672 649 q 653 767 672 751 q 606 783 635 783 q 417 716 521 783 q 251 554 313 649 q 368 535 301 535 m 545 982 q 537 990 545 982 q 529 1021 529 997 q 545 1060 529 1044 q 583 1076 561 1076 q 622 1060 606 1076 q 639 1022 639 1044 q 623 983 639 999 q 584 967 607 967 q 545 982 561 967 z "},"ċ":{"ha":493,"x_min":8,"x_max":488,"o":"m 383 197 l 417 169 q 310 47 383 93 q 167 1 236 1 q 53 44 99 1 q 8 163 8 88 q 74 325 8 238 q 242 469 139 413 q 446 526 346 526 q 488 524 460 526 l 483 469 q 230 376 331 463 q 129 193 129 290 q 155 128 129 153 q 219 103 181 103 q 383 197 283 103 m 379 607 q 367 607 379 607 q 340 623 356 607 q 325 662 325 639 q 341 701 325 685 q 380 717 357 717 q 419 700 403 717 q 435 661 435 683 q 419 623 435 639 q 379 607 403 607 z "},"Č":{"ha":872,"x_min":56,"x_max":817,"o":"m 708 878 q 788 849 760 878 q 817 772 817 821 q 688 572 817 664 q 393 479 558 479 q 240 500 321 479 q 188 313 188 414 q 243 151 188 213 q 406 89 299 89 q 657 313 597 89 l 722 313 q 601 85 707 183 q 321 -14 494 -14 q 150 53 229 -14 q 71 249 71 121 q 168 528 71 376 q 56 631 97 569 l 93 672 q 119 643 103 663 q 206 578 151 606 q 444 785 288 692 q 708 878 600 878 m 389 535 q 601 592 510 535 q 693 725 693 649 q 674 767 693 751 q 626 783 656 783 q 438 716 542 783 q 272 554 333 649 q 389 535 322 535 m 604 924 l 400 1082 l 461 1115 q 599 1018 538 1057 q 742 1107 624 1036 l 783 1074 q 642 954 763 1050 l 604 924 z "},"č":{"ha":535,"x_min":29,"x_max":544,"o":"m 404 197 l 438 169 q 331 47 404 93 q 188 1 257 1 q 74 44 119 1 q 29 163 29 88 q 94 325 29 238 q 263 469 160 413 q 467 526 367 526 q 508 524 481 526 l 504 469 q 251 376 351 463 q 150 193 150 290 q 175 128 150 153 q 240 103 200 103 q 404 197 304 103 m 365 564 l 161 722 l 222 756 q 360 658 299 697 q 503 747 385 676 l 544 714 q 403 594 524 690 l 365 564 z "},"Ď":{"ha":978,"x_min":0,"x_max":922,"o":"m 338 886 q 751 743 579 886 q 922 408 922 600 q 806 106 922 217 q 510 -3 689 -6 q 357 -1 414 -1 l 292 -1 q 251 29 251 -1 q 275 86 251 40 q 393 404 353 242 q 125 483 250 404 q 0 663 0 563 q 94 825 0 764 q 338 886 189 886 m 332 829 q 188 790 240 829 q 135 676 135 751 q 208 541 135 600 q 403 467 281 482 q 453 701 446 649 l 536 693 q 500 465 536 607 q 629 479 511 465 l 636 433 q 482 404 608 424 q 369 101 428 229 q 601 90 508 90 q 747 159 693 90 q 801 344 801 228 q 664 688 801 546 q 332 829 526 829 m 501 913 l 297 1071 l 358 1104 q 496 1007 435 1046 q 639 1096 521 1025 l 681 1063 q 539 943 660 1039 l 501 913 z "},"ď":{"ha":919,"x_min":22,"x_max":886,"o":"m 811 1026 l 882 1001 l 863 965 q 603 414 710 681 q 532 151 532 239 q 543 116 532 129 q 578 103 554 103 q 635 135 603 103 l 660 111 q 597 37 642 71 q 511 3 553 3 q 431 97 431 3 q 461 268 431 153 q 140 -18 297 -18 q 54 15 86 -18 q 22 106 22 49 q 94 293 22 196 q 272 452 167 390 q 469 514 378 514 l 474 465 q 251 362 354 450 q 147 182 147 274 q 168 120 147 143 q 222 97 189 97 q 400 243 290 97 q 492 397 440 296 q 576 560 544 499 q 637 681 607 622 q 715 837 667 740 q 811 1026 764 933 m 764 669 q 783 712 764 694 q 828 729 801 729 q 871 713 856 729 q 886 671 886 697 q 781 533 886 610 l 750 578 q 807 625 806 622 q 764 669 764 639 z "},"Đ":{"ha":1033,"x_min":56,"x_max":978,"o":"m 393 886 q 806 743 635 886 q 978 408 978 600 q 861 106 978 217 q 565 -3 744 -6 q 413 -1 469 -1 l 347 -1 q 307 29 307 -1 q 342 110 307 36 q 389 215 376 183 l 238 193 l 251 278 q 419 301 340 293 q 449 404 436 350 q 181 483 306 404 q 56 663 56 563 q 150 825 56 764 q 393 886 244 886 m 689 326 l 689 261 l 479 229 q 425 101 453 164 q 656 90 564 90 q 803 159 749 90 q 857 344 857 228 q 719 688 857 546 q 388 829 582 829 q 243 790 296 829 q 190 676 190 751 q 263 541 190 600 q 458 467 336 482 q 508 701 501 649 l 592 693 q 556 465 592 607 q 685 479 567 465 l 692 433 q 538 404 664 424 q 508 313 515 333 q 689 326 578 319 z "},"đ":{"ha":804,"x_min":22,"x_max":882,"o":"m 868 786 l 868 719 l 729 703 q 532 151 532 297 q 543 116 532 129 q 578 103 554 103 q 635 135 603 103 l 660 111 q 597 37 642 71 q 511 3 553 3 q 431 97 431 3 q 461 268 431 153 q 140 -18 297 -18 q 54 15 86 -18 q 22 106 22 49 q 94 293 22 196 q 272 452 167 390 q 469 514 378 514 l 474 465 q 251 362 354 450 q 147 182 147 274 q 168 120 147 143 q 222 97 189 97 q 400 243 290 97 q 470 355 432 283 q 643 693 508 426 l 513 679 l 493 756 q 685 776 590 771 l 811 1026 l 882 1001 l 867 975 q 824 892 853 947 q 768 782 796 836 l 868 786 z "},"Ē":{"ha":915,"x_min":35,"x_max":881,"o":"m 881 797 q 815 674 881 728 q 663 594 749 619 q 499 569 578 569 q 468 571 478 569 l 468 618 q 549 631 471 618 q 680 678 626 644 q 733 753 733 711 q 658 803 733 803 q 467 733 557 803 q 376 588 376 664 q 471 489 376 511 q 499 478 492 483 q 506 458 506 472 q 492 435 506 444 q 432 410 479 426 q 176 138 176 322 q 190 74 176 100 q 410 250 275 182 q 669 318 544 318 q 774 290 735 318 q 813 211 813 261 q 740 56 813 133 q 553 -72 668 -22 q 325 -121 439 -121 q 147 -79 211 -121 q 136 -100 146 -81 q 88 -178 107 -156 l 42 -158 q 99 -40 51 -119 q 35 122 35 32 q 108 292 35 211 q 311 426 181 374 q 246 539 246 481 q 329 701 246 618 q 533 835 413 783 q 758 886 653 886 q 847 862 814 886 q 881 797 881 838 m 589 235 q 398 172 507 235 q 221 24 289 110 q 378 -39 276 -39 q 578 27 481 -39 q 676 169 676 93 q 653 217 676 200 q 589 235 629 235 m 782 1049 l 782 999 l 536 990 l 524 1033 q 782 1049 569 1043 z "},"ē":{"ha":515,"x_min":7,"x_max":508,"o":"m 396 164 l 428 139 q 310 40 385 79 q 164 0 235 0 q 50 42 93 0 q 7 151 7 83 q 142 403 7 279 q 417 526 278 526 q 508 454 508 526 q 412 303 508 379 q 140 164 315 226 q 179 114 153 132 q 233 96 206 96 q 396 164 294 96 m 133 206 q 326 303 246 244 q 407 410 407 361 q 394 442 407 428 q 361 456 381 456 q 220 374 296 456 q 133 206 144 293 m 457 638 l 457 588 l 211 579 l 199 622 q 457 638 244 632 z "},"Ĕ":{"ha":915,"x_min":35,"x_max":881,"o":"m 881 797 q 815 674 881 728 q 663 594 749 619 q 499 569 578 569 q 468 571 478 569 l 468 618 q 549 631 471 618 q 680 678 626 644 q 733 753 733 711 q 658 803 733 803 q 467 733 557 803 q 376 588 376 664 q 471 489 376 511 q 499 478 492 483 q 506 458 506 472 q 492 435 506 444 q 432 410 479 426 q 176 138 176 322 q 190 74 176 100 q 410 250 275 182 q 669 318 544 318 q 774 290 735 318 q 813 211 813 261 q 740 56 813 133 q 553 -72 668 -22 q 325 -121 439 -121 q 147 -79 211 -121 q 136 -100 146 -81 q 88 -178 107 -156 l 42 -158 q 99 -40 51 -119 q 35 122 35 32 q 108 292 35 211 q 311 426 181 374 q 246 539 246 481 q 329 701 246 618 q 533 835 413 783 q 758 886 653 886 q 847 862 814 886 q 881 797 881 838 m 589 235 q 398 172 507 235 q 221 24 289 110 q 378 -39 276 -39 q 578 27 481 -39 q 676 169 676 93 q 653 217 676 200 q 589 235 629 235 m 803 1083 l 844 1061 q 773 985 817 1018 q 686 951 729 951 q 596 984 643 951 q 519 1050 549 1017 l 564 1088 q 682 1017 636 1017 q 803 1083 753 1017 z "},"ĕ":{"ha":515,"x_min":7,"x_max":508,"o":"m 396 164 l 428 139 q 310 40 385 79 q 164 0 235 0 q 50 42 93 0 q 7 151 7 83 q 142 403 7 279 q 417 526 278 526 q 508 454 508 526 q 412 303 508 379 q 140 164 315 226 q 179 114 153 132 q 233 96 206 96 q 396 164 294 96 m 133 206 q 326 303 246 244 q 407 410 407 361 q 394 442 407 428 q 361 456 381 456 q 220 374 296 456 q 133 206 144 293 m 438 714 l 479 692 q 408 615 451 649 q 321 582 364 582 q 231 615 278 582 q 154 681 183 647 l 199 718 q 317 647 271 647 q 438 714 388 647 z "},"Ė":{"ha":915,"x_min":35,"x_max":881,"o":"m 881 797 q 815 674 881 728 q 663 594 749 619 q 499 569 578 569 q 468 571 478 569 l 468 618 q 549 631 471 618 q 680 678 626 644 q 733 753 733 711 q 658 803 733 803 q 467 733 557 803 q 376 588 376 664 q 471 489 376 511 q 499 478 492 483 q 506 458 506 472 q 492 435 506 444 q 432 410 479 426 q 176 138 176 322 q 190 74 176 100 q 410 250 275 182 q 669 318 544 318 q 774 290 735 318 q 813 211 813 261 q 740 56 813 133 q 553 -72 668 -22 q 325 -121 439 -121 q 147 -79 211 -121 q 136 -100 146 -81 q 88 -178 107 -156 l 42 -158 q 99 -40 51 -119 q 35 122 35 32 q 108 292 35 211 q 311 426 181 374 q 246 539 246 481 q 329 701 246 618 q 533 835 413 783 q 758 886 653 886 q 847 862 814 886 q 881 797 881 838 m 589 235 q 398 172 507 235 q 221 24 289 110 q 378 -39 276 -39 q 578 27 481 -39 q 676 169 676 93 q 653 217 676 200 q 589 235 629 235 m 626 985 q 618 992 626 985 q 610 1024 610 1000 q 626 1063 610 1047 q 664 1079 642 1079 q 703 1063 686 1079 q 719 1024 719 1047 q 703 985 719 1001 q 665 969 688 969 q 626 985 642 969 z "},"ė":{"ha":515,"x_min":7,"x_max":508,"o":"m 396 164 l 428 139 q 310 40 385 79 q 164 0 235 0 q 50 42 93 0 q 7 151 7 83 q 142 403 7 279 q 417 526 278 526 q 508 454 508 526 q 412 303 508 379 q 140 164 315 226 q 179 114 153 132 q 233 96 206 96 q 396 164 294 96 m 133 206 q 326 303 246 244 q 407 410 407 361 q 394 442 407 428 q 361 456 381 456 q 220 374 296 456 q 133 206 144 293 m 313 604 q 305 612 313 604 q 297 643 297 619 q 313 683 297 667 q 352 699 329 699 q 391 683 375 699 q 407 644 407 667 q 391 605 407 621 q 351 589 375 589 q 313 604 328 589 z "},"Ę":{"ha":957,"x_min":13,"x_max":901,"o":"m 306 -142 l 333 -164 q 219 -262 292 -219 q 102 -306 146 -306 q 35 -287 58 -306 q 13 -242 13 -268 q 117 -37 13 -150 q 56 122 56 32 q 128 292 56 211 q 332 426 201 374 q 267 539 267 481 q 350 701 267 618 q 553 835 433 783 q 779 886 674 886 q 868 862 835 886 q 901 797 901 838 q 835 674 901 728 q 684 594 769 619 q 519 569 599 569 q 489 571 499 569 l 489 618 q 569 631 492 618 q 701 678 647 644 q 754 753 754 711 q 679 803 754 803 q 488 733 578 803 q 397 588 397 664 q 492 489 397 511 q 519 478 513 483 q 526 458 526 472 q 513 435 526 444 q 453 410 500 426 q 197 138 197 322 q 211 74 197 100 q 431 250 296 182 q 690 318 565 318 q 794 290 756 318 q 833 211 833 261 q 761 56 833 133 q 574 -72 689 -22 q 347 -121 460 -121 q 168 -79 233 -121 l 144 -122 q 132 -161 132 -146 q 142 -187 132 -176 q 174 -199 151 -199 q 306 -142 224 -199 m 610 235 q 419 172 528 235 q 242 24 310 110 q 399 -39 297 -39 q 599 27 501 -39 q 697 169 697 93 q 674 217 697 200 q 610 235 650 235 z "},"ę":{"ha":557,"x_min":21,"x_max":529,"o":"m 314 -103 l 342 -125 q 227 -224 300 -181 q 110 -267 154 -267 q 44 -248 67 -267 q 21 -203 21 -229 q 132 7 21 -107 q 56 58 83 21 q 28 151 28 96 q 163 403 28 279 q 438 526 299 526 q 529 454 529 526 q 433 303 529 379 q 161 164 336 226 q 200 114 174 132 q 254 96 226 96 q 417 164 314 96 l 449 139 q 339 44 408 83 q 203 0 269 6 q 158 -72 176 -33 q 140 -124 140 -110 q 150 -149 140 -137 q 182 -160 160 -160 q 314 -103 232 -160 m 154 206 q 347 303 267 244 q 428 410 428 361 q 414 442 428 428 q 382 456 400 456 q 241 374 317 456 q 154 206 165 293 z "},"Ě":{"ha":957,"x_min":56,"x_max":901,"o":"m 901 797 q 835 674 901 728 q 684 594 769 619 q 519 569 599 569 q 489 571 499 569 l 489 618 q 569 631 492 618 q 701 678 647 644 q 754 753 754 711 q 679 803 754 803 q 488 733 578 803 q 397 588 397 664 q 492 489 397 511 q 519 478 513 483 q 526 458 526 472 q 513 435 526 444 q 453 410 500 426 q 197 138 197 322 q 211 74 197 100 q 431 250 296 182 q 690 318 565 318 q 794 290 756 318 q 833 211 833 261 q 761 56 833 133 q 574 -72 689 -22 q 347 -121 460 -121 q 168 -79 233 -121 q 156 -100 167 -81 q 108 -178 128 -156 l 63 -158 q 119 -40 72 -119 q 56 122 56 32 q 128 292 56 211 q 332 426 201 374 q 267 539 267 481 q 350 701 267 618 q 553 835 433 783 q 779 886 674 886 q 868 862 835 886 q 901 797 901 838 m 610 235 q 419 172 528 235 q 242 24 310 110 q 399 -39 297 -39 q 599 27 501 -39 q 697 169 697 93 q 674 217 697 200 q 610 235 650 235 m 686 944 l 482 1103 l 543 1136 q 681 1039 619 1078 q 824 1128 706 1057 l 865 1094 q 725 975 844 1071 l 686 944 z "},"ě":{"ha":557,"x_min":28,"x_max":560,"o":"m 417 164 l 449 139 q 331 40 406 79 q 185 0 256 0 q 71 42 114 0 q 28 151 28 83 q 163 403 28 279 q 438 526 299 526 q 529 454 529 526 q 433 303 529 379 q 161 164 336 226 q 200 114 174 132 q 254 96 226 96 q 417 164 314 96 m 154 206 q 347 303 267 244 q 428 410 428 361 q 414 442 428 428 q 382 456 400 456 q 241 374 317 456 q 154 206 165 293 m 381 551 l 176 710 l 238 743 q 375 646 314 685 q 518 735 400 664 l 560 701 q 419 582 539 678 l 381 551 z "},"Ĝ":{"ha":929,"x_min":-132,"x_max":894,"o":"m 722 -11 l 701 -58 q 544 -33 565 -35 q 350 -325 476 -218 q 67 -432 224 -432 q -75 -386 -18 -432 q -132 -272 -132 -340 q 33 -62 -132 -153 q 432 28 197 28 q 481 26 464 28 q 521 139 506 79 q 331 79 431 79 q 163 151 231 79 q 96 340 96 222 q 174 587 96 457 q 381 801 253 717 q 643 886 510 886 q 790 859 721 886 q 894 794 860 832 l 819 704 q 739 764 763 749 q 608 806 678 806 q 343 667 465 806 q 221 367 221 529 q 271 226 221 278 q 402 175 321 175 q 549 214 483 175 q 699 426 629 426 q 739 388 739 426 q 709 298 739 349 q 632 207 679 247 q 565 24 575 54 q 722 -11 663 13 m 135 -337 q 322 -250 229 -337 q 461 -31 414 -162 q 144 -94 274 -31 q 14 -247 14 -157 q 47 -313 14 -289 q 135 -337 79 -337 m 382 986 l 586 1144 q 765 994 736 1025 l 724 961 q 581 1050 606 1032 l 443 953 l 382 986 z "},"ĝ":{"ha":610,"x_min":11,"x_max":607,"o":"m 606 50 l 607 17 q 481 -33 593 8 q 350 -417 436 -299 q 139 -535 264 -535 q 46 -497 81 -535 q 11 -400 11 -460 q 121 -177 11 -281 q 414 -14 231 -74 q 489 249 435 79 q 320 57 396 107 q 183 7 244 7 q 91 40 122 7 q 60 129 60 74 q 136 316 60 221 q 328 472 213 411 q 553 532 444 532 l 564 483 q 299 375 410 467 q 189 199 189 283 q 211 139 189 163 q 265 115 233 115 q 408 215 313 115 q 543 386 504 315 l 594 357 q 489 13 518 153 l 606 50 m 406 -56 q 206 -189 285 -111 q 126 -331 126 -267 q 146 -385 126 -364 q 194 -406 165 -406 q 310 -324 253 -406 q 406 -56 367 -242 m 218 615 l 422 774 q 601 624 572 654 l 560 590 q 417 679 442 661 l 279 582 l 218 615 z "},"Ğ":{"ha":971,"x_min":-111,"x_max":915,"o":"m 743 -11 l 722 -58 q 565 -33 586 -35 q 371 -325 497 -218 q 88 -432 244 -432 q -54 -386 3 -432 q -111 -272 -111 -340 q 53 -62 -111 -153 q 453 28 218 28 q 501 26 485 28 q 542 139 526 79 q 352 79 453 79 q 184 151 251 79 q 117 340 117 222 q 195 587 117 457 q 402 801 274 717 q 664 886 531 886 q 811 859 742 886 q 915 794 881 832 l 840 704 q 760 764 783 749 q 629 806 699 806 q 364 667 486 806 q 242 367 242 529 q 292 226 242 278 q 423 175 342 175 q 569 214 504 175 q 719 426 650 426 q 760 388 760 426 q 730 298 760 349 q 653 207 700 247 q 586 24 596 54 q 743 -11 683 13 m 156 -337 q 342 -250 250 -337 q 482 -31 435 -162 q 165 -94 294 -31 q 35 -247 35 -157 q 67 -313 35 -289 q 156 -337 100 -337 m 758 1093 l 800 1071 q 728 994 772 1028 q 642 961 685 961 q 551 994 599 961 q 475 1060 504 1026 l 519 1097 q 638 1026 592 1026 q 758 1093 708 1026 z "},"ğ":{"ha":651,"x_min":32,"x_max":628,"o":"m 626 50 l 628 17 q 501 -33 614 8 q 371 -417 457 -299 q 160 -535 285 -535 q 67 -497 101 -535 q 32 -400 32 -460 q 142 -177 32 -281 q 435 -14 251 -74 q 510 249 456 79 q 341 57 417 107 q 204 7 265 7 q 112 40 143 7 q 81 129 81 74 q 157 316 81 221 q 349 472 233 411 q 574 532 465 532 l 585 483 q 320 375 431 467 q 210 199 210 283 q 232 139 210 163 q 286 115 254 115 q 429 215 333 115 q 564 386 525 315 l 615 357 q 510 13 539 153 l 626 50 m 426 -56 q 226 -189 306 -111 q 147 -331 147 -267 q 167 -385 147 -364 q 215 -406 186 -406 q 331 -324 274 -406 q 426 -56 388 -242 m 569 714 l 611 692 q 540 615 583 649 q 453 582 496 582 q 363 615 410 582 q 286 681 315 647 l 331 718 q 449 647 403 647 q 569 714 519 647 z "},"Ġ":{"ha":929,"x_min":-132,"x_max":894,"o":"m 722 -11 l 701 -58 q 544 -33 565 -35 q 350 -325 476 -218 q 67 -432 224 -432 q -75 -386 -18 -432 q -132 -272 -132 -340 q 33 -62 -132 -153 q 432 28 197 28 q 481 26 464 28 q 521 139 506 79 q 331 79 431 79 q 163 151 231 79 q 96 340 96 222 q 174 587 96 457 q 381 801 253 717 q 643 886 510 886 q 790 859 721 886 q 894 794 860 832 l 819 704 q 739 764 763 749 q 608 806 678 806 q 343 667 465 806 q 221 367 221 529 q 271 226 221 278 q 402 175 321 175 q 549 214 483 175 q 699 426 629 426 q 739 388 739 426 q 709 298 739 349 q 632 207 679 247 q 565 24 575 54 q 722 -11 663 13 m 135 -337 q 322 -250 229 -337 q 461 -31 414 -162 q 144 -94 274 -31 q 14 -247 14 -157 q 47 -313 14 -289 q 135 -337 79 -337 m 588 968 q 576 968 588 968 q 549 984 564 968 q 533 1023 533 1000 q 549 1062 533 1046 q 588 1078 565 1078 q 627 1061 611 1078 q 643 1022 643 1044 q 627 984 643 1000 q 588 968 611 968 z "},"ġ":{"ha":610,"x_min":11,"x_max":607,"o":"m 606 50 l 607 17 q 481 -33 593 8 q 350 -417 436 -299 q 139 -535 264 -535 q 46 -497 81 -535 q 11 -400 11 -460 q 121 -177 11 -281 q 414 -14 231 -74 q 489 249 435 79 q 320 57 396 107 q 183 7 244 7 q 91 40 122 7 q 60 129 60 74 q 136 316 60 221 q 328 472 213 411 q 553 532 444 532 l 564 483 q 299 375 410 467 q 189 199 189 283 q 211 139 189 163 q 265 115 233 115 q 408 215 313 115 q 543 386 504 315 l 594 357 q 489 13 518 153 l 606 50 m 406 -56 q 206 -189 285 -111 q 126 -331 126 -267 q 146 -385 126 -364 q 194 -406 165 -406 q 310 -324 253 -406 q 406 -56 367 -242 m 451 579 q 439 579 451 579 q 412 595 428 579 q 396 634 396 611 q 412 673 396 657 q 450 689 428 689 q 489 672 472 689 q 506 633 506 656 q 490 595 506 611 q 451 579 474 579 z "},"Ģ":{"ha":929,"x_min":-132,"x_max":894,"o":"m 565 -183 q 584 -141 565 -158 q 630 -124 603 -124 q 672 -140 657 -124 q 688 -182 688 -156 q 582 -319 688 -243 l 551 -275 q 608 -228 607 -231 q 565 -183 565 -214 m 722 -11 l 701 -58 q 544 -33 565 -35 q 350 -325 476 -218 q 67 -432 224 -432 q -75 -386 -18 -432 q -132 -272 -132 -340 q 33 -62 -132 -153 q 432 28 197 28 q 481 26 464 28 q 521 139 506 79 q 331 79 431 79 q 163 151 231 79 q 96 340 96 222 q 174 587 96 457 q 381 801 253 717 q 643 886 510 886 q 790 859 721 886 q 894 794 860 832 l 819 704 q 739 764 763 749 q 608 806 678 806 q 343 667 465 806 q 221 367 221 529 q 271 226 221 278 q 402 175 321 175 q 549 214 483 175 q 699 426 629 426 q 739 388 739 426 q 709 298 739 349 q 632 207 679 247 q 565 24 575 54 q 722 -11 663 13 m 135 -337 q 322 -250 229 -337 q 461 -31 414 -162 q 144 -94 274 -31 q 14 -247 14 -157 q 47 -313 14 -289 q 135 -337 79 -337 z "},"ģ":{"ha":610,"x_min":11,"x_max":607,"o":"m 606 50 l 607 17 q 481 -33 593 8 q 350 -417 436 -299 q 139 -535 264 -535 q 46 -497 81 -535 q 11 -400 11 -460 q 121 -177 11 -281 q 414 -14 231 -74 q 489 249 435 79 q 320 57 396 107 q 183 7 244 7 q 91 40 122 7 q 60 129 60 74 q 136 316 60 221 q 328 472 213 411 q 553 532 444 532 l 564 483 q 299 375 410 467 q 189 199 189 283 q 211 139 189 163 q 265 115 233 115 q 408 215 313 115 q 543 386 504 315 l 594 357 q 489 13 518 153 l 606 50 m 406 -56 q 206 -189 285 -111 q 126 -331 126 -267 q 146 -385 126 -364 q 194 -406 165 -406 q 310 -324 253 -406 q 406 -56 367 -242 m 510 671 q 491 628 510 646 q 445 611 472 611 q 403 627 418 611 q 388 669 388 643 q 493 807 388 732 l 524 763 q 503 747 518 758 q 478 728 488 735 q 467 715 469 721 q 510 671 510 701 z "},"Ĥ":{"ha":1132,"x_min":-118,"x_max":1111,"o":"m 1049 885 l 1111 854 q 918 386 1018 672 q 1006 381 982 386 l 1000 301 q 886 292 971 292 q 851 161 857 211 q 842 64 846 111 q 838 0 839 17 l 760 0 q 753 49 753 24 q 799 292 753 135 q 546 272 715 292 q 511 190 539 250 q 456 85 483 129 q 383 -12 429 40 q 288 -101 338 -65 q 10 -204 144 -204 q -82 -169 -46 -204 q -118 -82 -118 -135 q 35 160 -118 51 q 461 335 189 269 q 750 763 564 635 q 418 694 549 760 q 288 528 288 629 q 297 473 288 496 q 343 401 307 450 l 296 357 q 203 451 235 396 q 171 558 171 507 q 263 717 171 644 q 490 830 354 790 q 767 869 626 869 q 865 859 838 869 q 892 820 892 849 q 851 767 892 792 q 572 356 678 658 q 826 386 654 369 q 934 674 893 581 q 1049 885 975 768 m 122 -108 q 147 -108 122 -108 q 241 -63 172 -108 q 356 55 310 -18 q 436 256 403 128 q 138 148 251 225 q 25 -26 25 71 q 48 -87 25 -65 q 122 -108 71 -108 m 636 976 l 840 1135 q 1019 985 990 1015 l 978 951 q 835 1040 860 1022 l 697 943 l 636 976 z "},"ĥ":{"ha":588,"x_min":1,"x_max":663,"o":"m 543 101 l 575 75 q 424 -22 517 -22 q 343 57 343 -22 q 383 203 343 103 q 422 336 422 304 q 371 376 422 376 q 231 266 319 376 q 83 10 143 156 l 1 39 q 379 1010 74 401 l 447 988 q 226 497 293 679 q 122 185 157 308 q 306 429 229 361 q 439 497 383 497 q 543 424 543 497 q 492 260 543 378 q 440 103 440 142 q 478 64 440 64 q 543 101 497 64 m 279 574 l 483 732 q 663 582 633 613 l 621 549 q 478 638 503 619 l 340 540 l 279 574 z "},"Ħ":{"ha":1132,"x_min":-132,"x_max":1097,"o":"m 1090 613 l 1090 547 l 960 538 q 904 386 935 475 q 992 381 968 386 l 986 301 q 872 292 957 292 q 838 161 843 211 q 828 64 832 111 q 824 0 825 17 l 746 0 q 739 49 739 24 q 785 292 739 135 q 532 272 701 292 q 497 190 525 250 q 442 85 469 129 q 369 -12 415 40 q 274 -101 324 -65 q -4 -204 131 -204 q -96 -169 -60 -204 q -132 -82 -132 -135 q 22 160 -132 51 q 447 335 175 269 q 517 500 482 435 l 408 483 l 383 532 q 468 552 408 538 q 556 571 528 567 q 736 763 633 693 q 404 694 535 760 q 274 528 274 629 q 283 473 274 496 q 329 401 293 450 l 282 357 q 189 451 221 396 q 157 558 157 507 q 249 717 157 644 q 476 830 340 790 q 753 869 613 869 q 851 859 824 869 q 878 820 878 849 q 838 767 878 792 q 665 586 740 706 q 892 606 779 601 q 1035 885 947 746 l 1097 854 q 988 610 1044 750 q 1090 613 1029 613 m 108 -108 q 133 -108 108 -108 q 227 -63 158 -108 q 342 55 296 -18 q 422 256 389 128 q 124 148 238 225 q 11 -26 11 71 q 34 -87 11 -65 q 108 -108 57 -108 m 813 386 q 863 529 838 460 l 622 508 q 558 356 588 439 q 813 386 640 369 z "},"ħ":{"ha":588,"x_min":1,"x_max":575,"o":"m 482 785 l 482 711 l 310 696 q 122 185 196 443 q 306 429 229 361 q 439 497 383 497 q 543 424 543 497 q 492 260 543 378 q 440 103 440 142 q 478 64 440 64 q 543 101 497 64 l 575 75 q 424 -22 517 -22 q 343 57 343 -22 q 383 203 343 103 q 422 336 422 304 q 371 376 422 376 q 231 266 319 376 q 83 10 143 156 l 1 39 q 228 693 53 301 l 82 682 l 64 746 q 263 771 172 767 q 379 1010 310 874 l 447 988 q 399 886 433 958 q 344 772 364 814 l 482 785 z "},"Ĩ":{"ha":800,"x_min":35,"x_max":835,"o":"m 811 856 q 835 831 835 849 q 819 806 835 825 q 728 683 754 724 q 667 549 703 643 q 603 367 632 454 q 575 279 575 281 q 418 78 518 151 q 208 4 318 4 q 83 42 131 4 q 35 144 35 81 q 164 328 35 244 q 422 411 293 411 l 428 365 q 251 289 325 344 q 176 168 176 233 q 201 100 176 126 q 263 74 225 74 q 385 140 333 74 q 490 374 436 206 q 587 619 543 542 q 697 750 631 697 q 654 751 678 751 q 422 714 535 751 q 308 614 308 676 q 343 540 308 575 l 313 503 q 219 654 219 568 q 269 753 219 711 q 400 817 318 794 q 760 860 561 860 q 811 856 803 860 m 740 1053 l 772 1026 q 712 956 746 985 q 649 926 678 926 q 588 974 621 926 q 526 1022 554 1022 q 499 1013 513 1022 q 477 997 485 1003 q 456 981 469 992 q 433 964 442 969 l 394 1000 q 533 1090 497 1090 q 608 1042 568 1090 q 669 993 649 993 q 706 1018 683 993 q 740 1053 729 1043 z "},"ĩ":{"ha":400,"x_min":11,"x_max":389,"o":"m 293 179 l 321 156 q 233 47 288 92 q 133 1 178 1 q 56 110 56 1 q 167 461 56 244 q 196 517 192 508 l 256 481 q 184 313 226 428 q 142 165 142 197 q 156 118 142 132 q 189 104 169 104 q 293 179 226 104 m 357 690 l 389 664 q 328 593 363 622 q 266 564 294 564 q 204 612 238 564 q 143 660 171 660 q 115 650 129 660 q 94 635 101 640 q 72 618 86 629 q 50 601 58 607 l 11 638 q 149 728 114 728 q 225 679 185 728 q 286 631 265 631 q 323 656 300 631 q 357 690 346 681 z "},"Ī":{"ha":800,"x_min":35,"x_max":835,"o":"m 811 856 q 835 831 835 849 q 819 806 835 825 q 728 683 754 724 q 667 549 703 643 q 603 367 632 454 q 575 279 575 281 q 418 78 518 151 q 208 4 318 4 q 83 42 131 4 q 35 144 35 81 q 164 328 35 244 q 422 411 293 411 l 428 365 q 251 289 325 344 q 176 168 176 233 q 201 100 176 126 q 263 74 225 74 q 385 140 333 74 q 490 374 436 206 q 587 619 543 542 q 697 750 631 697 q 654 751 678 751 q 422 714 535 751 q 308 614 308 676 q 343 540 308 575 l 313 503 q 219 654 219 568 q 269 753 219 711 q 400 817 318 794 q 760 860 561 860 q 811 856 803 860 m 768 992 l 768 942 l 522 933 l 510 976 q 768 992 556 986 z "},"ī":{"ha":400,"x_min":56,"x_max":329,"o":"m 293 179 l 321 156 q 233 47 288 92 q 133 1 178 1 q 56 110 56 1 q 167 461 56 244 q 196 517 192 508 l 256 481 q 184 313 226 428 q 142 165 142 197 q 156 118 142 132 q 189 104 169 104 q 293 179 226 104 m 329 646 l 329 596 l 83 588 l 71 631 q 329 646 117 640 z "},"Ĭ":{"ha":800,"x_min":35,"x_max":835,"o":"m 811 856 q 835 831 835 849 q 819 806 835 825 q 728 683 754 724 q 667 549 703 643 q 603 367 632 454 q 575 279 575 281 q 418 78 518 151 q 208 4 318 4 q 83 42 131 4 q 35 144 35 81 q 164 328 35 244 q 422 411 293 411 l 428 365 q 251 289 325 344 q 176 168 176 233 q 201 100 176 126 q 263 74 225 74 q 385 140 333 74 q 490 374 436 206 q 587 619 543 542 q 697 750 631 697 q 654 751 678 751 q 422 714 535 751 q 308 614 308 676 q 343 540 308 575 l 313 503 q 219 654 219 568 q 269 753 219 711 q 400 817 318 794 q 760 860 561 860 q 811 856 803 860 m 735 1092 l 776 1069 q 705 993 749 1026 q 618 960 661 960 q 528 992 575 960 q 451 1058 481 1025 l 496 1096 q 614 1025 568 1025 q 735 1092 685 1025 z "},"ĭ":{"ha":400,"x_min":56,"x_max":385,"o":"m 293 179 l 321 156 q 233 47 288 92 q 133 1 178 1 q 56 110 56 1 q 167 461 56 244 q 196 517 192 508 l 256 481 q 184 313 226 428 q 142 165 142 197 q 156 118 142 132 q 189 104 169 104 q 293 179 226 104 m 343 706 l 385 683 q 313 607 357 640 q 226 574 269 574 q 136 606 183 574 q 60 672 89 639 l 104 710 q 222 639 176 639 q 343 706 293 639 z "},"Į":{"ha":800,"x_min":35,"x_max":835,"o":"m 350 -101 l 378 -124 q 263 -222 336 -179 q 147 -265 190 -265 q 80 -247 103 -265 q 57 -201 57 -228 q 167 7 57 -106 q 70 53 106 17 q 35 144 35 90 q 164 328 35 244 q 422 411 293 411 l 428 365 q 251 289 325 344 q 176 168 176 233 q 201 100 176 126 q 263 74 225 74 q 385 140 333 74 q 490 374 436 206 q 587 619 543 542 q 697 750 631 697 q 654 751 678 751 q 422 714 535 751 q 308 614 308 676 q 343 540 308 575 l 313 503 q 219 654 219 568 q 269 753 219 711 q 400 817 318 794 q 760 860 561 860 q 811 856 803 860 q 835 831 835 849 q 819 806 835 825 q 728 683 754 724 q 667 549 703 643 q 603 367 632 454 q 575 279 575 281 q 433 88 522 160 q 242 6 343 17 q 196 -68 215 -28 q 176 -122 176 -108 q 186 -147 176 -136 q 218 -158 196 -158 q 350 -101 268 -158 z "},"į":{"ha":358,"x_min":18,"x_max":351,"o":"m 311 -110 l 339 -132 q 224 -231 297 -187 q 108 -274 151 -274 q 41 -255 64 -274 q 18 -210 18 -236 q 52 -101 18 -160 q 132 4 86 -43 q 113 1 118 1 q 35 110 35 1 q 147 461 35 244 q 175 517 171 508 l 235 481 q 163 313 206 428 q 121 165 121 197 q 135 118 121 132 q 168 104 149 104 q 272 179 206 104 l 300 156 q 206 42 263 86 l 243 38 q 172 -50 206 10 q 138 -128 138 -110 q 183 -167 138 -167 q 311 -110 229 -167 m 290 589 q 213 651 213 589 q 232 710 213 686 q 282 733 251 733 q 332 715 313 733 q 351 668 351 697 q 335 614 351 639 q 290 589 318 589 z "},"İ":{"ha":842,"x_min":56,"x_max":856,"o":"m 832 856 q 856 831 856 849 q 839 806 856 825 q 749 683 775 724 q 688 549 724 643 q 624 367 653 454 q 596 279 596 281 q 439 78 539 151 q 229 4 339 4 q 103 42 151 4 q 56 144 56 81 q 185 328 56 244 q 443 411 314 411 l 449 365 q 272 289 346 344 q 197 168 197 233 q 222 100 197 126 q 283 74 246 74 q 406 140 354 74 q 510 374 457 206 q 608 619 564 542 q 718 750 651 697 q 675 751 699 751 q 442 714 556 751 q 329 614 329 676 q 364 540 329 575 l 333 503 q 240 654 240 568 q 290 753 240 711 q 422 817 339 794 q 781 860 582 860 q 832 856 824 860 m 595 979 q 587 987 595 979 q 579 1018 579 994 q 595 1058 579 1042 q 633 1074 611 1074 q 672 1058 656 1074 q 689 1019 689 1042 q 673 980 689 996 q 634 964 657 964 q 595 979 611 964 z "},"ı":{"ha":400,"x_min":56,"x_max":321,"o":"m 293 179 l 321 156 q 233 47 288 92 q 133 1 178 1 q 56 110 56 1 q 167 461 56 244 q 196 517 192 508 l 256 481 q 184 313 226 428 q 142 165 142 197 q 156 118 142 132 q 189 104 169 104 q 293 179 226 104 z "},"ĳ":{"ha":890,"x_min":49,"x_max":925,"o":"m 776 196 q 779 156 779 171 q 646 114 706 138 q 513 -260 594 -133 q 304 -386 431 -386 q 206 -349 242 -386 q 171 -246 171 -311 q 178 -185 171 -208 q 126 -199 147 -199 q 49 -90 49 -199 q 161 261 49 44 q 189 317 185 308 l 249 281 q 177 113 219 228 q 135 -35 135 -3 q 149 -82 135 -68 q 184 -96 163 -96 q 235 -72 206 -96 q 572 135 332 50 q 722 601 635 372 q 751 685 749 671 l 821 663 q 726 408 782 576 q 658 164 669 240 l 776 196 m 567 81 q 347 -56 393 -6 q 288 -192 288 -121 q 306 -240 288 -222 q 354 -258 324 -258 q 474 -163 417 -258 q 567 81 532 -68 m 925 855 q 925 840 925 855 q 910 799 925 825 q 863 772 896 772 q 808 790 831 772 q 785 841 785 808 q 807 899 785 874 q 858 925 829 925 q 906 905 886 925 q 925 855 925 885 m 304 389 q 226 451 226 389 q 246 510 226 486 q 296 533 265 533 q 346 515 326 533 q 365 468 365 497 q 349 414 365 439 q 304 389 332 389 z "},"Ĵ":{"ha":961,"x_min":-132,"x_max":982,"o":"m 790 864 q 928 853 875 864 q 982 811 982 843 q 938 757 982 783 q 742 541 828 690 q 567 100 657 392 q 690 93 649 100 l 682 38 q 613 44 643 44 q 544 38 582 44 q 453 -154 501 -81 q 331 -292 406 -228 q 164 -397 256 -356 q 8 -439 72 -439 q -94 -403 -57 -439 q -132 -310 -132 -368 q -49 -133 -132 -221 q 172 14 35 -46 q 460 89 308 74 q 503 221 463 94 q 647 552 567 429 q 839 756 726 675 q 776 758 815 758 q 382 671 536 758 q 228 474 228 583 q 270 342 228 403 q 390 218 313 282 l 357 172 q 131 481 131 294 q 223 678 131 589 q 466 815 315 767 q 790 864 617 864 m 89 -344 q 223 -300 153 -344 q 355 -169 293 -256 q 442 28 417 -83 q 135 -76 261 10 q 10 -267 10 -161 q 31 -324 10 -303 q 89 -344 51 -344 m 468 965 l 672 1124 q 851 974 822 1004 l 810 940 q 667 1029 692 1011 l 529 932 l 468 965 z "},"ĵ":{"ha":546,"x_min":-174,"x_max":626,"o":"m 243 736 l 447 894 q 626 744 597 775 l 585 711 q 442 800 467 782 l 304 703 l 243 736 m 432 196 q 435 156 435 171 q 301 114 361 138 q 168 -260 250 -133 q -40 -386 86 -386 q -138 -349 -103 -386 q -174 -246 -174 -311 q -71 -31 -174 -128 q 228 135 32 65 q 378 601 290 372 q 407 685 404 671 l 476 663 q 381 408 438 576 q 314 164 325 240 l 432 196 m 222 81 q 3 -56 49 -6 q -57 -192 -57 -121 q -39 -240 -57 -222 q 10 -258 -21 -258 q 130 -163 72 -258 q 222 81 188 -68 z "},"Ķ":{"ha":1093,"x_min":-21,"x_max":1225,"o":"m 506 -131 q 524 -88 506 -106 q 570 -71 543 -71 q 613 -87 597 -71 q 628 -129 628 -103 q 522 -267 628 -190 l 492 -222 q 549 -175 547 -178 q 506 -131 506 -161 m 1138 833 l 1225 790 q 1015 533 1136 646 q 692 310 893 421 q 788 -13 731 108 q 936 -149 844 -135 l 936 -212 q 907 -214 925 -214 q 727 -85 814 -214 q 571 297 640 44 q 389 1 511 110 q 135 -108 267 -108 q 23 -72 67 -108 q -21 30 -21 -35 q 38 164 -21 94 q 197 281 96 233 l 229 231 q 104 64 104 142 q 129 3 104 26 q 194 -19 154 -19 q 358 60 289 -19 q 481 340 426 140 q 619 669 549 592 q 713 749 651 706 q 517 716 617 746 q 342 627 417 686 q 267 496 267 568 q 351 347 267 403 l 324 304 q 201 401 246 342 q 157 525 157 461 q 253 690 157 613 q 488 811 349 768 q 763 854 628 854 q 846 818 846 854 q 797 758 846 794 q 660 585 708 692 q 582 335 613 478 q 885 528 740 393 q 1138 833 1031 664 z "},"ķ":{"ha":615,"x_min":1,"x_max":603,"o":"m 200 -101 q 219 -59 200 -76 q 265 -42 238 -42 q 307 -58 292 -42 q 322 -100 322 -74 q 217 -237 322 -161 l 186 -193 q 243 -146 242 -149 q 200 -101 200 -132 m 568 142 l 603 111 q 432 -21 522 -21 q 318 61 376 -21 q 260 196 260 143 q 360 263 260 229 q 428 301 397 275 q 460 354 460 326 q 444 397 460 382 q 406 411 429 411 q 86 0 253 397 l 1 29 q 163 513 1 89 q 393 1025 325 936 l 461 1000 q 147 242 274 674 q 333 458 256 404 q 482 513 411 513 q 551 486 525 513 q 576 419 576 460 q 556 344 576 378 q 497 286 536 311 q 365 215 444 250 q 408 117 378 150 q 478 83 439 83 q 568 142 499 83 z "},"ĸ":{"ha":631,"x_min":36,"x_max":563,"o":"m 528 154 l 563 124 q 392 -8 482 -8 q 287 58 340 -8 q 222 188 233 125 q 175 107 214 172 q 119 0 136 42 l 36 29 q 108 351 65 200 q 188 564 150 503 l 244 546 q 161 206 219 482 q 315 435 238 363 q 486 532 393 508 l 486 440 q 293 306 386 436 q 347 156 299 215 q 438 96 394 96 q 528 154 458 96 z "},"Ĺ":{"ha":835,"x_min":28,"x_max":807,"o":"m 257 129 l 546 121 q 664 161 607 121 l 701 111 q 657 63 674 79 q 608 32 640 47 q 535 17 575 17 l 275 28 q 106 24 101 28 q 54 69 54 25 q 92 162 58 97 q 182 396 125 226 q 28 447 96 396 l 57 499 q 203 460 117 460 q 407 756 283 657 q 665 854 531 854 q 768 822 729 854 q 807 735 807 789 q 653 516 807 618 q 304 401 500 414 q 161 125 240 199 q 257 129 196 129 m 589 779 q 429 692 503 779 q 324 465 356 604 q 567 549 463 475 q 671 703 671 622 q 647 757 671 735 q 589 779 624 779 m 721 1000 l 483 922 l 443 947 l 626 1056 l 721 1000 z "},"ĺ":{"ha":519,"x_min":22,"x_max":546,"o":"m 244 133 l 274 110 q 192 3 226 36 q 117 -29 158 -29 q 49 4 75 -29 q 22 88 22 38 q 150 506 22 185 q 413 1072 278 828 l 474 1039 q 228 515 338 775 q 118 140 118 254 q 167 75 118 75 q 244 133 206 75 m 424 865 q 442 908 424 890 q 488 925 461 925 q 531 909 515 925 q 546 867 546 893 q 440 729 546 806 l 410 774 q 431 790 415 778 q 455 808 446 801 q 467 821 464 815 q 424 865 424 835 z "},"Ļ":{"ha":793,"x_min":7,"x_max":786,"o":"m 368 -118 q 387 -76 368 -93 q 433 -58 406 -58 q 475 -74 460 -58 q 490 -117 490 -90 q 385 -254 490 -178 l 354 -210 q 375 -194 360 -206 q 399 -175 390 -182 q 411 -162 408 -168 q 368 -118 368 -149 m 236 129 l 525 121 q 643 161 586 121 l 681 111 q 636 63 653 79 q 587 32 619 47 q 514 17 554 17 l 254 28 q 85 24 81 28 q 33 69 33 25 q 71 162 38 97 q 161 396 104 226 q 7 447 75 396 l 36 499 q 182 460 96 460 q 386 756 263 657 q 644 854 510 854 q 747 822 708 854 q 786 735 786 789 q 633 516 786 618 q 283 401 479 414 q 140 125 219 199 q 236 129 175 129 m 568 779 q 408 692 482 779 q 303 465 335 604 q 546 549 442 475 q 650 703 650 622 q 626 757 650 735 q 568 779 603 779 z "},"ļ":{"ha":363,"x_min":-25,"x_max":453,"o":"m -11 -150 q 8 -108 -11 -125 q 53 -90 26 -90 q 96 -106 81 -90 q 111 -149 111 -122 q 6 -286 111 -210 l -25 -242 q 32 -194 31 -197 q -11 -150 -11 -181 m 224 133 l 253 110 q 172 3 206 36 q 96 -29 138 -29 q 28 4 54 -29 q 1 88 1 38 q 129 506 1 185 q 392 1072 257 828 l 453 1039 q 207 515 317 775 q 97 140 97 254 q 146 75 97 75 q 224 133 185 75 z "},"Ľ":{"ha":835,"x_min":28,"x_max":807,"o":"m 257 129 l 546 121 q 664 161 607 121 l 701 111 q 657 63 674 79 q 608 32 640 47 q 535 17 575 17 l 275 28 q 106 24 101 28 q 54 69 54 25 q 92 162 58 97 q 182 396 125 226 q 28 447 96 396 l 57 499 q 203 460 117 460 q 407 756 283 657 q 665 854 531 854 q 768 822 729 854 q 807 735 807 789 q 653 516 807 618 q 304 401 500 414 q 161 125 240 199 q 257 129 196 129 m 589 779 q 429 692 503 779 q 324 465 356 604 q 567 549 463 475 q 671 703 671 622 q 647 757 671 735 q 589 779 624 779 m 608 903 l 404 1061 l 465 1094 q 603 997 542 1036 q 746 1086 628 1015 l 788 1053 q 647 933 767 1029 l 608 903 z "},"ľ":{"ha":519,"x_min":22,"x_max":546,"o":"m 244 133 l 274 110 q 192 3 226 36 q 117 -29 158 -29 q 49 4 75 -29 q 22 88 22 38 q 150 506 22 185 q 413 1072 278 828 l 474 1039 q 228 515 338 775 q 118 140 118 254 q 167 75 118 75 q 244 133 206 75 m 424 865 q 442 908 424 890 q 488 925 461 925 q 531 909 515 925 q 546 867 546 893 q 440 729 546 806 l 410 774 q 431 790 415 778 q 455 808 446 801 q 467 821 464 815 q 424 865 424 835 z "},"Ŀ":{"ha":793,"x_min":7,"x_max":786,"o":"m 236 129 l 525 121 q 643 161 586 121 l 681 111 q 636 63 653 79 q 587 32 619 47 q 514 17 554 17 l 254 28 q 85 24 81 28 q 33 69 33 25 q 71 162 38 97 q 161 396 104 226 q 7 447 75 396 l 36 499 q 182 460 96 460 q 386 756 263 657 q 644 854 510 854 q 747 822 708 854 q 786 735 786 789 q 633 516 786 618 q 283 401 479 414 q 140 125 219 199 q 236 129 175 129 m 568 779 q 408 692 482 779 q 303 465 335 604 q 546 549 442 475 q 650 703 650 622 q 626 757 650 735 q 568 779 603 779 m 578 288 q 569 298 578 288 q 560 333 560 307 q 578 378 560 360 q 624 397 597 397 q 669 378 650 397 q 688 333 688 360 q 669 288 688 307 q 624 269 650 269 q 578 288 597 269 z "},"ŀ":{"ha":444,"x_min":-3,"x_max":449,"o":"m 219 133 l 249 110 q 167 3 201 36 q 92 -29 133 -29 q 24 4 50 -29 q -3 88 -3 38 q 125 506 -3 185 q 388 1072 253 828 l 449 1039 q 203 515 313 775 q 93 140 93 254 q 142 75 93 75 q 219 133 181 75 m 274 381 q 265 391 274 381 q 256 426 256 400 q 274 472 256 453 q 319 490 293 490 q 365 472 346 490 q 383 426 383 453 q 365 381 383 400 q 319 363 346 363 q 274 381 293 363 z "},"Ł":{"ha":835,"x_min":7,"x_max":807,"o":"m 257 129 l 546 121 q 664 161 607 121 l 701 111 q 657 63 674 79 q 608 32 640 47 q 535 17 575 17 l 275 28 q 106 24 101 28 q 54 69 54 25 q 128 239 57 97 l 24 229 l 7 304 q 157 322 49 313 l 182 396 q 28 447 96 396 l 57 499 q 203 460 117 460 q 407 756 283 657 q 665 854 531 854 q 768 822 729 854 q 807 735 807 789 q 653 516 807 618 q 304 401 500 414 l 281 332 q 474 339 335 335 l 474 274 l 247 251 q 161 125 206 165 q 257 129 196 129 m 589 779 q 429 692 503 779 q 324 465 356 604 q 567 549 463 475 q 671 703 671 622 q 647 757 671 735 q 589 779 624 779 z "},"ł":{"ha":404,"x_min":4,"x_max":474,"o":"m 408 565 l 408 503 l 214 481 q 118 140 118 236 q 167 75 118 75 q 244 133 206 75 l 274 110 q 192 3 226 36 q 117 -29 158 -29 q 49 4 75 -29 q 22 88 22 38 q 138 472 22 178 l 19 460 l 4 532 q 168 553 74 544 q 413 1072 294 858 l 474 1039 q 246 558 336 774 q 408 565 292 561 z "},"Ń":{"ha":1033,"x_min":0,"x_max":1033,"o":"m 953 849 l 1033 839 q 966 585 1008 731 q 889 351 924 440 q 813 173 854 261 q 726 34 772 85 q 638 -17 681 -17 q 574 15 594 -17 q 554 128 554 47 q 578 470 554 210 q 602 753 601 731 q 590 776 603 776 q 554 734 575 776 q 522 669 533 692 q 485 578 493 604 q 346 289 407 403 q 206 78 285 175 q 126 10 178 44 q 31 -43 75 -25 l 0 39 q 208 208 115 88 q 401 543 301 328 q 543 833 500 758 q 642 913 592 913 q 692 890 674 913 q 710 833 710 868 q 685 540 710 797 q 661 211 661 283 q 667 117 661 139 q 689 96 674 96 q 731 138 708 96 q 953 849 807 286 m 967 1018 l 729 940 l 689 965 l 872 1074 l 967 1018 z "},"ń":{"ha":672,"x_min":19,"x_max":639,"o":"m 610 168 l 639 146 q 555 43 608 85 q 458 1 501 1 q 390 26 415 1 q 365 89 365 51 q 413 220 365 126 q 461 358 461 314 q 445 394 461 378 q 407 410 429 410 q 264 302 336 410 q 103 -8 192 194 l 19 21 q 95 335 46 182 q 186 556 144 489 l 243 538 q 144 197 204 439 q 497 525 336 525 q 555 501 532 525 q 578 446 578 478 q 569 388 578 414 q 517 269 561 363 q 474 151 474 175 q 488 115 474 128 q 514 101 501 101 q 535 106 526 101 q 553 118 543 110 q 572 133 564 126 q 592 152 581 140 q 610 168 604 164 m 583 643 l 346 565 l 306 590 l 489 699 l 583 643 z "},"Ņ":{"ha":992,"x_min":-21,"x_max":1013,"o":"m 368 -118 q 387 -76 368 -93 q 433 -58 406 -58 q 475 -74 460 -58 q 490 -117 490 -90 q 385 -254 490 -178 l 354 -210 q 375 -194 360 -206 q 399 -175 390 -182 q 411 -162 408 -168 q 368 -118 368 -149 m 932 849 l 1013 839 q 945 585 988 731 q 868 351 903 440 q 792 173 833 261 q 706 34 751 85 q 617 -17 660 -17 q 553 15 574 -17 q 533 128 533 47 q 557 470 533 210 q 581 753 581 731 q 569 776 582 776 q 533 734 554 776 q 503 669 513 692 q 464 578 472 604 q 325 289 386 403 q 185 78 264 175 q 106 10 157 44 q 10 -43 54 -25 l -21 39 q 188 208 94 88 q 380 543 281 328 q 522 833 479 758 q 621 913 571 913 q 671 890 653 913 q 689 833 689 868 q 665 540 689 797 q 640 211 640 283 q 647 117 640 139 q 668 96 653 96 q 708 138 688 96 q 932 849 786 286 z "},"ņ":{"ha":631,"x_min":-1,"x_max":618,"o":"m 169 -115 q 188 -73 169 -90 q 234 -56 207 -56 q 276 -72 261 -56 q 292 -114 292 -87 q 186 -251 292 -175 l 156 -207 q 176 -191 161 -203 q 201 -172 192 -179 q 213 -160 210 -165 q 169 -115 169 -146 m 589 168 l 618 146 q 534 43 588 85 q 438 1 481 1 q 369 26 394 1 q 344 89 344 51 q 392 220 344 126 q 440 358 440 314 q 424 394 440 378 q 386 410 408 410 q 243 302 315 410 q 82 -8 171 194 l -1 21 q 74 335 25 182 q 165 556 124 489 l 222 538 q 124 197 183 439 q 476 525 315 525 q 534 501 511 525 q 557 446 557 478 q 549 388 557 414 q 497 269 540 363 q 453 151 453 175 q 467 115 453 128 q 493 101 481 101 q 514 106 506 101 q 533 118 522 110 q 551 133 543 126 q 572 152 560 140 q 589 168 583 164 z "},"Ň":{"ha":1033,"x_min":0,"x_max":1033,"o":"m 953 849 l 1033 839 q 966 585 1008 731 q 889 351 924 440 q 813 173 854 261 q 726 34 772 85 q 638 -17 681 -17 q 574 15 594 -17 q 554 128 554 47 q 578 470 554 210 q 602 753 601 731 q 590 776 603 776 q 554 734 575 776 q 522 669 533 692 q 485 578 493 604 q 346 289 407 403 q 206 78 285 175 q 126 10 178 44 q 31 -43 75 -25 l 0 39 q 208 208 115 88 q 401 543 301 328 q 543 833 500 758 q 642 913 592 913 q 692 890 674 913 q 710 833 710 868 q 685 540 710 797 q 661 211 661 283 q 667 117 661 139 q 689 96 674 96 q 731 138 708 96 q 953 849 807 286 m 847 939 l 643 1097 l 704 1131 q 842 1033 781 1072 q 985 1122 867 1051 l 1026 1089 q 886 969 1006 1065 l 847 939 z "},"ň":{"ha":672,"x_min":19,"x_max":639,"o":"m 610 168 l 639 146 q 555 43 608 85 q 458 1 501 1 q 390 26 415 1 q 365 89 365 51 q 413 220 365 126 q 461 358 461 314 q 445 394 461 378 q 407 410 429 410 q 264 302 336 410 q 103 -8 192 194 l 19 21 q 95 335 46 182 q 186 556 144 489 l 243 538 q 144 197 204 439 q 497 525 336 525 q 555 501 532 525 q 578 446 578 478 q 569 388 578 414 q 517 269 561 363 q 474 151 474 175 q 488 115 474 128 q 514 101 501 101 q 535 106 526 101 q 553 118 543 110 q 572 133 564 126 q 592 152 581 140 q 610 168 604 164 m 432 558 l 228 717 l 289 750 q 426 653 365 692 q 569 742 451 671 l 611 708 q 469 589 590 685 l 432 558 z "},"ŉ":{"ha":631,"x_min":-1,"x_max":618,"o":"m 350 719 q 369 762 350 744 q 415 779 388 779 q 457 763 442 779 q 472 721 472 747 q 367 583 472 660 l 336 628 q 357 644 342 632 q 381 663 372 656 q 393 675 390 669 q 350 719 350 689 m 589 168 l 618 146 q 534 43 588 85 q 438 1 481 1 q 369 26 394 1 q 344 89 344 51 q 392 220 344 126 q 440 358 440 314 q 424 394 440 378 q 386 410 408 410 q 243 302 315 410 q 82 -8 171 194 l -1 21 q 74 335 25 182 q 165 556 124 489 l 222 538 q 124 197 183 439 q 476 525 315 525 q 534 501 511 525 q 557 446 557 478 q 549 388 557 414 q 497 269 540 363 q 453 151 453 175 q 467 115 453 128 q 493 101 481 101 q 514 106 506 101 q 533 118 522 110 q 551 133 543 126 q 572 152 560 140 q 589 168 583 164 z "},"Ō":{"ha":950,"x_min":35,"x_max":971,"o":"m 971 683 l 971 617 q 740 518 908 581 q 503 169 665 331 q 206 8 340 8 q 82 63 129 8 q 35 212 35 117 q 99 441 35 307 q 267 692 163 575 q 479 865 371 810 q 618 894 524 894 q 734 840 689 894 q 779 710 779 785 q 768 599 779 636 q 971 683 874 633 m 419 732 q 374 641 374 685 q 418 572 374 597 q 530 546 463 546 q 647 558 597 546 q 656 639 656 600 q 538 776 656 776 q 419 732 483 776 m 438 207 q 628 488 574 342 q 539 481 593 481 q 275 585 306 481 q 158 265 158 422 q 188 165 158 203 q 276 128 218 128 q 438 207 358 128 m 696 1050 l 696 1000 l 450 992 l 438 1035 q 696 1050 483 1044 z "},"ō":{"ha":446,"x_min":7,"x_max":439,"o":"m 403 413 q 439 281 439 353 q 361 80 439 168 q 178 -8 283 -8 q 52 38 97 -8 q 7 167 7 85 q 110 403 7 299 q 340 508 213 508 q 374 507 364 508 l 378 461 q 193 397 267 461 q 119 233 119 333 q 149 137 119 174 q 234 100 178 100 q 324 150 290 100 q 357 267 357 200 q 331 390 357 335 l 403 413 m 424 661 l 424 611 l 178 603 l 165 646 q 424 661 211 656 z "},"Ŏ":{"ha":950,"x_min":35,"x_max":971,"o":"m 971 683 l 971 617 q 740 518 908 581 q 503 169 665 331 q 206 8 340 8 q 82 63 129 8 q 35 212 35 117 q 99 441 35 307 q 267 692 163 575 q 479 865 371 810 q 618 894 524 894 q 734 840 689 894 q 779 710 779 785 q 768 599 779 636 q 971 683 874 633 m 419 732 q 374 641 374 685 q 418 572 374 597 q 530 546 463 546 q 647 558 597 546 q 656 639 656 600 q 538 776 656 776 q 419 732 483 776 m 438 207 q 628 488 574 342 q 539 481 593 481 q 275 585 306 481 q 158 265 158 422 q 188 165 158 203 q 276 128 218 128 q 438 207 358 128 m 731 1114 l 772 1092 q 701 1015 744 1049 q 614 982 657 982 q 524 1015 571 982 q 447 1081 476 1047 l 492 1118 q 610 1047 564 1047 q 731 1114 681 1047 z "},"ŏ":{"ha":446,"x_min":7,"x_max":476,"o":"m 403 413 q 439 281 439 353 q 361 80 439 168 q 178 -8 283 -8 q 52 38 97 -8 q 7 167 7 85 q 110 403 7 299 q 340 508 213 508 q 374 507 364 508 l 378 461 q 193 397 267 461 q 119 233 119 333 q 149 137 119 174 q 234 100 178 100 q 324 150 290 100 q 357 267 357 200 q 331 390 357 335 l 403 413 m 435 707 l 476 685 q 405 608 449 642 q 318 575 361 575 q 228 608 275 575 q 151 674 181 640 l 196 711 q 314 640 268 640 q 435 707 385 640 z "},"Ő":{"ha":992,"x_min":56,"x_max":992,"o":"m 992 683 l 992 617 q 761 518 929 581 q 524 169 686 331 q 226 8 361 8 q 103 63 150 8 q 56 212 56 117 q 119 441 56 307 q 288 692 183 575 q 500 865 392 810 q 639 894 544 894 q 755 840 710 894 q 800 710 800 785 q 789 599 800 636 q 992 683 894 633 m 440 732 q 394 641 394 685 q 439 572 394 597 q 551 546 483 546 q 668 558 618 546 q 676 639 676 600 q 558 776 676 776 q 440 732 504 776 m 458 207 q 649 488 594 342 q 560 481 614 481 q 296 585 326 481 q 179 265 179 422 q 209 165 179 203 q 297 128 239 128 q 458 207 379 128 m 656 1069 l 467 951 l 410 971 l 538 1104 l 656 1069 m 844 1056 l 650 949 l 592 971 l 749 1094 l 844 1056 z "},"ő":{"ha":488,"x_min":28,"x_max":543,"o":"m 424 413 q 460 281 460 353 q 382 80 460 168 q 199 -8 304 -8 q 73 38 118 -8 q 28 167 28 85 q 131 403 28 299 q 361 508 233 508 q 394 507 385 508 l 399 461 q 214 397 288 461 q 140 233 140 333 q 169 137 140 174 q 255 100 199 100 q 344 150 311 100 q 378 267 378 200 q 351 390 378 335 l 424 413 m 354 679 l 165 561 l 108 581 l 236 714 l 354 679 m 543 665 l 349 558 l 290 581 l 447 704 l 543 665 z "},"Œ":{"ha":1510,"x_min":10,"x_max":1514,"o":"m 1514 915 q 1448 792 1514 846 q 1297 713 1382 738 q 1132 688 1211 688 q 1101 689 1111 688 l 1101 736 q 1182 749 1104 736 q 1313 796 1260 763 q 1367 871 1367 829 q 1292 921 1367 921 q 1100 851 1190 921 q 1010 706 1010 782 q 1104 607 1010 629 q 1132 596 1125 601 q 1139 576 1139 590 q 1126 553 1139 563 q 1065 528 1113 544 q 810 256 810 440 q 824 192 810 218 q 1043 368 908 300 q 1303 436 1178 436 q 1407 408 1368 436 q 1446 329 1446 379 q 1374 174 1446 251 q 1187 47 1301 96 q 958 -3 1072 -3 q 781 39 844 -3 q 769 17 779 38 q 721 -60 740 -37 l 675 -40 q 732 78 685 -1 q 668 240 668 150 q 741 410 668 329 q 944 544 814 492 q 899 592 913 571 q 715 518 843 565 q 478 169 640 331 q 181 8 315 8 q 57 63 104 8 q 10 212 10 117 q 74 441 10 307 q 242 692 138 575 q 454 865 346 810 q 593 894 499 894 q 709 840 664 894 q 754 710 754 785 q 743 599 754 636 q 840 637 800 618 q 879 657 879 656 q 963 817 879 735 q 1167 951 1046 899 q 1392 1004 1288 1004 q 1481 980 1447 1004 q 1514 915 1514 956 m 413 207 q 603 488 549 342 q 514 481 568 481 q 250 585 281 481 q 133 265 133 422 q 163 165 133 203 q 251 128 193 128 q 413 207 333 128 m 1222 353 q 1031 290 1140 353 q 854 142 922 228 q 1012 79 910 79 q 1212 145 1114 79 q 1310 288 1310 211 q 1286 335 1310 318 q 1222 353 1263 353 m 394 732 q 349 641 349 685 q 393 572 349 597 q 505 546 438 546 q 622 558 572 546 q 631 639 631 600 q 513 776 631 776 q 394 732 458 776 z "},"œ":{"ha":842,"x_min":0,"x_max":849,"o":"m 736 171 l 768 146 q 650 47 725 86 q 506 7 575 7 q 361 89 399 7 q 171 -8 282 -8 q 45 38 90 -8 q 0 167 0 85 q 103 403 0 299 q 333 508 206 508 q 367 507 357 508 l 371 461 q 186 397 260 461 q 113 233 113 333 q 142 137 113 174 q 227 100 171 100 q 317 150 283 100 q 350 267 350 200 q 324 390 350 335 l 396 413 q 424 346 417 375 q 579 480 488 426 q 760 533 671 533 q 849 461 849 533 q 752 310 849 386 q 481 171 656 233 q 519 121 493 139 q 574 103 546 103 q 736 171 633 103 m 474 213 q 667 310 586 251 q 747 417 747 368 q 733 449 747 436 q 701 463 719 463 q 560 381 636 463 q 474 213 485 300 z "},"Ŕ":{"ha":910,"x_min":56,"x_max":924,"o":"m 708 -90 l 715 -156 q 647 -162 676 -162 q 522 -76 582 -162 q 428 128 463 11 q 386 353 394 244 q 255 91 317 172 q 128 10 193 10 q 75 37 94 10 q 56 108 56 64 q 151 369 56 211 q 374 629 246 528 q 398 731 376 638 q 424 833 419 824 l 504 840 q 492 742 504 817 q 800 885 679 885 q 890 853 857 885 q 924 769 924 822 q 790 503 924 638 q 506 346 657 369 q 576 31 517 144 q 708 -90 635 -83 m 304 374 q 356 533 342 474 q 215 344 279 463 q 150 169 150 226 q 174 140 150 140 q 304 374 215 140 m 399 393 q 663 496 546 393 q 779 700 779 599 q 760 758 779 738 q 701 779 742 779 q 585 734 661 779 q 475 660 508 689 q 399 393 432 489 m 788 1029 l 550 951 l 510 976 l 693 1085 l 788 1029 z "},"ŕ":{"ha":521,"x_min":31,"x_max":533,"o":"m 417 492 q 474 468 451 492 q 496 407 496 444 q 410 249 496 332 l 376 275 q 396 338 396 318 q 354 375 396 375 q 275 322 313 375 q 187 159 238 269 q 110 3 136 49 l 31 38 q 118 242 107 211 q 156 517 156 350 l 233 538 q 221 398 229 447 q 181 238 213 349 q 417 492 321 492 m 533 628 l 296 550 l 256 575 l 439 683 l 533 628 z "},"Ŗ":{"ha":868,"x_min":35,"x_max":903,"o":"m 247 -111 q 266 -69 247 -86 q 312 -51 285 -51 q 354 -67 339 -51 q 369 -110 369 -83 q 264 -247 369 -171 l 233 -203 q 290 -156 289 -158 q 247 -111 247 -142 m 688 -90 l 694 -156 q 626 -162 656 -162 q 501 -76 561 -162 q 408 128 442 11 q 365 353 374 244 q 234 91 296 172 q 107 10 172 10 q 54 37 74 10 q 35 108 35 64 q 130 369 35 211 q 353 629 225 528 q 377 731 356 638 q 403 833 399 824 l 483 840 q 471 742 483 817 q 779 885 658 885 q 869 853 836 885 q 903 769 903 822 q 769 503 903 638 q 485 346 636 369 q 555 31 496 144 q 688 -90 614 -83 m 283 374 q 335 533 321 474 q 194 344 258 463 q 129 169 129 226 q 153 140 129 140 q 283 374 194 140 m 378 393 q 642 496 525 393 q 758 700 758 599 q 740 758 758 738 q 681 779 721 779 q 564 734 640 779 q 454 660 488 689 q 378 393 411 489 z "},"ŗ":{"ha":479,"x_min":10,"x_max":475,"o":"m 104 -115 q 123 -73 104 -90 q 169 -56 142 -56 q 211 -72 196 -56 q 226 -114 226 -87 q 121 -251 226 -175 l 90 -207 q 147 -160 146 -162 q 104 -115 104 -146 m 396 492 q 453 468 431 492 q 475 407 475 444 q 389 249 475 332 l 356 275 q 375 338 375 318 q 333 375 375 375 q 254 322 292 375 q 166 159 217 269 q 89 3 115 49 l 10 38 q 97 242 86 211 q 135 517 135 350 l 213 538 q 200 398 208 447 q 160 238 192 349 q 396 492 300 492 z "},"Ř":{"ha":910,"x_min":56,"x_max":924,"o":"m 708 -90 l 715 -156 q 647 -162 676 -162 q 522 -76 582 -162 q 428 128 463 11 q 386 353 394 244 q 255 91 317 172 q 128 10 193 10 q 75 37 94 10 q 56 108 56 64 q 151 369 56 211 q 374 629 246 528 q 398 731 376 638 q 424 833 419 824 l 504 840 q 492 742 504 817 q 800 885 679 885 q 890 853 857 885 q 924 769 924 822 q 790 503 924 638 q 506 346 657 369 q 576 31 517 144 q 708 -90 635 -83 m 304 374 q 356 533 342 474 q 215 344 279 463 q 150 169 150 226 q 174 140 150 140 q 304 374 215 140 m 399 393 q 663 496 546 393 q 779 700 779 599 q 760 758 779 738 q 701 779 742 779 q 585 734 661 779 q 475 660 508 689 q 399 393 432 489 m 692 932 l 488 1090 l 549 1124 q 686 1026 625 1065 q 829 1115 711 1044 l 871 1082 q 731 963 850 1058 l 692 932 z "},"ř":{"ha":521,"x_min":31,"x_max":532,"o":"m 417 492 q 474 468 451 492 q 496 407 496 444 q 410 249 496 332 l 376 275 q 396 338 396 318 q 354 375 396 375 q 275 322 313 375 q 187 159 238 269 q 110 3 136 49 l 31 38 q 118 242 107 211 q 156 517 156 350 l 233 538 q 221 398 229 447 q 181 238 213 349 q 417 492 321 492 m 353 542 l 149 700 l 210 733 q 347 636 286 675 q 490 725 372 654 l 532 692 q 392 572 511 668 l 353 542 z "},"Ś":{"ha":899,"x_min":-14,"x_max":843,"o":"m 744 251 l 843 253 l 843 196 q 804 199 826 199 q 754 196 782 199 q 651 -21 754 89 q 403 -199 549 -131 q 133 -268 258 -268 q 27 -235 68 -268 q -14 -147 -14 -201 q 93 21 -14 -67 q 343 165 200 108 q 601 232 486 222 q 558 268 588 253 q 439 316 529 283 q 311 388 349 349 q 274 500 274 428 q 351 665 274 572 q 535 822 429 758 q 722 885 642 885 q 782 859 758 885 q 806 796 806 833 q 732 642 806 735 q 568 501 658 550 l 535 549 q 630 635 589 576 q 671 738 671 694 q 625 781 671 781 q 476 699 560 781 q 392 547 392 618 q 417 471 392 499 q 543 402 442 443 q 688 330 644 361 q 744 251 731 299 m 125 -111 q 233 -178 125 -178 q 388 -134 293 -178 q 556 -12 483 -90 q 629 149 629 67 q 625 178 629 158 q 280 71 435 160 q 125 -111 125 -18 m 733 1024 l 496 946 l 456 971 l 639 1079 l 733 1024 z "},"ś":{"ha":488,"x_min":8,"x_max":482,"o":"m 482 543 l 469 489 q 408 492 446 492 q 269 400 269 492 q 326 286 269 381 q 382 160 382 192 q 331 42 382 85 q 196 0 281 0 q 8 129 79 0 l 61 167 q 103 130 81 151 q 136 100 125 108 q 194 76 163 76 q 250 99 226 76 q 274 156 274 122 q 213 283 274 190 q 153 414 153 376 q 210 518 153 482 q 362 554 268 554 q 482 543 456 554 m 467 656 l 229 578 l 189 603 l 372 711 l 467 656 z "},"Ŝ":{"ha":857,"x_min":-35,"x_max":822,"o":"m 724 251 l 822 253 l 822 196 q 783 199 806 199 q 733 196 761 199 q 631 -21 733 89 q 383 -199 528 -131 q 113 -268 238 -268 q 6 -235 47 -268 q -35 -147 -35 -201 q 72 21 -35 -67 q 322 165 179 108 q 581 232 465 222 q 538 268 567 253 q 418 316 508 283 q 290 388 328 349 q 253 500 253 428 q 331 665 253 572 q 515 822 408 758 q 701 885 621 885 q 761 859 738 885 q 785 796 785 833 q 711 642 785 735 q 547 501 638 550 l 514 549 q 609 635 568 576 q 650 738 650 694 q 604 781 650 781 q 455 699 539 781 q 371 547 371 618 q 396 471 371 499 q 522 402 421 443 q 667 330 624 361 q 724 251 710 299 m 104 -111 q 214 -178 104 -178 q 367 -134 272 -178 q 535 -12 463 -90 q 608 149 608 67 q 604 178 608 158 q 259 71 414 160 q 104 -111 104 -18 m 379 972 l 583 1131 q 763 981 733 1011 l 721 947 q 578 1036 603 1018 l 440 939 l 379 972 z "},"ŝ":{"ha":446,"x_min":-12,"x_max":521,"o":"m 461 543 l 449 489 q 388 492 425 492 q 249 400 249 492 q 305 286 249 381 q 361 160 361 192 q 310 42 361 85 q 175 0 260 0 q -12 129 58 0 l 40 167 q 82 130 60 151 q 114 100 104 108 q 174 76 142 76 q 229 99 206 76 q 253 156 253 122 q 192 283 253 190 q 132 414 132 376 q 190 518 132 482 q 341 554 247 554 q 461 543 435 554 m 138 643 l 342 801 q 521 651 492 682 l 479 618 q 336 707 361 689 l 199 610 l 138 643 z "},"Ş":{"ha":747,"x_min":26,"x_max":733,"o":"m 190 -185 q 269 -167 224 -167 q 337 -185 314 -167 q 360 -231 360 -203 q 286 -332 360 -282 q 126 -382 213 -382 q 93 -378 111 -382 l 94 -344 q 214 -314 165 -344 q 263 -250 263 -283 q 252 -231 263 -239 q 227 -222 242 -222 q 183 -242 213 -222 q 140 -260 150 -260 q 124 -254 131 -260 q 117 -235 117 -249 q 163 -129 117 -221 q 57 -74 88 -117 q 26 14 26 -32 q 120 175 26 100 q 371 258 214 250 l 357 219 q 198 154 254 206 q 142 43 142 103 q 163 -24 142 6 q 221 -54 183 -54 q 415 35 329 -54 q 500 206 500 125 q 466 277 500 246 q 351 330 432 308 q 232 397 271 351 q 193 496 193 443 q 275 673 193 579 q 463 826 357 767 q 642 885 568 885 q 711 858 689 885 q 733 799 733 832 q 660 642 733 735 q 496 501 588 550 l 463 549 q 558 635 517 576 q 599 738 599 694 q 554 781 599 781 q 403 699 486 781 q 319 535 319 618 q 347 472 319 500 q 462 406 375 443 q 592 335 549 369 q 635 252 635 301 q 597 135 635 203 q 501 8 560 68 q 365 -92 443 -51 q 214 -133 286 -133 l 190 -185 z "},"ş":{"ha":488,"x_min":8,"x_max":482,"o":"m 175 -71 q 253 -53 208 -53 q 322 -71 299 -53 q 344 -117 344 -89 q 271 -218 344 -168 q 111 -268 197 -268 q 78 -264 97 -268 l 79 -231 q 199 -200 150 -231 q 247 -136 247 -169 q 237 -117 247 -125 q 212 -108 226 -108 q 168 -128 197 -108 q 125 -146 135 -146 q 108 -140 115 -146 q 101 -128 101 -135 q 157 3 101 -104 q 8 129 67 21 l 61 167 q 103 130 81 151 q 136 100 125 108 q 194 76 163 76 q 250 99 226 76 q 274 156 274 122 q 213 283 274 190 q 153 414 153 376 q 210 518 153 482 q 362 554 268 554 q 482 543 456 554 l 469 489 q 408 492 446 492 q 269 400 269 492 q 326 286 269 381 q 382 160 382 192 q 335 45 382 88 q 208 0 288 3 l 175 -71 z "},"Š":{"ha":899,"x_min":-14,"x_max":843,"o":"m 744 251 l 843 253 l 843 196 q 804 199 826 199 q 754 196 782 199 q 651 -21 754 89 q 403 -199 549 -131 q 133 -268 258 -268 q 27 -235 68 -268 q -14 -147 -14 -201 q 93 21 -14 -67 q 343 165 200 108 q 601 232 486 222 q 558 268 588 253 q 439 316 529 283 q 311 388 349 349 q 274 500 274 428 q 351 665 274 572 q 535 822 429 758 q 722 885 642 885 q 782 859 758 885 q 806 796 806 833 q 732 642 806 735 q 568 501 658 550 l 535 549 q 630 635 589 576 q 671 738 671 694 q 625 781 671 781 q 476 699 560 781 q 392 547 392 618 q 417 471 392 499 q 543 402 442 443 q 688 330 644 361 q 744 251 731 299 m 125 -111 q 233 -178 125 -178 q 388 -134 293 -178 q 556 -12 483 -90 q 629 149 629 67 q 625 178 629 158 q 280 71 435 160 q 125 -111 125 -18 m 575 933 l 371 1092 l 432 1125 q 569 1028 508 1067 q 713 1117 594 1046 l 754 1083 q 614 964 733 1060 l 575 933 z "},"š":{"ha":488,"x_min":8,"x_max":482,"o":"m 482 543 l 469 489 q 408 492 446 492 q 269 400 269 492 q 326 286 269 381 q 382 160 382 192 q 331 42 382 85 q 196 0 281 0 q 8 129 79 0 l 61 167 q 103 130 81 151 q 136 100 125 108 q 194 76 163 76 q 250 99 226 76 q 274 156 274 122 q 213 283 274 190 q 153 414 153 376 q 210 518 153 482 q 362 554 268 554 q 482 543 456 554 m 297 593 l 93 751 l 154 785 q 292 688 231 726 q 435 776 317 706 l 476 743 q 336 624 456 719 l 297 593 z "},"Ţ":{"ha":778,"x_min":35,"x_max":910,"o":"m 282 -96 q 301 -53 282 -71 q 347 -36 319 -36 q 389 -52 374 -36 q 404 -94 404 -68 q 299 -232 404 -156 l 268 -187 q 325 -140 324 -143 q 282 -96 282 -126 m 617 771 l 418 775 q 114 642 114 775 q 140 585 114 607 q 217 564 165 564 q 351 611 268 564 l 372 575 q 275 503 329 529 q 167 476 221 476 q 74 513 113 476 q 35 603 35 549 q 153 794 35 713 q 475 876 272 876 q 594 871 492 876 q 757 865 697 865 q 867 883 817 865 q 890 889 886 889 q 910 864 910 889 q 847 799 910 828 q 701 769 783 769 q 541 459 610 681 q 377 122 472 238 q 151 6 282 6 q 54 39 100 6 l 86 92 q 124 76 103 83 l 143 74 q 164 72 150 72 q 288 139 233 72 q 403 391 343 206 q 498 637 464 576 q 617 771 532 697 z "},"ţ":{"ha":444,"x_min":4,"x_max":436,"o":"m 61 -139 q 80 -97 61 -114 q 126 -79 99 -79 q 168 -95 153 -79 q 183 -137 183 -111 q 78 -275 183 -199 l 47 -231 q 104 -183 103 -186 q 61 -139 61 -169 m 332 156 l 363 121 q 278 36 328 67 q 179 6 229 6 q 100 34 129 6 q 71 113 71 63 q 158 435 71 229 q 17 401 88 424 l 7 456 l 6 457 q 188 504 75 486 q 238 606 199 525 q 349 813 315 765 l 408 789 q 360 687 394 758 q 282 525 325 615 q 381 529 344 529 q 436 518 417 529 l 436 458 q 379 463 417 463 q 249 450 342 463 q 167 183 167 267 q 187 131 167 151 q 241 110 207 110 q 332 156 275 110 z "},"Ť":{"ha":819,"x_min":56,"x_max":931,"o":"m 638 771 l 439 775 q 135 642 135 775 q 160 585 135 607 q 238 564 186 564 q 372 611 289 564 l 393 575 q 296 503 350 529 q 188 476 242 476 q 94 513 133 476 q 56 603 56 549 q 174 794 56 713 q 496 876 293 876 q 615 871 513 876 q 778 865 718 865 q 888 883 838 865 q 911 889 907 889 q 931 864 931 889 q 867 799 931 828 q 722 769 804 769 q 562 459 631 681 q 398 122 493 238 q 172 6 303 6 q 75 39 121 6 l 107 92 q 144 76 124 83 l 164 74 q 185 72 171 72 q 309 139 254 72 q 424 391 364 206 q 519 637 485 576 q 638 771 553 697 m 624 926 l 419 1085 l 481 1118 q 618 1021 557 1060 q 761 1110 643 1039 l 803 1076 q 661 957 782 1053 l 624 926 z "},"ť":{"ha":601,"x_min":25,"x_max":581,"o":"m 353 156 l 383 121 q 299 36 349 67 q 200 6 250 6 q 121 34 150 6 q 92 113 92 63 q 179 435 92 229 q 38 401 108 424 l 28 456 l 26 457 q 208 504 96 486 q 258 606 219 525 q 369 813 336 765 l 429 789 q 381 687 415 758 q 303 525 346 615 q 401 529 365 529 q 457 518 438 529 l 457 458 q 401 463 438 463 q 269 450 364 463 q 188 183 188 267 q 208 131 188 151 q 262 110 228 110 q 353 156 296 110 m 458 754 q 477 797 458 779 q 523 814 496 814 q 565 798 550 814 q 581 756 581 782 q 475 618 581 694 l 444 663 q 501 710 500 707 q 458 754 458 724 z "},"Ŧ":{"ha":778,"x_min":35,"x_max":910,"o":"m 617 771 l 418 775 q 114 642 114 775 q 140 585 114 607 q 217 564 165 564 q 351 611 268 564 l 372 575 q 275 503 329 529 q 167 476 221 476 q 74 513 113 476 q 35 603 35 549 q 153 794 35 713 q 475 876 272 876 q 594 871 492 876 q 757 865 697 865 q 867 883 817 865 q 890 889 886 889 q 910 864 910 889 q 847 799 910 828 q 701 769 783 769 q 546 474 610 681 q 494 329 521 393 l 658 342 l 658 264 l 460 254 q 151 6 338 6 q 54 39 100 6 l 86 92 q 124 76 103 83 l 143 74 q 164 72 150 72 q 263 111 219 72 q 353 254 307 150 l 188 243 l 165 300 q 225 308 179 301 q 382 326 332 326 l 404 393 q 499 638 467 578 q 617 771 532 697 z "},"ŧ":{"ha":444,"x_min":4,"x_max":476,"o":"m 472 701 l 476 629 l 325 615 l 282 525 q 381 529 344 529 q 436 518 417 529 l 436 458 q 379 463 417 463 q 249 450 342 463 q 167 183 167 267 q 187 131 167 151 q 241 110 207 110 q 332 156 275 110 l 363 121 q 278 36 328 67 q 179 6 229 6 q 100 34 129 6 q 71 113 71 63 q 158 435 71 229 q 17 401 88 424 l 7 456 l 6 457 q 188 504 75 486 l 238 607 l 82 593 l 58 656 q 278 686 133 674 q 349 813 318 768 l 408 789 q 363 693 393 750 l 472 701 z "},"Ũ":{"ha":960,"x_min":35,"x_max":926,"o":"m 775 108 l 819 72 q 763 -15 803 25 q 675 -54 722 -54 q 571 8 611 -54 q 518 189 531 71 q 358 58 454 119 q 190 -4 263 -4 q 76 44 118 -4 q 35 169 35 93 q 204 582 35 343 q 547 922 374 821 l 585 869 q 294 558 426 751 q 163 219 163 365 q 188 135 163 165 q 260 106 214 106 q 390 160 307 106 q 515 261 474 214 q 580 535 522 396 q 717 762 638 674 q 867 850 797 850 q 925 779 925 850 q 821 542 925 708 q 614 279 717 376 q 611 243 611 257 q 635 116 611 182 q 700 50 660 50 q 775 108 735 50 m 796 719 q 694 612 750 719 q 624 383 639 504 q 762 573 710 486 q 814 699 814 660 q 796 719 814 719 m 894 1106 l 926 1079 q 866 1008 900 1038 q 803 979 832 979 q 742 1027 775 979 q 681 1075 708 1075 q 653 1065 667 1075 q 631 1050 639 1056 q 610 1033 624 1044 q 588 1017 596 1022 l 549 1053 q 687 1143 651 1143 q 763 1094 722 1143 q 824 1046 803 1046 q 860 1071 838 1046 q 894 1106 883 1096 z "},"ũ":{"ha":597,"x_min":10,"x_max":593,"o":"m 564 153 l 593 129 q 519 31 569 71 q 427 -10 468 -10 q 363 19 386 -10 q 339 93 339 47 q 354 211 339 139 q 214 50 289 108 q 88 -8 139 -8 q 10 103 10 -8 q 74 344 10 197 q 167 515 138 492 l 233 486 q 147 306 176 394 q 118 187 118 217 q 137 139 118 157 q 181 121 156 121 q 319 223 236 121 q 488 528 401 325 l 558 496 q 495 335 556 485 q 435 155 435 185 q 448 110 435 125 q 474 94 461 94 q 494 96 488 94 q 508 101 501 97 q 520 108 515 106 q 532 118 525 111 l 542 128 q 553 141 546 132 q 564 153 561 150 m 522 717 l 554 690 q 494 619 528 649 q 431 590 460 590 q 369 638 403 590 q 308 686 336 686 q 281 676 294 686 q 259 661 267 667 q 238 644 251 656 q 215 628 224 633 l 176 664 q 315 754 279 754 q 390 706 350 754 q 451 657 431 657 q 488 682 465 657 q 522 717 511 707 z "},"Ū":{"ha":960,"x_min":35,"x_max":925,"o":"m 775 108 l 819 72 q 763 -15 803 25 q 675 -54 722 -54 q 571 8 611 -54 q 518 189 531 71 q 358 58 454 119 q 190 -4 263 -4 q 76 44 118 -4 q 35 169 35 93 q 204 582 35 343 q 547 922 374 821 l 585 869 q 294 558 426 751 q 163 219 163 365 q 188 135 163 165 q 260 106 214 106 q 390 160 307 106 q 515 261 474 214 q 580 535 522 396 q 717 762 638 674 q 867 850 797 850 q 925 779 925 850 q 821 542 925 708 q 614 279 717 376 q 611 243 611 257 q 635 116 611 182 q 700 50 660 50 q 775 108 735 50 m 796 719 q 694 612 750 719 q 624 383 639 504 q 762 573 710 486 q 814 699 814 660 q 796 719 814 719 m 869 1038 l 869 988 l 624 979 l 611 1022 q 869 1038 657 1032 z "},"ū":{"ha":597,"x_min":10,"x_max":593,"o":"m 564 153 l 593 129 q 519 31 569 71 q 427 -10 468 -10 q 363 19 386 -10 q 339 93 339 47 q 354 211 339 139 q 214 50 289 108 q 88 -8 139 -8 q 10 103 10 -8 q 74 344 10 197 q 167 515 138 492 l 233 486 q 147 306 176 394 q 118 187 118 217 q 137 139 118 157 q 181 121 156 121 q 319 223 236 121 q 488 528 401 325 l 558 496 q 495 335 556 485 q 435 155 435 185 q 448 110 435 125 q 474 94 461 94 q 494 96 488 94 q 508 101 501 97 q 520 108 515 106 q 532 118 525 111 l 542 128 q 553 141 546 132 q 564 153 561 150 m 529 665 l 529 615 l 283 607 l 271 650 q 529 665 317 660 z "},"Ŭ":{"ha":960,"x_min":35,"x_max":925,"o":"m 775 108 l 819 72 q 763 -15 803 25 q 675 -54 722 -54 q 571 8 611 -54 q 518 189 531 71 q 358 58 454 119 q 190 -4 263 -4 q 76 44 118 -4 q 35 169 35 93 q 204 582 35 343 q 547 922 374 821 l 585 869 q 294 558 426 751 q 163 219 163 365 q 188 135 163 165 q 260 106 214 106 q 390 160 307 106 q 515 261 474 214 q 580 535 522 396 q 717 762 638 674 q 867 850 797 850 q 925 779 925 850 q 821 542 925 708 q 614 279 717 376 q 611 243 611 257 q 635 116 611 182 q 700 50 660 50 q 775 108 735 50 m 796 719 q 694 612 750 719 q 624 383 639 504 q 762 573 710 486 q 814 699 814 660 q 796 719 814 719 m 847 1100 l 889 1078 q 817 1001 861 1035 q 731 968 774 968 q 640 1001 688 968 q 564 1067 593 1033 l 608 1104 q 726 1033 681 1033 q 847 1100 797 1033 z "},"ŭ":{"ha":597,"x_min":10,"x_max":593,"o":"m 564 153 l 593 129 q 519 31 569 71 q 427 -10 468 -10 q 363 19 386 -10 q 339 93 339 47 q 354 211 339 139 q 214 50 289 108 q 88 -8 139 -8 q 10 103 10 -8 q 74 344 10 197 q 167 515 138 492 l 233 486 q 147 306 176 394 q 118 187 118 217 q 137 139 118 157 q 181 121 156 121 q 319 223 236 121 q 488 528 401 325 l 558 496 q 495 335 556 485 q 435 155 435 185 q 448 110 435 125 q 474 94 461 94 q 494 96 488 94 q 508 101 501 97 q 520 108 515 106 q 532 118 525 111 l 542 128 q 553 141 546 132 q 564 153 561 150 m 507 725 l 549 703 q 477 626 521 660 q 390 593 433 593 q 300 626 347 593 q 224 692 253 658 l 268 729 q 386 658 340 658 q 507 725 457 658 z "},"Ů":{"ha":1001,"x_min":56,"x_max":946,"o":"m 796 108 l 840 72 q 783 -15 824 25 q 696 -54 743 -54 q 592 8 632 -54 q 539 189 551 71 q 379 58 475 119 q 211 -4 283 -4 q 97 44 139 -4 q 56 169 56 93 q 225 582 56 343 q 568 922 394 821 l 606 869 q 315 558 447 751 q 183 219 183 365 q 209 135 183 165 q 281 106 235 106 q 411 160 328 106 q 536 261 494 214 q 601 535 543 396 q 738 762 658 674 q 888 850 818 850 q 946 779 946 850 q 842 542 946 708 q 635 279 738 376 q 632 243 632 257 q 656 116 632 182 q 721 50 681 50 q 796 108 756 50 m 817 719 q 715 612 771 719 q 644 383 660 504 q 783 573 731 486 q 835 699 835 660 q 817 719 835 719 m 777 1100 q 798 1100 777 1100 q 841 1082 819 1100 q 863 1027 863 1064 q 826 958 863 990 q 749 926 790 926 q 685 945 707 926 q 664 1001 664 964 q 699 1069 664 1039 q 777 1100 735 1100 m 750 954 q 790 981 772 954 q 808 1040 808 1007 q 779 1074 808 1074 q 736 1047 756 1074 q 717 987 717 1019 q 750 954 717 954 z "},"ů":{"ha":639,"x_min":31,"x_max":614,"o":"m 585 153 l 614 129 q 540 31 590 71 q 448 -10 489 -10 q 383 19 407 -10 q 360 93 360 47 q 375 211 360 139 q 235 50 310 108 q 108 -8 160 -8 q 31 103 31 -8 q 94 344 31 197 q 188 515 158 492 l 254 486 q 168 306 197 394 q 139 187 139 217 q 158 139 139 157 q 201 121 176 121 q 340 223 257 121 q 508 528 422 325 l 579 496 q 516 335 576 485 q 456 155 456 185 q 469 110 456 125 q 495 94 482 94 q 515 96 508 94 q 529 101 522 97 q 541 108 536 106 q 553 118 546 111 l 564 128 q 574 141 567 132 q 585 153 582 150 m 434 728 q 455 728 434 728 q 498 710 476 728 q 519 655 519 692 q 483 586 519 618 q 406 554 447 554 q 342 573 364 554 q 321 629 321 592 q 356 697 321 667 q 434 728 392 728 m 407 582 q 447 608 429 582 q 465 668 465 635 q 436 701 465 701 q 393 674 413 701 q 374 615 374 647 q 407 582 374 582 z "},"Ű":{"ha":1001,"x_min":56,"x_max":1001,"o":"m 796 108 l 840 72 q 783 -15 824 25 q 696 -54 743 -54 q 592 8 632 -54 q 539 189 551 71 q 379 58 475 119 q 211 -4 283 -4 q 97 44 139 -4 q 56 169 56 93 q 225 582 56 343 q 568 922 394 821 l 606 869 q 315 558 447 751 q 183 219 183 365 q 209 135 183 165 q 281 106 235 106 q 411 160 328 106 q 536 261 494 214 q 601 535 543 396 q 738 762 658 674 q 888 850 818 850 q 946 779 946 850 q 842 542 946 708 q 635 279 738 376 q 632 243 632 257 q 656 116 632 182 q 721 50 681 50 q 796 108 756 50 m 817 719 q 715 612 771 719 q 644 383 660 504 q 783 573 731 486 q 835 699 835 660 q 817 719 835 719 m 813 1061 l 624 943 l 567 963 l 694 1096 l 813 1061 m 1001 1047 l 807 940 l 749 963 l 906 1086 l 1001 1047 z "},"ű":{"ha":639,"x_min":31,"x_max":651,"o":"m 585 153 l 614 129 q 540 31 590 71 q 448 -10 489 -10 q 383 19 407 -10 q 360 93 360 47 q 375 211 360 139 q 235 50 310 108 q 108 -8 160 -8 q 31 103 31 -8 q 94 344 31 197 q 188 515 158 492 l 254 486 q 168 306 197 394 q 139 187 139 217 q 158 139 139 157 q 201 121 176 121 q 340 223 257 121 q 508 528 422 325 l 579 496 q 516 335 576 485 q 456 155 456 185 q 469 110 456 125 q 495 94 482 94 q 515 96 508 94 q 529 101 522 97 q 541 108 536 106 q 553 118 546 111 l 564 128 q 574 141 567 132 q 585 153 582 150 m 463 692 l 274 574 l 217 593 l 344 726 l 463 692 m 651 678 l 457 571 l 399 593 l 556 717 l 651 678 z "},"Ų":{"ha":960,"x_min":35,"x_max":925,"o":"m 751 -133 l 779 -156 q 665 -254 738 -211 q 548 -297 592 -297 q 481 -278 504 -297 q 458 -233 458 -260 q 497 -117 458 -181 q 583 -8 535 -54 q 518 189 533 51 q 358 58 454 119 q 190 -4 263 -4 q 76 44 118 -4 q 35 169 35 93 q 204 582 35 343 q 547 922 374 821 l 585 869 q 294 558 426 751 q 163 219 163 365 q 188 135 163 165 q 260 106 214 106 q 390 160 307 106 q 515 261 474 214 q 580 535 522 396 q 717 762 638 674 q 867 850 797 850 q 925 779 925 850 q 821 542 925 708 q 614 279 717 376 q 611 243 611 257 q 635 116 611 182 q 700 50 660 50 q 775 108 735 50 l 819 72 q 763 -15 803 25 q 675 -54 722 -54 q 629 -44 649 -54 q 578 -157 578 -122 q 588 -179 578 -168 q 619 -190 597 -190 q 751 -133 669 -190 m 796 719 q 694 612 750 719 q 624 383 639 504 q 762 573 710 486 q 814 699 814 660 q 796 719 814 719 z "},"ų":{"ha":597,"x_min":10,"x_max":593,"o":"m 531 -125 l 558 -147 q 444 -246 517 -203 q 327 -289 371 -289 q 260 -270 283 -289 q 238 -225 238 -251 q 280 -103 238 -169 q 372 8 322 -36 q 339 88 339 38 q 354 211 339 139 q 214 50 289 108 q 88 -8 139 -8 q 10 103 10 -8 q 74 344 10 197 q 167 515 138 492 l 233 486 q 147 306 176 394 q 118 187 118 217 q 137 139 118 157 q 181 121 156 121 q 319 223 236 121 q 488 528 401 325 l 558 496 q 495 335 556 485 q 435 155 435 185 q 448 110 435 125 q 474 94 461 94 q 494 96 488 94 q 508 101 501 97 q 520 108 515 106 q 532 118 525 111 l 542 128 q 553 141 546 132 q 564 153 561 150 l 593 129 q 521 33 569 72 q 429 -10 472 -7 q 378 -87 400 -43 q 357 -145 357 -131 q 367 -171 357 -160 q 399 -182 376 -182 q 531 -125 449 -182 z "},"Ŵ":{"ha":1082,"x_min":35,"x_max":1103,"o":"m 992 861 l 1094 875 q 1103 793 1103 838 q 1051 540 1103 682 q 925 283 999 399 q 768 87 851 167 q 628 7 685 7 q 506 199 506 7 q 571 579 506 290 q 274 180 410 351 q 109 8 138 8 q 58 31 81 8 q 35 76 35 53 q 43 124 35 100 q 122 460 103 303 q 140 741 140 617 q 139 894 140 865 l 247 894 q 256 756 256 850 q 233 495 256 663 q 176 185 210 328 q 607 771 281 318 q 667 842 644 825 q 723 860 690 860 q 756 828 756 860 q 721 708 756 815 q 654 443 686 601 q 622 203 622 285 q 664 121 622 121 q 736 163 693 121 q 918 445 843 265 q 993 815 993 625 q 992 861 993 846 m 507 961 l 711 1119 q 890 969 861 1000 l 849 936 q 706 1025 731 1007 l 568 928 l 507 961 z "},"ŵ":{"ha":815,"x_min":-8,"x_max":835,"o":"m 796 540 l 835 504 l 751 403 q 533 42 604 221 q 496 4 514 4 q 466 9 478 4 q 440 44 454 14 q 419 118 425 75 q 410 192 414 161 q 404 237 406 222 q 401 267 403 251 q 397 292 399 283 q 394 308 396 300 q 390 324 393 317 q 386 338 388 332 q 380 360 385 344 q 372 386 375 375 q 249 203 300 308 q 172 42 229 163 q 138 15 160 15 q 103 20 117 15 q 76 53 90 25 q 56 136 63 81 q -8 517 22 415 q 72 528 32 528 q 90 451 79 515 q 150 161 114 328 q 301 402 218 292 q 410 513 383 513 q 452 470 440 513 q 473 328 464 428 q 497 163 482 229 q 796 540 628 386 m 215 571 l 419 729 q 599 579 569 610 l 557 546 q 414 635 439 617 l 276 538 l 215 571 z "},"Ŷ":{"ha":903,"x_min":-132,"x_max":868,"o":"m 438 13 l 479 11 q 517 122 488 40 q 560 231 547 204 q 336 67 415 94 q 249 51 293 51 q 135 100 175 51 q 94 236 94 149 q 210 570 94 361 q 472 897 325 779 l 528 846 q 219 292 219 514 q 321 163 219 163 q 518 274 422 163 q 717 618 614 385 q 781 744 758 714 q 824 775 803 775 q 856 763 844 775 q 868 729 868 750 q 740 465 868 640 q 561 10 651 282 q 700 -22 626 6 l 686 -69 l 539 -49 q 341 -348 457 -249 q 64 -447 225 -447 q -76 -402 -19 -447 q -132 -289 -132 -357 q 36 -76 -132 -164 q 438 13 204 13 m 126 -351 q 326 -260 239 -351 q 454 -47 413 -169 q 142 -110 268 -47 q 15 -264 15 -174 q 47 -327 15 -303 q 126 -351 78 -351 m 438 983 l 642 1142 q 821 992 792 1022 l 779 958 q 636 1047 661 1029 l 499 950 l 438 983 z "},"ŷ":{"ha":613,"x_min":-17,"x_max":674,"o":"m 578 88 l 582 51 q 453 1 576 47 q 410 -180 436 -90 q 359 -316 385 -269 q 300 -408 333 -362 q 111 -500 229 -500 q 18 -464 53 -500 q -17 -365 -17 -428 q 386 21 -17 -125 l 461 285 q 247 64 342 106 q 147 42 199 42 q 63 75 94 42 q 32 172 32 108 q 76 351 32 236 q 174 543 119 465 l 242 514 q 203 440 238 510 q 142 253 142 314 q 165 171 142 192 q 235 150 189 150 q 338 205 281 150 q 517 422 396 260 l 567 393 q 517 227 556 347 q 465 43 479 107 l 578 88 m 378 -21 q 224 -112 290 -61 q 99 -296 99 -207 q 118 -350 99 -329 q 167 -371 138 -371 q 378 -21 306 -371 m 290 588 l 494 746 q 674 596 644 626 l 632 563 q 489 651 514 633 l 351 554 l 290 588 z "},"Ÿ":{"ha":944,"x_min":-111,"x_max":889,"o":"m 458 13 l 500 11 q 538 122 508 40 q 581 231 568 204 q 357 67 436 94 q 269 51 314 51 q 156 100 196 51 q 115 236 115 149 q 231 570 115 361 q 493 897 346 779 l 549 846 q 240 292 240 514 q 342 163 240 163 q 539 274 443 163 q 738 618 635 385 q 801 744 779 714 q 844 775 824 775 q 877 763 865 775 q 889 729 889 750 q 761 465 889 640 q 582 10 672 282 q 721 -22 647 6 l 707 -69 l 560 -49 q 362 -348 478 -249 q 85 -447 246 -447 q -55 -402 1 -447 q -111 -289 -111 -357 q 57 -76 -111 -164 q 458 13 225 13 m 147 -351 q 347 -260 260 -351 q 475 -47 433 -169 q 163 -110 289 -47 q 36 -264 36 -174 q 67 -327 36 -303 q 147 -351 99 -351 m 609 993 q 601 1001 609 993 q 593 1032 593 1008 q 609 1072 593 1056 q 647 1088 625 1088 q 686 1072 669 1088 q 703 1033 703 1056 q 687 994 703 1010 q 648 978 671 978 q 609 993 625 978 m 785 993 q 777 1001 785 993 q 769 1032 769 1008 q 785 1072 769 1056 q 824 1088 801 1088 q 863 1072 847 1088 q 879 1033 879 1056 q 863 994 879 1010 q 824 978 847 978 q 785 993 800 978 z "},"Ź":{"ha":942,"x_min":56,"x_max":886,"o":"m 324 665 l 331 603 q 323 583 331 592 q 306 574 315 574 q 251 619 279 574 q 224 706 224 665 q 326 824 224 793 q 615 854 429 854 q 844 842 801 854 q 886 776 886 831 q 863 724 886 753 q 773 632 840 694 q 544 435 706 569 q 297 213 382 300 q 189 90 213 125 q 264 88 247 88 q 535 108 451 88 q 618 181 618 129 l 611 243 q 619 263 611 254 q 636 272 626 272 q 690 226 663 272 q 718 140 718 181 q 615 22 718 53 q 326 -8 513 -8 q 98 3 140 -8 q 56 69 56 15 q 163 210 56 107 q 436 452 271 313 q 661 650 601 592 q 753 756 721 708 q 678 758 694 758 q 407 738 490 758 q 324 665 324 717 m 696 1000 l 458 922 l 418 947 l 601 1056 l 696 1000 z "},"ź":{"ha":610,"x_min":10,"x_max":564,"o":"m 507 103 l 506 44 q 418 42 474 43 q 341 40 363 40 q 282 36 319 39 q 164 19 218 32 q 90 4 96 4 q 37 36 64 4 q 10 99 10 68 q 426 450 10 157 q 344 451 408 451 q 119 424 279 451 l 111 471 q 464 528 206 528 q 541 519 518 528 q 564 482 564 511 q 528 424 564 450 q 505 408 521 418 q 447 369 489 399 q 363 309 406 340 q 256 215 321 278 q 131 78 190 153 q 390 108 322 108 q 507 103 457 108 m 465 647 l 228 569 l 188 594 l 371 703 l 465 647 z "},"Ż":{"ha":942,"x_min":56,"x_max":886,"o":"m 324 665 l 331 603 q 323 583 331 592 q 306 574 315 574 q 251 619 279 574 q 224 706 224 665 q 326 824 224 793 q 615 854 429 854 q 844 842 801 854 q 886 776 886 831 q 863 724 886 753 q 773 632 840 694 q 544 435 706 569 q 297 213 382 300 q 189 90 213 125 q 264 88 247 88 q 535 108 451 88 q 618 181 618 129 l 611 243 q 619 263 611 254 q 636 272 626 272 q 690 226 663 272 q 718 140 718 181 q 615 22 718 53 q 326 -8 513 -8 q 98 3 140 -8 q 56 69 56 15 q 163 210 56 107 q 436 452 271 313 q 661 650 601 592 q 753 756 721 708 q 678 758 694 758 q 407 738 490 758 q 324 665 324 717 m 570 963 q 562 970 570 963 q 554 1001 554 978 q 570 1041 554 1025 q 608 1057 586 1057 q 647 1041 631 1057 q 664 1002 664 1025 q 648 963 664 979 q 609 947 632 947 q 570 963 586 947 z "},"ż":{"ha":610,"x_min":10,"x_max":564,"o":"m 507 103 l 506 44 q 418 42 474 43 q 341 40 363 40 q 282 36 319 39 q 164 19 218 32 q 90 4 96 4 q 37 36 64 4 q 10 99 10 68 q 426 450 10 157 q 344 451 408 451 q 119 424 279 451 l 111 471 q 464 528 206 528 q 541 519 518 528 q 564 482 564 511 q 528 424 564 450 q 505 408 521 418 q 447 369 489 399 q 363 309 406 340 q 256 215 321 278 q 131 78 190 153 q 390 108 322 108 q 507 103 457 108 m 265 590 q 258 598 265 590 q 250 629 250 606 q 266 669 250 653 q 305 685 282 685 q 344 669 328 685 q 360 630 360 653 q 344 591 360 607 q 304 575 328 575 q 265 590 281 575 z "},"Ž":{"ha":942,"x_min":56,"x_max":886,"o":"m 324 665 l 331 603 q 323 583 331 592 q 306 574 315 574 q 251 619 279 574 q 224 706 224 665 q 326 824 224 793 q 615 854 429 854 q 844 842 801 854 q 886 776 886 831 q 863 724 886 753 q 773 632 840 694 q 544 435 706 569 q 297 213 382 300 q 189 90 213 125 q 264 88 247 88 q 535 108 451 88 q 618 181 618 129 l 611 243 q 619 263 611 254 q 636 272 626 272 q 690 226 663 272 q 718 140 718 181 q 615 22 718 53 q 326 -8 513 -8 q 98 3 140 -8 q 56 69 56 15 q 163 210 56 107 q 436 452 271 313 q 661 650 601 592 q 753 756 721 708 q 678 758 694 758 q 407 738 490 758 q 324 665 324 717 m 599 936 l 394 1094 l 456 1128 q 593 1031 532 1069 q 736 1119 618 1049 l 778 1086 q 636 967 757 1063 l 599 936 z "},"ž":{"ha":610,"x_min":10,"x_max":564,"o":"m 507 103 l 506 44 q 418 42 474 43 q 341 40 363 40 q 282 36 319 39 q 164 19 218 32 q 90 4 96 4 q 37 36 64 4 q 10 99 10 68 q 426 450 10 157 q 344 451 408 451 q 119 424 279 451 l 111 471 q 464 528 206 528 q 541 519 518 528 q 564 482 564 511 q 528 424 564 450 q 505 408 521 418 q 447 369 489 399 q 363 309 406 340 q 256 215 321 278 q 131 78 190 153 q 390 108 322 108 q 507 103 457 108 m 333 553 l 129 711 l 190 744 q 328 647 267 686 q 471 736 353 665 l 513 703 q 372 583 492 679 l 333 553 z "},"ƒ":{"ha":865,"x_min":-189,"x_max":882,"o":"m 763 844 q 848 819 814 844 q 882 754 882 793 q 801 599 882 679 q 626 514 719 518 l 614 560 q 749 630 703 590 q 794 722 796 669 q 774 763 793 746 q 719 779 754 779 q 640 739 685 779 q 556 631 594 699 q 431 354 486 508 q 544 350 504 350 q 639 374 583 350 l 669 319 q 652 306 668 319 q 628 289 636 293 q 597 276 619 285 q 492 261 558 261 q 394 264 426 261 q 226 -80 304 14 q 7 -174 149 -174 q -189 -121 -93 -174 l -162 -75 q -131 -87 -151 -79 q -100 -100 -110 -96 l -75 -108 q -25 -117 -47 -117 q 292 267 147 -117 q 260 269 272 269 q 151 243 204 269 l 115 307 q 198 347 151 338 q 328 357 244 357 q 528 727 413 610 q 763 844 643 844 z "},"Ǽ":{"ha":1635,"x_min":-118,"x_max":1636,"o":"m 1636 799 q 1570 675 1636 729 q 1419 596 1504 621 q 1254 571 1333 571 q 1224 572 1233 571 l 1224 619 q 1304 633 1226 619 q 1435 679 1382 646 q 1489 754 1489 713 q 1414 804 1489 804 q 1222 735 1313 804 q 1132 589 1132 665 q 1226 490 1132 513 q 1254 479 1247 485 q 1261 460 1261 474 q 1248 437 1261 446 q 1188 411 1235 428 q 932 139 932 324 q 946 75 932 101 q 1165 251 1031 183 q 1425 319 1300 319 q 1529 291 1490 319 q 1568 213 1568 263 q 1496 57 1568 135 q 1309 -70 1424 -21 q 1081 -119 1194 -119 q 903 -78 967 -119 q 892 -100 901 -79 q 843 -176 863 -154 l 797 -157 q 854 -39 807 -118 q 779 161 779 17 q 800 336 779 232 q 708 338 781 338 q 608 335 636 338 q 311 6 447 118 q 39 -106 175 -106 q -73 -65 -28 -106 q -118 42 -118 -25 q 74 272 -118 168 q 572 413 267 376 q 707 584 608 468 q 901 786 806 700 q 967 922 943 883 q 1015 960 992 960 q 1054 942 1039 960 q 1069 895 1069 924 q 1043 821 1069 867 q 914 342 961 676 q 1067 428 978 393 q 1001 540 1001 482 q 1085 702 1001 619 q 1288 836 1168 785 q 1514 888 1408 888 q 1603 863 1569 888 q 1636 799 1636 839 m 342 124 q 515 332 457 233 q 155 244 282 318 q 28 88 28 171 q 52 31 28 51 q 117 10 76 10 q 342 124 225 10 m 1344 236 q 1153 174 1263 236 q 976 25 1044 111 q 1134 -37 1032 -37 q 1334 28 1236 -37 q 1432 171 1432 94 q 1408 219 1432 201 q 1344 236 1385 236 m 817 426 q 842 545 826 474 q 861 629 858 617 q 768 535 794 565 q 675 421 742 506 q 733 423 699 422 q 789 425 767 424 q 817 426 811 426 m 1415 1044 l 1178 967 l 1138 992 l 1321 1100 l 1415 1044 z "},"ǽ":{"ha":1057,"x_min":11,"x_max":1053,"o":"m 940 164 l 972 139 q 854 40 929 79 q 703 0 779 0 q 583 53 628 0 q 468 0 521 0 q 386 86 386 0 q 407 182 386 126 l 356 129 q 226 26 281 53 q 118 0 171 0 q 38 30 65 0 q 11 113 11 60 q 86 305 11 210 q 278 460 161 400 q 511 521 394 519 l 514 475 l 456 463 q 233 351 329 435 q 136 185 136 268 q 203 103 136 103 q 357 190 265 103 q 510 396 449 278 l 568 361 q 482 140 482 188 q 495 108 482 121 q 525 94 508 94 q 557 104 542 94 q 551 151 551 125 q 687 403 551 279 q 961 526 822 526 q 1053 454 1053 526 q 956 303 1053 379 q 685 164 860 226 q 724 114 697 132 q 778 96 750 96 q 940 164 839 96 m 678 206 q 871 303 790 244 q 951 410 951 361 q 938 442 951 428 q 906 456 925 456 q 765 374 840 456 q 678 206 689 293 m 847 642 l 610 564 l 569 589 l 753 697 l 847 642 z "},"Ǿ":{"ha":950,"x_min":35,"x_max":971,"o":"m 810 1001 l 864 972 q 750 817 806 896 q 779 701 779 765 q 768 599 779 636 q 971 683 874 633 l 971 617 q 740 518 908 581 q 524 190 671 344 q 244 11 376 35 q 146 -175 211 -47 l 85 -157 q 172 11 124 -79 q 72 74 110 22 q 35 217 35 126 q 99 441 35 307 q 267 692 163 575 q 479 865 371 810 q 618 894 524 894 q 708 864 669 894 l 810 1001 m 158 265 q 239 132 158 154 q 450 485 335 306 q 275 585 297 506 q 158 265 158 422 m 419 732 q 374 644 374 685 q 490 549 374 567 q 624 743 540 624 q 538 776 593 776 q 419 732 483 776 m 438 207 q 628 488 574 342 q 539 481 593 481 l 519 481 q 310 132 400 292 q 438 207 375 144 m 678 1018 l 440 940 l 400 965 l 583 1074 l 678 1018 m 647 558 q 656 627 656 600 q 653 679 656 654 q 563 546 606 611 q 647 558 610 549 z "},"ǿ":{"ha":446,"x_min":-167,"x_max":613,"o":"m 558 1001 l 613 972 q 282 501 431 731 q 339 508 314 508 q 374 507 364 508 l 378 461 q 233 425 294 461 q 119 238 183 347 l 119 233 q 149 137 119 174 q 234 100 178 100 q 324 150 290 100 q 357 267 357 200 q 331 390 357 335 l 403 413 q 439 281 439 353 q 361 80 439 168 q 175 -8 283 -8 q 26 74 67 -8 q -106 -175 -60 -85 l -167 -157 q 7 167 -85 1 q 56 335 7 254 q 185 463 106 415 q 558 1001 356 732 m 53 654 l 290 732 l 196 788 l 13 679 l 53 654 z "},"Ș":{"ha":857,"x_min":-35,"x_max":822,"o":"m 542 -172 q 560 -130 542 -147 q 606 -112 579 -112 q 649 -128 633 -112 q 664 -171 664 -144 q 558 -308 664 -232 l 528 -264 q 585 -217 583 -219 q 542 -172 542 -203 m 724 251 l 822 253 l 822 196 q 783 199 806 199 q 733 196 761 199 q 631 -21 733 89 q 383 -199 528 -131 q 113 -268 238 -268 q 6 -235 47 -268 q -35 -147 -35 -201 q 72 21 -35 -67 q 322 165 179 108 q 581 232 465 222 q 538 268 567 253 q 418 316 508 283 q 290 388 328 349 q 253 500 253 428 q 331 665 253 572 q 515 822 408 758 q 701 885 621 885 q 761 859 738 885 q 785 796 785 833 q 711 642 785 735 q 547 501 638 550 l 514 549 q 609 635 568 576 q 650 738 650 694 q 604 781 650 781 q 455 699 539 781 q 371 547 371 618 q 396 471 371 499 q 522 402 421 443 q 667 330 624 361 q 724 251 710 299 m 104 -111 q 214 -178 104 -178 q 367 -134 272 -178 q 535 -12 463 -90 q 608 149 608 67 q 604 178 608 158 q 259 71 414 160 q 104 -111 104 -18 z "},"ș":{"ha":446,"x_min":-12,"x_max":461,"o":"m 76 -131 q 95 -88 76 -106 q 141 -71 114 -71 q 183 -87 168 -71 q 199 -129 199 -103 q 93 -267 199 -190 l 63 -222 q 83 -206 68 -218 q 108 -187 99 -194 q 119 -175 117 -181 q 76 -131 76 -161 m 461 543 l 449 489 q 388 492 425 492 q 249 400 249 492 q 305 286 249 381 q 361 160 361 192 q 310 42 361 85 q 175 0 260 0 q -12 129 58 0 l 40 167 q 82 130 60 151 q 114 100 104 108 q 174 76 142 76 q 229 99 206 76 q 253 156 253 122 q 192 283 253 190 q 132 414 132 376 q 190 518 132 482 q 341 554 247 554 q 461 543 435 554 z "},"ˆ":{"ha":365,"x_min":-14,"x_max":369,"o":"m -14 571 l 190 729 q 369 579 340 610 l 328 546 q 185 635 210 617 l 47 538 l -14 571 z "},"ˇ":{"ha":365,"x_min":-14,"x_max":369,"o":"m 190 538 l -14 696 l 47 729 q 185 632 124 671 q 328 721 210 650 l 369 688 q 228 568 349 664 l 190 538 z "},"˘":{"ha":300,"x_min":-12,"x_max":313,"o":"m 271 692 l 313 669 q 241 593 285 626 q 154 560 197 560 q 64 592 111 560 q -12 658 17 625 l 32 696 q 150 625 104 625 q 271 692 221 625 z "},"˙":{"ha":92,"x_min":-6,"x_max":104,"o":"m 10 590 q 2 598 10 590 q -6 629 -6 606 q 10 669 -6 653 q 49 685 26 685 q 88 669 72 685 q 104 630 104 653 q 88 591 104 607 q 49 575 72 575 q 10 590 25 575 z "},"˚":{"ha":175,"x_min":-11,"x_max":188,"o":"m 102 719 q 123 719 102 719 q 166 701 144 719 q 188 647 188 683 q 151 578 188 610 q 74 546 115 546 q 10 565 32 546 q -11 621 -11 583 q 24 689 -11 658 q 102 719 60 719 m 75 574 q 115 600 97 574 q 133 660 133 626 q 104 693 133 693 q 61 666 81 693 q 42 606 42 639 q 75 574 42 574 z "},"˛":{"ha":304,"x_min":-8,"x_max":313,"o":"m 285 -110 l 313 -132 q 198 -231 271 -187 q 81 -274 125 -274 q 15 -255 38 -274 q -8 -210 -8 -236 q 48 -66 -8 -144 q 154 44 104 13 l 217 38 q 145 -50 179 10 q 111 -128 111 -110 q 157 -167 111 -167 q 285 -110 203 -167 z "},"˜":{"ha":339,"x_min":-18,"x_max":360,"o":"m 328 690 l 360 664 q 299 593 333 622 q 237 564 265 564 q 175 612 208 564 q 114 660 142 660 q 86 650 100 660 q 65 635 72 640 q 43 618 57 629 q 21 601 29 607 l -18 638 q 120 728 85 728 q 196 679 156 728 q 257 631 236 631 q 294 656 271 631 q 328 690 317 681 z "},"˝":{"ha":422,"x_min":-11,"x_max":424,"o":"m 235 671 l 46 553 l -11 572 l 117 706 l 235 671 m 424 657 l 229 550 l 171 572 l 328 696 l 424 657 z "},"Ё":{"ha":957,"x_min":56,"x_max":901,"o":"m 901 797 q 835 674 901 728 q 684 594 769 619 q 519 569 599 569 q 489 571 499 569 l 489 618 q 569 631 492 618 q 701 678 647 644 q 754 753 754 711 q 679 803 754 803 q 488 733 578 803 q 397 588 397 664 q 492 489 397 511 q 519 478 513 483 q 526 458 526 472 q 513 435 526 444 q 453 410 500 426 q 197 138 197 322 q 211 74 197 100 q 431 250 296 182 q 690 318 565 318 q 794 290 756 318 q 833 211 833 261 q 761 56 833 133 q 574 -72 689 -22 q 347 -121 460 -121 q 168 -79 233 -121 q 156 -100 167 -81 q 108 -178 128 -156 l 63 -158 q 119 -40 72 -119 q 56 122 56 32 q 128 292 56 211 q 332 426 201 374 q 267 539 267 481 q 350 701 267 618 q 553 835 433 783 q 779 886 674 886 q 868 862 835 886 q 901 797 901 838 m 610 235 q 419 172 528 235 q 242 24 310 110 q 399 -39 297 -39 q 599 27 501 -39 q 697 169 697 93 q 674 217 697 200 q 610 235 650 235 m 620 974 q 612 981 620 974 q 604 1013 604 989 q 620 1052 604 1036 q 658 1068 636 1068 q 697 1052 681 1068 q 714 1013 714 1036 q 698 974 714 990 q 659 958 682 958 q 620 974 636 958 m 796 974 q 788 981 796 974 q 781 1013 781 989 q 797 1052 781 1036 q 835 1068 813 1068 q 874 1052 858 1068 q 890 1013 890 1036 q 874 974 890 990 q 835 958 858 958 q 796 974 811 958 z "},"Ђ":{"ha":1129,"x_min":10,"x_max":943,"o":"m 443 879 l 772 869 q 835 881 797 869 q 886 893 874 893 q 906 885 899 893 q 914 867 914 878 q 613 771 914 771 q 403 210 475 457 q 769 490 599 490 q 915 335 915 490 q 856 83 915 239 l 943 83 l 943 29 l 826 6 q 558 -315 715 -200 q 278 -431 401 -431 q 172 -394 211 -431 q 133 -285 133 -358 q 241 -126 133 -211 q 495 16 349 -42 q 776 93 642 74 q 831 275 831 183 q 711 375 831 375 q 519 263 625 375 q 357 4 414 150 l 275 33 q 378 399 303 176 q 519 769 454 621 l 365 779 q 158 749 228 788 q 88 647 88 710 q 114 594 88 615 q 167 572 140 572 q 206 574 193 572 q 240 584 219 576 q 268 594 260 592 q 339 625 297 604 l 368 589 q 138 483 263 483 q 46 518 82 483 q 10 606 10 553 q 128 800 10 721 q 443 879 246 879 m 739 14 q 399 -90 529 -11 q 269 -246 269 -169 q 293 -287 269 -267 q 357 -307 317 -307 q 523 -233 426 -307 q 739 14 619 -160 z "},"Ѓ":{"ha":847,"x_min":56,"x_max":931,"o":"m 638 771 l 439 775 q 135 642 135 775 q 160 585 135 607 q 238 564 186 564 q 372 611 289 564 l 393 575 q 296 503 350 529 q 188 476 242 476 q 94 513 133 476 q 56 603 56 549 q 174 794 56 713 q 496 876 293 876 q 615 871 513 876 q 778 865 718 865 q 888 883 838 865 q 911 889 907 889 q 931 864 931 889 q 867 799 931 828 q 722 769 804 769 q 562 459 631 681 q 398 122 493 238 q 172 6 303 6 q 75 39 121 6 l 107 92 q 144 76 124 83 l 164 74 q 185 72 171 72 q 309 139 254 72 q 424 391 364 206 q 519 637 485 576 q 638 771 553 697 m 814 996 l 576 918 l 536 943 l 719 1051 l 814 996 z "},"Є":{"ha":729,"x_min":26,"x_max":725,"o":"m 461 457 l 461 401 l 147 379 q 138 307 138 346 q 192 166 138 222 q 340 110 247 110 q 481 134 433 110 q 529 225 529 158 q 528 250 529 240 l 590 258 q 601 189 601 218 q 524 50 601 100 q 315 0 447 0 q 104 60 182 0 q 26 231 26 119 q 90 460 26 342 q 244 663 153 578 q 439 802 336 747 q 621 857 542 857 q 697 830 669 857 q 725 747 725 803 q 676 647 725 692 q 465 569 593 569 l 458 615 q 488 619 463 617 q 528 625 514 621 q 564 639 543 629 q 606 710 606 656 q 587 751 606 735 q 540 767 568 767 q 332 668 440 767 q 169 443 224 569 q 461 457 272 454 z "},"Ѕ":{"ha":899,"x_min":-14,"x_max":843,"o":"m 744 251 l 843 253 l 843 196 q 804 199 826 199 q 754 196 782 199 q 651 -21 754 89 q 403 -199 549 -131 q 133 -268 258 -268 q 27 -235 68 -268 q -14 -147 -14 -201 q 93 21 -14 -67 q 343 165 200 108 q 601 232 486 222 q 558 268 588 253 q 439 316 529 283 q 311 388 349 349 q 274 500 274 428 q 351 665 274 572 q 535 822 429 758 q 722 885 642 885 q 782 859 758 885 q 806 796 806 833 q 732 642 806 735 q 568 501 658 550 l 535 549 q 630 635 589 576 q 671 738 671 694 q 625 781 671 781 q 476 699 560 781 q 392 547 392 618 q 417 471 392 499 q 543 402 442 443 q 688 330 644 361 q 744 251 731 299 m 125 -111 q 233 -178 125 -178 q 388 -134 293 -178 q 556 -12 483 -90 q 629 149 629 67 q 625 178 629 158 q 280 71 435 160 q 125 -111 125 -18 z "},"І":{"ha":842,"x_min":56,"x_max":856,"o":"m 832 856 q 856 831 856 849 q 839 806 856 825 q 749 683 775 724 q 688 549 724 643 q 624 367 653 454 q 596 279 596 281 q 439 78 539 151 q 229 4 339 4 q 103 42 151 4 q 56 144 56 81 q 185 328 56 244 q 443 411 314 411 l 449 365 q 272 289 346 344 q 197 168 197 233 q 222 100 197 126 q 283 74 246 74 q 406 140 354 74 q 510 374 457 206 q 608 619 564 542 q 718 750 651 697 q 675 751 699 751 q 442 714 556 751 q 329 614 329 676 q 364 540 329 575 l 333 503 q 240 654 240 568 q 290 753 240 711 q 422 817 339 794 q 781 860 582 860 q 832 856 824 860 z "},"Ї":{"ha":842,"x_min":56,"x_max":856,"o":"m 832 856 q 856 831 856 849 q 839 806 856 825 q 749 683 775 724 q 688 549 724 643 q 624 367 653 454 q 596 279 596 281 q 439 78 539 151 q 229 4 339 4 q 103 42 151 4 q 56 144 56 81 q 185 328 56 244 q 443 411 314 411 l 449 365 q 272 289 346 344 q 197 168 197 233 q 222 100 197 126 q 283 74 246 74 q 406 140 354 74 q 510 374 457 206 q 608 619 564 542 q 718 750 651 697 q 675 751 699 751 q 442 714 556 751 q 329 614 329 676 q 364 540 329 575 l 333 503 q 240 654 240 568 q 290 753 240 711 q 422 817 339 794 q 781 860 582 860 q 832 856 824 860 m 568 943 q 556 943 568 943 q 529 959 544 943 q 514 998 514 975 q 530 1037 514 1021 q 569 1053 546 1053 q 608 1036 592 1053 q 624 997 624 1019 q 608 959 624 975 q 568 943 592 943 m 745 943 q 734 943 745 943 q 706 959 722 943 q 690 998 690 975 q 706 1037 690 1021 q 744 1053 722 1053 q 783 1036 767 1053 q 800 997 800 1019 q 784 959 800 975 q 745 943 768 943 z "},"Ј":{"ha":1003,"x_min":-111,"x_max":1003,"o":"m 811 864 q 949 853 896 864 q 1003 811 1003 843 q 958 757 1003 783 q 763 541 849 690 q 588 100 678 392 q 711 93 669 100 l 703 38 q 633 44 664 44 q 565 38 603 44 q 474 -154 522 -81 q 351 -292 426 -228 q 185 -397 276 -356 q 28 -439 93 -439 q -74 -403 -36 -439 q -111 -310 -111 -368 q -28 -133 -111 -221 q 192 14 56 -46 q 481 89 329 74 q 524 221 483 94 q 667 552 588 429 q 860 756 747 675 q 797 758 836 758 q 403 671 557 758 q 249 474 249 583 q 291 342 249 403 q 411 218 333 282 l 378 172 q 151 481 151 294 q 244 678 151 589 q 487 815 336 767 q 811 864 638 864 m 110 -344 q 244 -300 174 -344 q 376 -169 314 -256 q 463 28 438 -83 q 156 -76 282 10 q 31 -267 31 -161 q 51 -324 31 -303 q 110 -344 72 -344 z "},"Љ":{"ha":1231,"x_min":-21,"x_max":1221,"o":"m 1078 336 q 1182 308 1143 336 q 1221 229 1221 279 q 1076 7 1221 110 q 758 -96 931 -96 q 579 -54 643 -96 q 567 -75 578 -56 q 519 -153 539 -131 l 474 -133 q 531 -15 483 -94 l 519 3 q 471 182 471 83 q 513 706 474 483 q 526 788 526 783 q 515 801 526 801 q 444 663 493 801 l 404 547 q 224 156 315 296 q 15 -42 133 15 l -21 35 q 187 239 114 135 q 346 575 260 343 l 393 701 q 478 890 442 833 q 558 946 514 946 q 632 857 632 946 q 607 630 632 810 q 582 324 582 450 q 622 99 582 199 q 831 272 708 207 q 1078 336 953 336 m 653 49 q 810 -14 708 -14 q 999 49 913 -14 q 1085 188 1085 111 q 1061 235 1085 218 q 997 253 1038 253 q 819 194 917 253 q 653 49 722 136 z "},"Њ":{"ha":1376,"x_min":-1,"x_max":1386,"o":"m 22 29 l 42 96 q 164 162 113 96 q 269 396 215 228 q 366 642 322 564 q 476 772 410 719 q 433 774 457 774 q 201 736 314 774 q 88 636 88 699 q 122 563 88 597 l 92 525 q -1 676 -1 590 q 48 775 -1 733 q 181 839 97 817 q 539 882 340 882 q 599 875 583 882 q 614 858 614 868 q 597 828 614 847 q 504 701 533 746 q 418 496 475 656 q 682 551 515 524 q 811 868 736 731 l 901 817 q 894 801 900 811 q 799 567 829 669 q 768 362 768 465 q 788 206 768 258 q 996 378 874 314 q 1243 443 1118 443 q 1347 415 1308 443 q 1386 336 1386 386 q 1241 114 1386 217 q 924 11 1096 11 q 744 53 808 11 q 733 31 743 51 q 685 -46 704 -24 l 639 -26 q 696 92 649 13 q 638 318 638 179 q 663 481 638 378 q 390 411 586 472 q 240 124 326 218 q 22 29 153 29 m 818 133 q 976 71 874 71 q 1164 133 1078 71 q 1250 272 1250 196 q 1226 320 1250 303 q 1163 338 1203 338 q 985 279 1082 338 q 818 133 888 221 z "},"Ћ":{"ha":917,"x_min":-3,"x_max":901,"o":"m 431 875 l 760 865 q 823 877 785 865 q 874 889 861 889 q 894 881 886 889 q 901 863 901 874 q 874 814 901 835 q 806 783 847 793 q 663 767 728 767 l 600 767 q 390 206 463 453 q 587 446 511 378 q 724 514 663 514 q 789 492 764 514 q 814 437 814 471 q 799 365 814 403 q 722 197 785 328 q 703 136 703 158 q 715 99 703 114 q 745 85 728 85 q 799 113 763 85 l 811 122 l 843 96 q 682 -12 778 -12 q 618 8 643 -12 q 593 60 593 29 q 647 194 593 90 q 701 346 701 297 q 684 382 701 367 q 644 397 667 397 q 496 271 590 397 q 344 0 401 144 l 263 29 q 366 394 290 172 q 507 765 442 617 l 353 775 q 145 744 215 783 q 75 643 75 706 q 101 590 75 611 q 154 568 128 568 q 194 570 181 568 q 227 580 207 572 q 256 590 247 588 q 326 621 285 600 l 356 585 q 125 479 250 479 q 33 514 69 479 q -3 601 -3 549 q 115 796 -3 717 q 431 875 233 875 z "},"Ќ":{"ha":1135,"x_min":0,"x_max":1246,"o":"m 1158 833 l 1246 790 q 1035 533 1157 646 q 713 310 914 421 q 808 -13 751 108 q 957 -149 865 -135 l 957 -212 q 928 -214 946 -214 q 748 -85 835 -214 q 592 297 661 44 q 410 1 532 110 q 156 -108 288 -108 q 44 -72 88 -108 q 0 30 0 -35 q 58 164 0 94 q 218 281 117 233 l 250 231 q 125 64 125 142 q 150 3 125 26 q 215 -19 175 -19 q 378 60 310 -19 q 501 340 447 140 q 640 669 569 592 q 733 749 672 706 q 538 716 638 746 q 363 627 438 686 q 288 496 288 568 q 372 347 288 403 l 344 304 q 222 401 267 342 q 178 525 178 461 q 274 690 178 613 q 509 811 369 768 q 783 854 649 854 q 867 818 867 854 q 818 758 867 794 q 681 585 729 692 q 603 335 633 478 q 906 528 761 393 q 1158 833 1051 664 m 1176 983 l 939 906 l 899 931 l 1082 1039 l 1176 983 z "},"Ў":{"ha":972,"x_min":-83,"x_max":950,"o":"m 486 13 l 528 11 q 566 122 536 40 q 608 231 596 204 q 385 67 464 94 q 297 51 342 51 q 183 100 224 51 q 143 236 143 149 q 258 570 143 361 q 521 897 374 779 l 576 846 q 268 292 268 514 q 369 163 268 163 q 567 274 471 163 q 765 618 663 385 q 829 744 807 714 q 872 775 851 775 q 905 763 893 775 q 917 729 917 750 q 789 465 917 640 q 610 10 700 282 q 749 -22 675 6 l 735 -69 l 588 -49 q 390 -348 506 -249 q 113 -447 274 -447 q -27 -402 29 -447 q -83 -289 -83 -357 q 85 -76 -83 -164 q 486 13 253 13 m 175 -351 q 374 -260 288 -351 q 503 -47 461 -169 q 190 -110 317 -47 q 64 -264 64 -174 q 95 -327 64 -303 q 175 -351 126 -351 m 908 1022 l 950 1000 q 878 924 922 957 q 792 890 835 890 q 701 923 749 890 q 625 989 654 956 l 669 1026 q 788 956 742 956 q 908 1022 858 956 z "},"Џ":{"ha":699,"x_min":-7,"x_max":694,"o":"m 221 90 l 242 90 q 426 171 325 90 q 578 378 526 251 q 604 500 604 442 q 565 571 604 558 l 615 686 q 694 529 694 658 q 619 276 694 400 q 426 75 543 151 q 196 -1 310 -1 q 165 -181 192 -19 l 119 -192 q 146 3 119 -117 q 33 78 74 11 q -7 228 -7 144 q 110 548 -7 368 q 428 881 228 728 l 483 829 q 210 538 319 721 q 101 235 101 356 q 133 132 101 174 q 221 90 165 90 z "},"А":{"ha":1299,"x_min":56,"x_max":1243,"o":"m 1224 414 l 1217 331 q 1148 333 1185 333 q 1086 332 1111 333 q 1061 0 1067 179 l 964 0 q 956 96 956 36 q 959 199 956 156 q 968 286 963 243 q 974 336 974 329 q 882 338 954 338 q 782 335 810 338 q 485 6 621 118 q 213 -106 349 -106 q 101 -65 146 -106 q 56 42 56 -25 q 248 272 56 168 q 746 413 440 376 q 881 584 782 468 q 1075 786 979 700 q 1141 922 1117 883 q 1189 960 1165 960 q 1228 942 1213 960 q 1243 895 1243 924 q 1212 812 1243 867 q 1147 642 1181 757 q 1101 426 1114 528 q 1224 414 1174 426 m 515 124 q 689 332 631 233 q 328 244 456 318 q 201 88 201 171 q 226 31 201 51 q 290 10 250 10 q 515 124 399 10 m 990 426 q 1016 545 1000 474 q 1035 629 1032 617 q 942 535 968 565 q 849 421 915 506 q 906 423 872 422 q 963 425 940 424 q 990 426 985 426 z "},"Б":{"ha":1129,"x_min":117,"x_max":1090,"o":"m 726 758 l 504 786 q 288 749 361 786 q 215 647 215 711 q 240 599 215 619 q 288 579 264 579 q 325 582 311 579 q 349 587 339 585 q 377 596 358 589 q 403 606 396 603 q 464 632 432 619 l 490 596 q 253 492 376 492 q 156 522 196 492 q 117 603 117 551 q 227 804 117 728 q 547 881 338 881 q 681 869 568 881 q 848 857 794 857 q 974 872 901 857 q 1061 888 1046 888 q 1090 864 1090 888 q 1031 800 1090 825 q 813 758 946 763 q 769 725 785 740 q 678 569 726 688 q 870 631 786 631 q 1007 594 954 631 q 1060 474 1060 557 q 974 243 1060 357 q 752 58 888 129 q 481 -12 617 -12 q 350 7 415 -12 q 247 -37 293 -37 q 177 -11 201 -37 q 153 56 153 15 q 265 272 153 139 q 546 503 376 404 q 726 758 640 707 m 335 107 q 501 386 418 200 q 507 400 507 399 q 342 244 421 342 q 263 110 263 146 q 284 75 263 75 q 335 107 306 75 m 683 98 q 732 127 683 98 q 845 242 782 156 q 908 402 908 329 q 882 495 908 475 q 783 515 856 515 q 628 472 710 515 q 579 367 611 439 q 526 250 547 294 q 401 56 469 129 q 488 40 444 40 q 683 98 583 40 z "}}}
